<svg xmlns="http://www.w3.org/2000/svg" width="13" height="18" viewBox="0 0 13 18" fill="none"><path d="M6.5 0.811523C2.91633 0.811523 0 3.56454 0 6.94928C0 11.7586 5.889 16.7243 6.13961 16.9329C6.24289 17.0189 6.37144 17.0615 6.5 17.0615C6.62856 17.0615 6.75711 17.0189 6.86039 16.9336C7.111 16.7243 13 11.7586 13 6.94928C13 3.56454 10.0837 0.811523 6.5 0.811523ZM6.5 10.2907C4.50883 10.2907 2.88889 8.77199 2.88889 6.90527C2.88889 5.03855 4.50883 3.51986 6.5 3.51986C8.49117 3.51986 10.1111 5.03855 10.1111 6.90527C10.1111 8.77199 8.49117 10.2907 6.5 10.2907Z" fill="#BCC1C8" /></svg>
