<svg width="25" height="24" viewBox="0 0 25 24" fill="none" xmlns="http://www.w3.org/2000/svg">
<path d="M21.4202 8.18242C21.281 8.29043 18.8231 9.67537 18.8231 12.7549C18.8231 16.3168 21.9507 17.577 22.0443 17.6082C22.0299 17.685 21.5474 19.3339 20.3953 21.0141C19.368 22.4926 18.2951 23.9688 16.6629 23.9688C15.0308 23.9688 14.6107 23.0207 12.7265 23.0207C10.8903 23.0207 10.2375 24 8.74453 24C7.25158 24 6.20988 22.6319 5.01216 20.9517C3.62482 18.9787 2.50391 15.9136 2.50391 13.0045C2.50391 8.33843 5.53781 5.86379 8.52371 5.86379C10.1103 5.86379 11.4328 6.90549 12.4289 6.90549C13.377 6.90549 14.8555 5.80138 16.6605 5.80138C17.3446 5.80138 19.8024 5.86379 21.4202 8.18242ZM15.8036 3.82598C16.5501 2.94029 17.0782 1.71137 17.0782 0.482448C17.0782 0.312031 17.0638 0.139214 17.0326 0C15.818 0.0456046 14.3731 0.808881 13.5018 1.81938C12.8177 2.59706 12.1793 3.82598 12.1793 5.07171C12.1793 5.25893 12.2105 5.44614 12.2249 5.50615C12.3017 5.52055 12.4265 5.53735 12.5513 5.53735C13.641 5.53735 15.0116 4.80768 15.8036 3.82598Z" fill="black"/>
</svg>
