<svg width="48" height="49" viewBox="0 0 48 49" fill="none" xmlns="http://www.w3.org/2000/svg">
<g clip-path="url(#clip0_1738_28687)">
<path d="M47.2819 30.3057C44.0761 43.163 31.0524 50.9877 18.1921 47.7815C5.33726 44.5761 -2.4883 31.5529 0.718845 18.6967C3.92317 5.83806 16.947 -1.98721 29.8032 1.21816C42.6625 4.42353 50.4876 17.4481 47.2815 30.3059L47.2818 30.3057H47.2819Z" fill="white"/>
<path d="M34.5847 21.0805C35.0624 17.8867 32.6305 16.1698 29.3051 15.0245L30.3839 10.6982L27.75 10.0419L26.6998 14.2544C26.0074 14.0817 25.2963 13.919 24.5896 13.7577L25.6473 9.51744L23.0151 8.86121L21.9357 13.1862C21.3627 13.0557 20.7999 12.9268 20.2539 12.791L20.2569 12.7774L16.6247 11.8704L15.9241 14.6833C15.9241 14.6833 17.8782 15.1312 17.837 15.1587C18.9036 15.4249 19.0965 16.1309 19.0645 16.6905L17.8356 21.6192C17.9091 21.6379 18.0043 21.6649 18.1095 21.7071C18.0216 21.6853 17.9281 21.6615 17.831 21.6382L16.1086 28.5427C15.9783 28.8668 15.6474 29.353 14.9017 29.1684C14.9281 29.2066 12.9874 28.6907 12.9874 28.6907L11.6797 31.7053L15.1073 32.5597C15.7449 32.7196 16.3698 32.8868 16.9852 33.0442L15.8952 37.4202L18.5261 38.0764L19.6054 33.7468C20.3242 33.9419 21.0216 34.1219 21.7045 34.2915L20.6287 38.6006L23.2627 39.2569L24.3526 34.8891C28.8439 35.739 32.2211 35.3963 33.6425 31.3344C34.788 28.064 33.5855 26.1777 31.2226 24.9475C32.9437 24.5507 34.24 23.4189 34.5856 21.0809L34.5848 21.0803L34.5847 21.0805ZM28.5668 29.5182C27.7528 32.7885 22.2459 31.0207 20.4605 30.5774L21.9068 24.7799C23.6922 25.2256 29.4175 26.1075 28.5669 29.5182H28.5668ZM29.3814 21.0332C28.6388 24.0079 24.0554 22.4966 22.5685 22.126L23.8799 16.8681C25.3667 17.2387 30.1549 17.9303 29.3816 21.0332H29.3814Z" fill="#F7931A"/>
</g>
<defs>
<clipPath id="clip0_1738_28687">
<path d="M0 0.5H48V48.5H0V0.5Z" fill="white"/>
</clipPath>
</defs>
</svg>
