<svg width="48" height="49" viewBox="0 0 48 49" fill="none" xmlns="http://www.w3.org/2000/svg">
<g clip-path="url(#clip0_1738_28692)">
<path d="M24 48.5C37.2548 48.5 48 37.7548 48 24.5C48 11.2452 37.2548 0.5 24 0.5C10.7452 0.5 0 11.2452 0 24.5C0 37.7548 10.7452 48.5 24 48.5Z" fill="white"/>
<path d="M31.487 16.4412C30.2809 13.7061 27.5093 13.1214 24.1164 13.6879L23.0261 9.46045L20.4555 10.1244L21.5276 14.3396C20.8514 14.5102 20.157 14.6564 19.4687 14.8513L18.3966 10.6604L15.8261 11.3244L16.9164 15.5518C16.3621 15.7102 11.7266 16.898 11.7266 16.898L12.4332 19.6513C12.4332 19.6513 14.3215 19.1214 14.3032 19.164C15.3509 18.8899 15.8443 19.4137 16.0758 19.9071L19.0728 31.4929C19.1093 31.828 19.0484 32.4006 18.3296 32.5955C18.3722 32.6198 16.4596 33.0767 16.4596 33.0767L16.7398 36.2868C16.7398 36.2868 21.3327 35.1112 21.9357 34.9589L23.0382 39.2351L25.6088 38.5711L24.5063 34.2645C25.2129 34.1 25.9012 33.9295 26.5712 33.7528L27.6677 38.0351L30.2382 37.3711L29.1357 33.1011C33.0951 32.1386 35.891 29.6412 35.3184 25.8219C34.953 23.5193 32.4372 21.631 30.3479 21.4178C31.6332 20.2787 32.2849 18.6158 31.487 16.4412ZM30.2504 26.5224C30.7621 30.3051 25.5052 30.7681 23.7692 31.2249L22.2585 25.566C24.0007 25.1092 29.3854 23.1904 30.2504 26.5224ZM27.0829 18.8168C27.625 22.1792 23.1296 22.5691 21.6799 22.9407L20.3032 17.8056C21.759 17.4462 25.9804 15.7041 27.0829 18.8168Z" fill="#0AC18E"/>
</g>
<defs>
<clipPath id="clip0_1738_28692">
<rect width="48" height="48" fill="white" transform="translate(0 0.5)"/>
</clipPath>
</defs>
</svg>
