<svg width="20" height="20" viewBox="0 0 20 20" fill="none" xmlns="http://www.w3.org/2000/svg">
<path d="M9.99935 1.66699C5.40768 1.66699 1.66602 5.40866 1.66602 10.0003C1.66602 14.592 5.40768 18.3337 9.99935 18.3337C14.591 18.3337 18.3327 14.592 18.3327 10.0003C18.3327 5.40866 14.591 1.66699 9.99935 1.66699ZM13.9827 8.08366L9.25768 12.8087C9.14102 12.9253 8.98268 12.992 8.81602 12.992C8.64935 12.992 8.49102 12.9253 8.37435 12.8087L6.01602 10.4503C5.77435 10.2087 5.77435 9.80866 6.01602 9.56699C6.25768 9.32533 6.65768 9.32533 6.89935 9.56699L8.81602 11.4837L13.0993 7.20033C13.341 6.95866 13.741 6.95866 13.9827 7.20033C14.2243 7.44199 14.2243 7.83366 13.9827 8.08366Z" fill="#1DA1F3"/>
</svg>
