<svg width="48" height="49" viewBox="0 0 48 49" fill="none" xmlns="http://www.w3.org/2000/svg">
<g clip-path="url(#clip0_1738_28695)">
<path fill-rule="evenodd" clip-rule="evenodd" d="M24 0.5C37.2558 0.5 48 11.2442 48 24.5C48 37.7558 37.2558 48.5 24 48.5C10.7442 48.5 0 37.7558 0 24.5C0 11.2442 10.7442 0.5 24 0.5Z" fill="white"/>
<path d="M13.1912 24.5L13.2085 30.8462L18.6008 34.0192V37.7346L10.0527 32.7212V22.6442L13.1912 24.5ZM13.1912 18.1539V21.8519L10.0508 19.9942V16.2962L13.1912 14.4385L16.3469 16.2962L13.1912 18.1539ZM20.8527 16.2962L23.9931 14.4385L27.1489 16.2962L23.9931 18.1539L20.8527 16.2962Z" fill="#F0B90B"/>
<path d="M15.459 29.5308V25.8154L18.5994 27.6731V31.3712L15.459 29.5308ZM20.8513 35.35L23.9917 37.2077L27.1474 35.35V39.0481L23.9917 40.9058L20.8513 39.0481V35.35ZM31.6513 16.2962L34.7917 14.4385L37.9474 16.2962V19.9942L34.7917 21.8519V18.1539L31.6513 16.2962ZM34.7917 30.8462L34.809 24.5L37.9494 22.6423V32.7192L29.4013 37.7327V34.0173L34.7917 30.8462Z" fill="#F0B90B"/>
<path d="M32.5408 29.5308L29.4004 31.3712V27.6731L32.5408 25.8154V29.5308Z" fill="#F0B90B"/>
<path d="M32.5398 19.4692L32.5571 23.1846L27.1494 26.3577V32.7192L24.009 34.5596L20.8686 32.7192V26.3577L15.4609 23.1846V19.4692L18.6148 17.6115L23.9898 20.8L29.3974 17.6115L32.5532 19.4692H32.5398ZM15.459 13.125L23.9917 8.09424L32.5398 13.125L29.3994 14.9827L23.9917 11.7942L18.5994 14.9827L15.459 13.125Z" fill="#F0B90B"/>
</g>
<defs>
<clipPath id="clip0_1738_28695">
<rect width="48" height="48" fill="white" transform="translate(0 0.5)"/>
</clipPath>
</defs>
</svg>
