<svg width="40" height="40" viewBox="0 0 40 40" fill="none" xmlns="http://www.w3.org/2000/svg">
<path d="M24.9505 21.25H23.6671H15.8838V25.9667H18.0671H24.9505C26.5338 25.9667 27.8338 24.9 27.8338 23.6C27.8338 22.3 26.5338 21.25 24.9505 21.25Z" fill="#39393C"/>
<path d="M19.9997 3.33301C10.7997 3.33301 3.33301 10.7997 3.33301 19.9997C3.33301 29.1997 10.7997 36.6663 19.9997 36.6663C29.1997 36.6663 36.6663 29.1997 36.6663 19.9997C36.6663 10.7997 29.1997 3.33301 19.9997 3.33301ZM24.9497 28.4663H22.1997V30.833C22.1997 31.5163 21.633 32.083 20.9497 32.083C20.2663 32.083 19.6997 31.5163 19.6997 30.833V28.4663H18.0663H17.683V30.833C17.683 31.5163 17.1163 32.083 16.433 32.083C15.7497 32.083 15.183 31.5163 15.183 30.833V28.4663H14.633H11.7497C11.0663 28.4663 10.4997 27.8997 10.4997 27.2163C10.4997 26.533 11.0663 25.9663 11.7497 25.9663H13.383V19.9997V14.033H11.7497C11.0663 14.033 10.4997 13.4663 10.4997 12.783C10.4997 12.0997 11.0663 11.533 11.7497 11.533H14.633H15.183V9.16634C15.183 8.48301 15.7497 7.91634 16.433 7.91634C17.1163 7.91634 17.683 8.48301 17.683 9.16634V11.533H18.0663H19.6997V9.16634C19.6997 8.48301 20.2663 7.91634 20.9497 7.91634C21.633 7.91634 22.1997 8.48301 22.1997 9.16634V11.533H23.6663C26.2497 11.533 28.533 13.7997 28.533 16.3997C28.533 17.5163 28.133 18.533 27.4997 19.3663C29.183 20.183 30.333 21.783 30.333 23.633C30.333 26.283 27.9163 28.4663 24.9497 28.4663Z" fill="#39393C"/>
<path d="M26.0338 16.3833C26.0338 15.2833 25.0005 14.0166 23.6671 14.0166H18.0671H15.8838V18.7333H23.6671C24.9671 18.7499 26.0338 17.6833 26.0338 16.3833Z" fill="#39393C"/>
</svg>
