<svg width="48" height="49" viewBox="0 0 48 49" fill="none" xmlns="http://www.w3.org/2000/svg">
<g clip-path="url(#clip0_1738_28753)">
<path d="M24 48.5C37.2548 48.5 48 37.7548 48 24.5C48 11.2452 37.2548 0.5 24 0.5C10.7452 0.5 0 11.2452 0 24.5C0 37.7548 10.7452 48.5 24 48.5Z" fill="#988430"/>
<path d="M24.0008 47.7313C36.831 47.7313 47.232 37.3303 47.232 24.5C47.232 11.6698 36.831 1.2688 24.0008 1.2688C11.1705 1.2688 0.769531 11.6698 0.769531 24.5C0.769531 37.3303 11.1705 47.7313 24.0008 47.7313Z" fill="#7A6A2A"/>
<path d="M23.9996 47.2418C36.5595 47.2418 46.7413 37.06 46.7413 24.5001C46.7413 11.9401 36.5595 1.7583 23.9996 1.7583C11.4396 1.7583 1.25781 11.9401 1.25781 24.5001C1.25781 37.06 11.4396 47.2418 23.9996 47.2418Z" fill="#BA9F33"/>
<path fill-rule="evenodd" clip-rule="evenodd" d="M10.4937 21.9369C10.3577 21.8128 10.2141 21.6884 10.082 21.5642C9.94991 21.44 9.81423 21.3156 9.6783 21.1915L9.27433 20.8075C9.20828 20.7414 9.13839 20.6833 9.07235 20.617C9.0063 20.5589 8.92873 20.4928 8.86268 20.4345C8.32662 19.9258 7.78748 19.4171 7.25884 18.9082C7.80643 19.4092 8.34249 19.9066 8.89007 20.415L9.08028 20.6055C9.14633 20.6713 9.21622 20.7296 9.28227 20.7957L9.68598 21.1684C9.82191 21.2926 9.95401 21.417 10.0899 21.5524C10.2259 21.6879 10.358 21.8125 10.4939 21.9364L10.4937 21.9369ZM3.37916 21.8601C3.37916 21.8601 5.3286 22.0619 6.28015 22.1978C7.16156 22.3222 9.91894 22.7454 9.91894 22.7454L3.37916 21.8601ZM3.37916 21.8601C3.92675 21.9067 4.47433 21.9648 5.02191 22.0232C5.30147 22.0503 5.5695 22.0813 5.83753 22.1085L6.24892 22.1553C6.38486 22.1745 6.51695 22.194 6.65289 22.2134L8.28412 22.4735L9.09948 22.6095C9.36751 22.656 9.63555 22.7067 9.9151 22.7533C9.64707 22.7262 9.36751 22.6873 9.09948 22.6484L8.28412 22.5319L6.65289 22.2912C6.51695 22.2718 6.38486 22.2444 6.24892 22.2252L5.83727 22.1778C5.56924 22.1507 5.28969 22.1118 5.02166 22.0806C4.47407 22.0148 3.92649 21.9446 3.37891 21.8594L3.37916 21.8601ZM9.72489 23.2533C9.72489 23.2533 7.64335 23.7817 6.94038 23.9837C6.24918 24.1739 4.15587 24.8108 4.15587 24.8108L9.72463 23.2535L9.72489 23.2533Z" fill="#CFB66C"/>
<path fill-rule="evenodd" clip-rule="evenodd" d="M9.72503 23.2533C9.26295 23.3892 8.80343 23.5213 8.33469 23.6457L6.94436 24.0185C6.48228 24.1544 6.02276 24.2865 5.56196 24.4224L4.87076 24.6127C4.64164 24.6787 4.40868 24.7368 4.17188 24.8031C4.40074 24.7263 4.63396 24.6477 4.86307 24.5817L5.55427 24.3605C6.01635 24.2166 6.47587 24.0807 6.93667 23.9371C7.40644 23.8206 7.86877 23.6962 8.33853 23.5835C8.785 23.4709 9.25501 23.3585 9.72503 23.2536V23.2533ZM4.44759 26.0923C4.67645 26.0068 7.31735 24.776 7.93098 24.4885C8.23818 24.3446 9.13111 24.0277 9.13111 24.0277L4.44759 26.0923Z" fill="#CFB66C"/>
<path fill-rule="evenodd" clip-rule="evenodd" d="M4.44752 26.0923C4.64925 26.0155 4.83971 25.9216 5.03376 25.8322L5.60848 25.5642L6.76202 25.0089C7.14602 24.8264 7.51927 24.6249 7.9153 24.4534C8.11728 24.3681 8.31927 24.2983 8.52099 24.2322L8.82819 24.1352C8.9329 24.1081 9.03018 24.0768 9.13539 24.0497C8.75139 24.2322 8.34717 24.3876 7.96266 24.566C7.57866 24.7565 7.18595 24.9119 6.78967 25.0826L5.61693 25.599C5.2232 25.7585 4.8392 25.9292 4.44727 26.0923H4.44752ZM4.70352 27.1675C4.70352 27.1675 7.09559 25.7657 7.91888 25.3151C8.34999 25.0745 9.74416 24.383 9.74416 24.383L4.70352 27.1675Z" fill="#CFB66C"/>
<path fill-rule="evenodd" clip-rule="evenodd" d="M4.70312 27.168C5.10684 26.9195 5.51848 26.6671 5.93013 26.4108L6.54453 26.0378C6.7542 25.9136 6.95618 25.7972 7.16994 25.673C7.37961 25.5486 7.58159 25.4244 7.79509 25.3079C7.89673 25.2452 8.00323 25.1907 8.11356 25.1449L8.4397 24.9818C8.87081 24.7721 9.30191 24.5584 9.75631 24.3759C9.34466 24.6362 8.92124 24.8576 8.49807 25.0865C8.28841 25.203 8.07464 25.3079 7.86498 25.4244C7.65532 25.5409 7.45333 25.6653 7.23957 25.778C7.02991 25.9021 6.82792 26.0186 6.61442 26.1312L5.98133 26.4768L4.70364 27.168H4.70312ZM9.72431 24.6902C9.72431 24.6902 8.23695 25.832 7.75541 26.197C7.27388 26.5621 5.8564 27.5874 5.8564 27.5874L9.72431 24.6902Z" fill="#CFB66C"/>
<path fill-rule="evenodd" clip-rule="evenodd" d="M18.2611 33.898L17.5 32.4573L17.9426 30.6553L21.0999 29.436L19.7561 26.6788L20.4202 23.8943L21.6669 21.4009L25.5195 20.7952L28.3503 18.0962L34.4631 18.5583L35.6629 25.0942L33.3523 33.3233L32.0359 37.5837L26.6999 37.7857L24.2223 36.0692L21.3213 34.8573L18.2611 33.898Z" fill="#E2CC85"/>
<path fill-rule="evenodd" clip-rule="evenodd" d="M27.62 33.8515C27.62 33.8515 26.882 34.1894 25.6232 34.1116C25.2589 33.6224 22.7076 33.3932 22.7076 33.3932C22.7076 33.3932 22.3892 33.2962 21.826 33.5292C21.2592 33.7596 20.7231 33.7312 20.2221 33.8553C19.7211 33.9795 19.2237 33.3272 18.8397 33.1912C18.4557 33.0476 17.9465 32.702 17.9465 32.702L16.8713 32.5971L14.7122 31.6844L11.2821 28.2671L10.35 29.7263L10.0625 31.5321L11.0996 33.672L13.8917 36.2156L19.3364 37.598L22.5635 36.6472L26.6062 34.9384L27.62 33.8512V33.8515Z" fill="#F1D789"/>
<path fill-rule="evenodd" clip-rule="evenodd" d="M8.27632 21.7738L8.96753 19.6808L9.79108 18.3291L12.4432 18.1077L11.6471 20.4301L9.42986 24.3758L10.3502 27.8981L8.71921 28.7135L8.21796 27.9447L7.81425 26.1817L7.78711 24.201L8.27632 21.7738Z" fill="#F4ECB4"/>
<path fill-rule="evenodd" clip-rule="evenodd" d="M11.2503 33.7079L10.7416 32.9972C10.7416 32.9972 10.6056 32.6593 10.6835 32.3641C10.7603 32.0651 10.7493 32.0457 10.7106 31.933C10.672 31.8204 10.3456 31.432 10.365 31.0979C10.3842 30.76 10.3379 30.6474 10.5862 30.3796C10.8463 30.1195 10.7687 29.6689 10.7687 29.6689L11.1066 29.8786L11.1834 29.7621C11.1834 29.7621 11.3076 29.8592 11.3076 30.0107C11.3347 29.801 11.2221 28.83 11.4784 28.6089C11.7346 28.3877 12.189 29.6457 12.189 29.6457L11.9095 27.8204L11.1909 25.9488L9.91317 24.24L9.83637 22.3563V22.1932C9.83637 22.1932 9.24987 23.0944 9.0868 23.806C8.97032 24.2953 9.24987 24.8894 9.19176 25.5924C9.14491 26.2915 9.0868 26.237 9.25755 26.514C9.4283 26.791 9.84405 27.3606 9.68097 27.7722C9.53736 28.1258 9.04789 27.8772 9.04789 27.8772C9.04789 27.8772 8.95086 28.1644 8.81877 28.2694C8.77217 28.0986 8.72174 27.9898 8.62856 27.8854C8.62062 27.9514 8.60142 28.0408 8.60142 28.0408C8.60142 28.0408 8.51592 27.7728 8.43041 27.4348C8.31419 26.9845 8.18977 26.3904 8.07713 26.0719C8.03054 26.2544 7.91406 26.8097 7.91406 26.8097L7.98011 27.6642L8.29857 28.8369L8.60577 29.6049L8.90478 30.5447L9.16462 31.176L9.37429 31.6576L9.55681 32.7412L10.4382 33.673L10.9082 33.883L11.2497 33.7081L11.2503 33.7079Z" fill="#F3E19D"/>
<path fill-rule="evenodd" clip-rule="evenodd" d="M8.7385 20.0651C8.7385 20.0651 8.10542 21.1403 7.92314 22.2242C7.74087 23.3081 7.57754 24.4534 7.69274 25.929C7.80922 27.4166 8.03066 28.329 8.20935 28.9816C8.51655 30.0652 9.3122 31.572 9.3122 31.572L9.33934 31.5136C9.2056 31.2601 9.09886 30.9933 9.02087 30.7175C8.91591 30.3058 8.877 29.8166 8.77998 29.5952C8.69447 29.374 8.55086 29.1835 8.48097 28.9117C8.41492 28.6516 8.40417 28.2399 8.20141 27.9332C8.11591 27.8088 8.01095 27.4827 7.97998 27.1565C7.94106 26.6671 7.99943 26.1195 7.95284 25.6692C7.86734 24.9196 7.80922 24.4109 7.88679 24.0185C7.96436 23.626 8.36858 22.5119 8.61716 21.6264C8.78023 21.0594 8.68295 20.5817 8.98196 20.0884C9.28097 19.5991 9.46375 19.168 9.52954 18.869C9.60634 18.5972 8.73748 20.0651 8.73748 20.0651H8.7385Z" fill="#F2E8B0"/>
<path fill-rule="evenodd" clip-rule="evenodd" d="M11.739 19.6339C11.739 19.6339 11.4128 19.7312 11.2574 19.9019C11.102 20.065 11.036 20.201 10.8263 20.4767C10.6166 20.7524 10.6049 20.9777 10.4339 21.3233C10.2631 21.6612 9.88628 22.1698 9.83969 22.3524C9.79309 22.5349 9.71553 23.3892 9.6185 23.7931C9.533 24.1971 9.71553 24.6943 9.71553 24.6943L9.93671 24.6474C9.93671 24.6474 9.93671 24.9349 10.1582 25.1292C10.3793 25.3194 10.4182 24.4843 10.4182 24.4843L11.2454 21.6922L12.4918 20.8456L12.6278 20.162L11.7384 19.6339H11.739Z" fill="#F5EEC0"/>
<path fill-rule="evenodd" clip-rule="evenodd" d="M12.3453 20.9001C12.3453 20.9001 11.7588 20.9388 11.4716 21.1487C11.3551 21.234 11.3085 21.3039 11.1843 21.4088C10.9552 21.599 10.722 21.7739 10.6096 22.0232C10.4852 22.2715 10.3493 22.6484 10.2561 23.359C10.2172 23.658 10.2172 23.9337 10.19 24.1746C10.1511 24.5008 10.093 24.7609 10.124 24.9426C10.1629 25.3154 10.5474 25.5097 10.5848 25.9328L11.381 25.5291L12.1305 22.5736L13.7228 21.5752L12.8217 20.5656L12.3443 20.8984L12.3453 20.9001Z" fill="#E6DB9D"/>
<path fill-rule="evenodd" clip-rule="evenodd" d="M8.14479 40.8018C8.14811 40.7726 8.15144 40.7434 8.15477 40.7135C8.271 39.7151 8.29071 38.9583 8.37595 38.4845C8.50011 37.8127 8.58562 37.5629 8.56616 37.3115C8.53903 36.9078 8.50805 36.6126 8.54696 36.3018C8.60508 35.8902 9.00904 35.4009 8.99752 35.063C8.98959 34.795 8.85365 34.6204 8.73717 34.4573C8.62069 34.2943 8.52751 34.1583 8.52751 34.1583C8.52751 34.1583 9.32367 33.6107 9.31599 31.4048C9.33225 31.4094 9.34789 31.4159 9.36258 31.4242L9.75477 32.5386L10.0228 32.8648L11.0519 34.7832L12.3762 36.0689L14.3333 37.3852L15.5606 38.7208L15.6848 42.282L14.0809 44.3635L13.8183 44.8392C11.7315 43.7916 9.818 42.4298 8.14453 40.8015L8.14479 40.8018Z" fill="#E5CB7A"/>
<path fill-rule="evenodd" clip-rule="evenodd" d="M13.0449 44.2087C13.0449 44.2087 13.0721 43.7661 13.4371 43.4786C13.4955 43.5756 13.5341 43.6691 13.5226 43.7387C13.5887 43.6225 14.0507 42.8767 15.0955 42.6824C16.1402 42.4922 16.3926 41.7311 16.3926 41.7311L18.6098 39.7157L21.1458 37.3817L24.2293 36.2981L25.6703 35.9445C25.6703 35.9445 25.6975 36.0495 25.6432 36.2824C25.911 36.2632 26.5051 36.1273 27.1226 35.9097C27.3712 35.8127 27.6044 35.7738 27.7286 35.902C27.9111 36.0728 27.9382 36.4767 27.9498 36.7174C28.2488 36.6513 28.5944 36.3641 28.8714 36.3912C29.3142 36.4378 29.7064 36.9583 30.157 36.9583C30.7512 36.9583 31.0189 36.5932 31.4347 36.3057C31.6833 36.135 32.0404 35.9217 32.2424 35.7776C32.7239 35.4241 37.8191 33.8668 37.8191 33.8668L39.6054 33.9833L39.8929 35.9018L39.7393 40.9168C39.7204 40.935 39.7014 40.9539 39.6822 40.9721L31.5599 45.2143L20.301 46.9402C17.779 46.5282 15.3452 45.691 13.1033 44.4645L13.0457 44.2085L13.0449 44.2087Z" fill="#D8C173"/>
<path fill-rule="evenodd" clip-rule="evenodd" d="M8.82812 41.4398C8.98812 41.1052 9.132 40.8254 9.15734 40.7253C9.17731 40.9271 9.21392 41.3697 9.28764 41.8402C9.13285 41.7086 8.97968 41.5751 8.82812 41.4396V41.4398Z" fill="#F1D789"/>
<path fill-rule="evenodd" clip-rule="evenodd" d="M17.0526 46.1593L18.5087 45.7543L18.6329 45.7933C18.6329 45.7933 18.6989 45.8322 18.6989 45.964C18.8814 45.8593 19.0368 45.8785 19.1495 45.8089C19.2076 45.933 19.2657 46.3447 19.5222 46.3951C19.79 46.4535 20.0775 46.2786 20.3688 46.0574C20.656 45.8283 20.9832 45.5408 21.2308 45.4244C21.3216 45.5914 21.402 45.7638 21.4716 45.9407C21.7978 45.6806 22.3648 44.6244 23.1725 44.6436C23.406 44.0919 23.796 43.6207 24.2943 43.2883C25.0439 42.7796 25.5136 42.7407 26.1001 42.7873C26.3331 42.4847 26.6201 42.228 26.9467 42.0301C27.0437 42.069 27.3118 42.232 27.6459 42.0766C27.9838 41.9215 28.3642 41.3194 28.8652 41.2418C29.1352 41.2047 29.4097 41.2623 29.6419 41.4049C29.6419 41.4049 31.1011 39.9562 32.1079 39.4747C32.069 39.3582 31.9915 38.9194 33.1719 37.9484C33.2379 38.0068 33.1913 38.1698 33.2379 38.1788C33.2571 38.1788 33.5451 38.0546 33.9097 37.7748C34.3602 37.4372 34.8999 37.0836 35.226 36.9866C35.8404 36.8041 36.4922 37.1768 36.4922 37.1768C36.5476 37.1379 36.6094 37.109 36.6747 37.0913C36.8299 37.0642 36.9425 37.0447 37.028 37.0145C37.0203 37.2165 37.133 37.5621 37.028 37.8611C37.1496 37.9295 37.2784 37.9842 37.412 38.0242C37.3462 38.1678 37.2023 38.5328 36.9617 38.7077C37.1634 38.8047 37.1906 38.9174 37.478 39.0149C37.3616 39.178 37.1708 39.4578 37.0859 39.6293C37.0004 39.8118 36.6934 40.5691 36.5575 40.8563C36.4139 41.1438 36.2198 41.6719 36.1264 41.7779C36.0329 41.8839 35.6953 42.3332 35.4352 42.5543C35.6656 42.4688 36.6082 42.1816 37.008 42.0728C36.889 42.2474 36.2856 43.1426 35.7055 44.0036C32.928 45.6683 29.8276 46.722 26.611 47.0944C23.3943 47.4668 20.1351 47.1493 17.0508 46.1632L17.0526 46.1593Z" fill="#E0CD81"/>
<path fill-rule="evenodd" clip-rule="evenodd" d="M12.4422 20.7952C12.4422 20.7952 12.1045 20.7952 12.0385 20.8418C11.9724 20.8884 12.3764 20.9856 12.5006 21.0322C12.6247 21.0788 12.8928 21.2923 12.9627 21.4633C13.0287 21.6264 15.3898 22.5777 15.3898 22.5777L17.0597 22.4922L17.6354 21.6968L16.5403 20.7376L17.3083 18.4735L16.2909 18.6366L13.8443 20.0958L12.6171 20.5658L12.4422 20.7952Z" fill="#DFC57C"/>
<path fill-rule="evenodd" clip-rule="evenodd" d="M16.1086 21.5447C16.1328 21.5838 16.1668 21.6159 16.2072 21.6377C16.2477 21.6595 16.2931 21.6702 16.339 21.6689C16.6846 21.6689 17.0028 21.7544 17.1349 21.929C17.3564 22.2088 17.97 23.102 17.97 23.102L19.4379 23.6301L19.5326 21.9016L17.9288 20.7872L16.1035 21.459V21.5445H16.1076L16.1086 21.5447Z" fill="#E5CC7C"/>
<path fill-rule="evenodd" clip-rule="evenodd" d="M15.8212 22.1855C15.8212 22.1855 16.089 22.2049 16.4269 22.0805C16.7648 21.9561 17.3201 21.6883 17.561 21.7933C17.8987 21.9369 17.8288 22.3875 18.1941 22.7917C18.4153 23.0403 18.8192 23.0326 19.0483 23.3006C19.2775 23.5686 20.0657 23.4442 20.0657 23.4442L20.3647 25.057L19.1648 26.5951L18.7724 28.5056H17.1499L15.6676 27.9176L14.9375 26.1512L15.3026 24.3648L15.8212 22.1855Z" fill="#D2C281"/>
<path fill-rule="evenodd" clip-rule="evenodd" d="M18.9585 22.2631C18.9988 22.2755 19.0406 22.282 19.0827 22.2825C19.0361 22.3215 18.9388 22.4067 18.9777 22.6281C19.0166 22.8496 19.1408 23.1291 19.0361 23.2999C19.1197 23.3913 19.182 23.5 19.2186 23.6184C19.2847 23.8088 19.3041 23.9834 19.735 24.0108C19.6728 24.0491 19.6154 24.0947 19.5642 24.1467C19.5642 24.1467 19.8632 24.4068 20.0148 24.6475C20.1699 24.6408 20.5816 24.5128 20.5816 24.5128L20.6671 24.5712L20.8496 24.4944C20.8496 24.4944 20.6788 24.4283 20.803 24.0129C20.9195 23.6478 21.0244 23.6673 21.0334 23.6401C21.0424 23.613 21.1189 23.2285 21.1189 23.0731C21.177 22.8713 21.2236 22.2577 21.2236 22.2577L21.0994 20.9025L20.4006 20.479L19.8322 19.9304L19.2962 20.9401L18.9432 21.2921L18.916 22.1658L18.9585 22.2631Z" fill="#E2C270"/>
<path fill-rule="evenodd" clip-rule="evenodd" d="M20.6406 21.1292C20.6406 21.1292 20.7648 21.4825 20.8116 21.7544C20.8281 21.7015 20.8373 21.6466 20.8388 21.5913C20.8388 21.5913 20.9358 22.1273 20.955 22.3488C20.9939 22.3408 21.0318 22.3293 21.0405 22.368C21.0492 22.4066 21.1378 22.838 21.1173 23.0786C21.279 22.8118 21.5028 22.5881 21.7696 22.4264C21.925 22.3291 22.1075 22.2244 22.298 22.2164C22.597 22.2088 22.8143 22.4069 23.1717 22.4069C24.0336 22.4069 24.8144 21.7738 25.3892 21.5798C25.8123 21.4359 26.1774 21.3312 26.4336 21.098C26.5581 20.9933 26.7795 20.7603 26.9812 20.4144C27.2493 19.9536 27.5288 19.5525 27.8086 19.5021C27.682 19.5253 27.5532 19.5344 27.4246 19.5292C27.4246 19.5292 27.5101 19.4437 27.655 19.3272C27.7999 19.2107 27.9735 19.0671 28.2218 19.0671C28.6647 19.0671 28.8859 19.1329 29.1344 19.1329C29.383 19.1252 29.5266 19.0671 29.5266 19.0671C29.5266 19.0671 29.787 19.2496 30.3732 19.2496C30.9597 19.2573 31.3519 19.3078 31.6589 19.3352C31.9658 19.3625 32.9947 19.2496 33.2898 19.2584C33.4823 19.2658 33.6712 19.312 33.8454 19.3943L32.8938 16.6295L29.4757 13.642L27.4408 15.0827L24.3104 18.2128L21.2814 19.3352L20.6483 20.0458V21.1292H20.6406Z" fill="#CCB360"/>
<path fill-rule="evenodd" clip-rule="evenodd" d="M27.438 19.5446C27.438 19.5446 27.5235 19.4594 27.6669 19.3429C27.8102 19.2264 27.9856 19.0825 28.2339 19.0825C28.6765 19.0825 28.898 19.1486 29.1465 19.1486C29.3951 19.1409 29.5387 19.0825 29.5387 19.0825C29.5387 19.0825 29.7993 19.2648 30.3853 19.2648C30.9718 19.2725 31.364 19.3229 31.671 19.3501C31.9779 19.3772 33.0068 19.2648 33.3019 19.2733C33.4943 19.2805 33.6832 19.3267 33.8572 19.4092L33.4261 18.1625L32.9254 17.2112L31.4961 15.646C31.4961 15.646 29.7809 14.6363 29.7678 14.6286C29.7602 14.621 29.1737 14.4656 29.1737 14.4656L27.6203 15.4054L26.2107 19.0521L26.1836 19.8201L27.096 20.2512C27.3251 19.8672 27.5778 19.56 27.8146 19.5211C27.6008 19.5444 27.4377 19.5444 27.4377 19.5444L27.438 19.5446Z" fill="#D5B457"/>
<path fill-rule="evenodd" clip-rule="evenodd" d="M27.4169 19.8049C27.281 19.8126 27.1686 19.7855 27.1374 19.6884C27.0209 19.3623 26.9277 19.3157 26.8302 19.3157C26.7327 19.3157 26.6011 19.5254 26.523 19.5446C26.4449 19.5638 26.3522 19.3039 26.3522 19.3039L26.2667 19.265C26.2667 19.265 25.7657 19.5912 25.4125 19.9757C25.0592 20.3602 24.4804 21.0127 24.2203 21.129C23.9602 21.2452 23.0667 21.2843 22.7611 21.3504C22.4554 21.4164 22.1165 21.6379 22.0699 21.6883C22.0233 21.7387 22.2061 21.793 22.2332 21.8434C22.2603 21.89 21.9339 21.8706 21.9068 21.9202C21.8876 21.9592 21.9836 22.1803 22.0312 22.293C22.1145 22.2516 22.206 22.229 22.299 22.2269C22.598 22.2193 22.8156 22.4174 23.1727 22.4174C24.0349 22.4174 24.8155 21.7843 25.3902 21.59C25.8136 21.4464 26.1787 21.3414 26.4349 21.1085C26.5591 21.0038 26.7805 20.7706 26.9825 20.425C27.13 20.1882 27.2738 19.9667 27.4177 19.8036L27.4169 19.8049Z" fill="#D2B257"/>
<path fill-rule="evenodd" clip-rule="evenodd" d="M15.0531 39.0244C15.0531 39.0244 14.9763 38.7369 14.2646 37.9953C14.0626 37.7856 13.9384 37.6113 13.8025 37.4866C13.4646 37.1679 13.2664 37.0826 13.0258 36.9001C12.4977 36.5079 11.9229 36.5079 11.4803 36.0264C11.0377 35.5448 10.5219 34.6248 10.1635 33.6845C9.81017 32.7447 9.71289 32.4457 9.71289 32.4185C9.71289 32.3914 9.81017 32.2089 9.93433 32.236C10.0585 32.2632 10.0585 32.5038 10.0897 32.5622C10.1516 32.6574 10.2217 32.747 10.2994 32.8299C10.4819 33.0399 10.742 33.2907 10.8741 33.665C10.847 33.3465 10.7382 32.9933 10.7382 32.9933C10.7382 32.9933 11.4217 33.4244 12.0041 33.8747C12.5906 34.3252 12.8312 34.4806 13.0025 34.7679C13.1738 35.0551 13.5772 35.8126 13.7705 36.034C13.9638 36.2555 16.6121 37.0903 16.6121 37.0903L17.8719 38.0296L18.4973 39.4004L18.0078 40.1684L17.068 40.3704L15.5418 39.6869L15.0531 39.0241V39.0244Z" fill="#D2B159"/>
<path fill-rule="evenodd" clip-rule="evenodd" d="M11.6621 34.3019C11.6621 34.3019 11.9806 34.8106 12.7573 35.2921C13.4564 35.7156 14.5631 36.1001 15.5497 36.3292C16.1165 36.4651 16.6835 36.5698 17.1922 36.5778C18.5631 36.597 19.5067 36.205 20.6759 36.0768C21.309 36.0107 22.0857 35.9603 22.8933 35.7696C23.9301 35.521 24.5438 35.2412 25.3788 34.848C25.9845 34.5684 26.5401 34.3588 26.9904 34.0907C27.6235 33.718 28.0855 33.3025 28.6216 33.1783C28.5555 33.3609 28.4857 33.687 27.9575 34.0249C28.2371 34.017 28.6216 33.9978 28.6216 33.9978C28.6216 33.9978 28.2489 34.219 27.5925 34.7161C27.1885 35.0233 26.6527 35.5433 26.1051 35.8889C25.7516 36.1103 25.3671 36.2729 25.1147 36.4055C24.5003 36.7434 24.2524 36.9142 23.8487 37.3271C23.9923 37.3194 24.0041 37.3271 24.0041 37.3271C24.0041 37.3271 23.4952 37.3931 23.1304 37.5872C23.0536 37.5872 22.9205 37.56 22.6875 37.6261C22.505 37.6842 22.2641 37.8166 22.0158 37.8862C21.6622 37.9911 21.546 37.9446 21.546 37.9446L21.6041 38.061C21.6041 38.061 21.1433 38.0531 20.9897 38.0687C21.0169 38.0764 21.0092 38.0882 21.0092 38.0882C20.9822 38.0927 20.9562 38.1019 20.9324 38.1153C20.8585 38.1632 20.7772 38.1986 20.6917 38.22C20.6451 38.2277 20.6062 38.2277 20.5479 38.2395C20.5673 38.2861 20.7189 38.5467 20.7888 38.7003C20.7307 38.7392 19.8567 39.3994 19.8567 39.3994C19.8838 39.4421 19.9059 39.4877 19.9227 39.5353C19.9499 39.6206 19.9616 39.745 19.9888 39.8031C20.0546 39.9196 20.0935 39.939 20.0935 39.939C20.0935 39.939 19.9888 39.9585 19.806 40.0051C19.6508 40.044 19.4604 40.1098 19.1916 40.1487C19.1091 40.1594 19.0261 40.1659 18.943 40.1682C18.9819 40.2537 19.1527 40.5798 18.838 40.9564C18.5234 41.333 18.4264 41.3878 18.3294 41.6284C18.2805 41.5915 18.2285 41.5589 18.174 41.5311C18.0693 41.4845 17.9254 41.4149 17.875 41.3214C17.8456 41.4459 17.8066 41.568 17.7585 41.6865C17.6615 41.9466 17.5179 42.2031 17.4907 42.3972C17.3858 42.2807 17.1917 42.0516 16.9237 42.0982C16.6556 42.1447 16.4421 42.5098 16.3955 42.6148C16.3955 42.5487 16.349 42.4983 16.3374 42.5758C16.3295 42.6614 16.182 43.5543 15.3587 44.2767C15.3511 44.0942 15.3511 43.6902 15.3316 43.5584C15.2548 43.6352 15.1609 43.7486 14.6015 43.9895C14.0539 44.2301 14.1407 44.471 14.1407 44.471C14.1407 44.471 14.0941 44.087 14.3893 43.6825C14.6883 43.2788 14.8708 43.0884 14.8708 43.0574C14.866 43.0258 14.8525 42.9962 14.8319 42.9719C14.793 42.933 14.7154 42.8864 14.7154 42.8554C14.762 42.8362 15.2241 42.6148 15.197 42.1563C15.1698 41.7449 14.9952 41.5311 14.8708 41.3798C14.8516 41.3604 15.0536 41.2167 15.0262 41.1702C15.0067 41.143 14.7584 40.9602 14.7272 40.863C14.7345 40.8049 14.7476 40.7477 14.7661 40.6922C14.7932 40.6067 14.8127 40.5483 14.805 40.4902C14.7856 40.3932 14.6806 40.1252 14.6496 40.098C14.6768 40.1057 14.8708 40.098 14.8708 40.098C14.8708 40.098 14.7157 39.8495 14.6883 39.733C14.6609 39.6165 14.6028 39.3095 14.5718 39.2514C14.6379 39.2591 14.8009 39.2706 14.8009 39.2514C14.8089 39.1931 14.6573 39.096 14.7241 39.021C14.7707 39.0287 14.8601 39.0676 14.9453 39.1764C14.8987 39.052 14.8211 38.8114 14.6578 38.7143C14.7346 38.6872 14.9957 38.6171 15.2249 38.753C15.454 38.8889 15.5321 39.0791 15.5321 39.0791C15.5321 39.0791 15.668 39.1841 15.8779 39.3395C16.1186 39.5297 16.4252 39.8003 16.9147 39.9918C17.0197 40.0502 17.2875 40.0502 17.4818 40.0112C17.5664 39.9911 17.6475 39.9584 17.7224 39.9142C17.7495 39.8983 17.7781 39.8852 17.8079 39.8753C17.7662 39.7915 17.7181 39.711 17.6643 39.6344C17.7303 39.6344 17.8079 39.6423 17.8079 39.6423C17.8079 39.6423 17.8545 39.5374 17.6448 39.3351C17.6914 39.2886 17.7498 39.2583 17.7498 39.1798C17.6837 39.1721 17.5673 39.075 17.5401 39.0361C17.5788 39.009 17.6371 38.9197 17.7032 38.8925C17.6448 38.8459 17.5012 38.6516 17.4352 38.6324C17.4983 38.609 17.5593 38.5804 17.6177 38.5469C17.6177 38.5469 17.2915 38.4614 17.1866 38.3915C17.0816 38.3147 16.9265 38.1819 16.8333 38.143C16.736 38.104 16.5653 38.0848 16.4954 38.007C16.5612 38.0265 16.6661 38.007 16.744 38.007C16.8021 38.007 16.8295 38.0147 16.8487 38.0147C16.841 37.9876 16.841 37.9292 16.9925 37.91C17.0654 37.899 17.1362 37.8767 17.2022 37.8439C17.2022 37.8439 17.0583 37.8363 16.895 37.6809C16.7317 37.5255 16.596 37.4013 16.5028 37.3819C16.4058 37.3624 16.2233 37.4479 16.1106 37.44C15.9552 37.4208 15.8892 37.343 15.8892 37.343C15.8892 37.343 15.3728 37.3895 14.2272 36.6907C13.2368 36.0847 12.8057 35.5489 12.8057 35.5489C12.713 35.5153 12.6234 35.4736 12.5379 35.4245C12.1651 35.2304 11.6485 34.8265 11.6642 34.2981L11.6621 34.3019Z" fill="#C2A44D"/>
<path fill-rule="evenodd" clip-rule="evenodd" d="M25.9485 10.9932C26.0383 11.0224 26.1182 11.0762 26.1789 11.1486C26.3614 11.3582 26.4779 11.7543 26.0624 12.1777C26.2255 12.2358 26.2928 12.2545 26.4352 12.2358C26.2915 12.4068 25.9654 12.7719 25.9459 13.0903C25.9265 13.3504 26.0896 13.4283 26.0896 13.4283C26.0896 13.4283 25.841 13.7155 25.8295 14.1963C25.9469 14.0639 26.0753 13.9418 26.2135 13.8312C26.501 13.6021 26.897 13.342 27.165 13.1789C27.1614 13.2473 27.1706 13.3157 27.1922 13.3806C27.1922 13.3806 27.6929 12.969 28.1138 13.1518C28.304 13.2373 28.2185 13.5051 28.2185 13.5051C28.2185 13.5051 28.4788 13.408 28.6613 13.5906C28.8439 13.7731 29.1019 14.2439 29.2343 14.4264C29.2924 14.5119 29.4439 14.675 29.5991 14.9274C29.811 15.2808 29.988 15.654 30.1274 16.0418C30.1351 15.8398 30.1856 15.5254 30.7605 15.7233C31.3353 15.9253 31.9875 16.3487 32.5351 17.1825C33.0827 18.0163 33.2184 18.9576 33.4941 19.316C33.7737 19.6616 34.0611 20.2363 34.0806 20.4772C34.1001 20.7181 33.9951 21.4946 34.5698 23.5956C34.7329 22.9433 34.9815 21.4946 34.9815 21.4946L35.1174 20.2169L35.2728 16.2635L31.1445 12.8338L27.9174 10.4919L25.8164 10.6939L25.9482 10.9929L25.9485 10.9932Z" fill="#CAA13E"/>
<path fill-rule="evenodd" clip-rule="evenodd" d="M33.6201 16.8766C33.6201 16.8766 33.5617 16.4926 32.591 15.8398C31.6199 15.1952 30.8627 15.1952 30.1638 14.6476C29.6278 14.2165 29.0686 13.226 28.7046 12.8999C28.3511 12.5776 28.293 11.6455 28.293 11.6455L29.4852 10.6471L31.2582 8.08427L32.7571 6.43384L33.4754 7.43224L34.4738 8.60497L35.0291 10.9584L35.2311 14.4031L33.6183 16.8768L33.6201 16.8766Z" fill="#B59544"/>
<path fill-rule="evenodd" clip-rule="evenodd" d="M34.8191 21.0057C34.8485 20.4833 34.784 19.9598 34.6286 19.4602C34.3726 18.664 33.8133 17.2504 33.5534 16.721C33.4485 16.1345 33.5263 16.0879 33.6389 16.0219C33.7516 15.9558 34.175 15.7147 34.4069 14.8686C34.6389 14.0225 35.3585 13.9948 35.3585 13.9948L35.8011 13.6687L36.4731 15.3501L37.0593 16.8687L37.2419 18.0299L37.3778 19.0201L37.0593 21.1134L35.4867 22.5347L34.8188 21.0057H34.8191Z" fill="#C89D3A"/>
<path fill-rule="evenodd" clip-rule="evenodd" d="M12.873 44.3371V44.2941C12.9057 44.2737 12.9346 44.2477 12.9583 44.2173C12.9854 44.1784 13.0051 44.1318 13.0243 44.1203C13.0633 44.1009 13.2458 44.0435 13.3428 44.0619C13.4398 44.0804 13.6963 44.1861 13.8323 44.1784C14.1118 44.1707 14.438 43.957 14.9546 44.0543C15.7313 44.1979 15.9138 44.726 16.3644 45.025C16.6716 45.2349 16.9895 45.1415 17.0361 45.1415H17.1408C17.1603 45.1415 17.3039 44.9784 17.3817 44.9864C17.5371 44.994 17.5525 45.1223 17.6495 45.13C17.8786 45.1571 18.3215 45.0135 18.5429 45.0719C18.6086 45.0924 18.6683 45.1286 18.717 45.1772C18.7657 45.2258 18.8019 45.2855 18.8225 45.3512C18.8691 45.4948 18.8302 45.6773 18.7175 45.7823C18.4769 46.0034 18.2478 46.2134 18.2012 46.3967C18.2604 46.4418 18.3173 46.49 18.3717 46.541C16.4502 46.0515 14.6014 45.3113 12.873 44.3394V44.3371Z" fill="#CEB052"/>
<path fill-rule="evenodd" clip-rule="evenodd" d="M33.5527 36.5779C33.5527 36.5779 34.1584 35.7702 34.3684 35.37C34.578 34.9576 33.7043 29.7352 33.7043 29.7352L35.4597 23.9839L35.4128 22.1121C35.4128 22.1121 35.4983 20.3838 35.7003 19.6342C35.9412 20.0653 36.6908 20.5858 36.8539 20.8615C36.9307 20.3331 37.1915 19.2187 37.1529 18.0304C37.2965 18.2516 37.6421 20.477 37.6421 20.477L37.9877 21.9759L38.4382 23.5682L38.9392 25.2499L39.2382 26.4111L39.409 26.6906L39.5529 27.1798L39.6888 27.7082L40.081 28.947L40.3114 29.9643L40.4939 31.8091C40.5336 31.9503 40.5622 32.0945 40.5794 32.2402C40.5871 32.4422 40.5523 32.5587 40.5523 32.5937C40.5523 32.6288 40.6183 33.0363 40.5912 33.3433C40.5523 33.6505 40.5523 33.8909 40.3114 34.1113C40.0705 34.3317 39.9192 35.6491 39.9192 35.6491L39.4881 35.3619C39.4881 35.3619 39.5736 34.9694 39.3716 34.6123C39.1696 34.2552 38.7774 34.1812 38.556 34.2395C38.3348 34.2861 37.8922 34.3558 37.7483 34.4802C37.6124 34.6043 37.2786 34.9889 36.9716 35.1637C36.5876 35.3941 35.9619 35.4123 35.6281 35.4899C35.2902 35.5667 34.9175 35.7971 34.525 36.0646C34.2173 36.2638 33.8924 36.4351 33.5543 36.5766L33.5527 36.5779Z" fill="#CCA847"/>
<path fill-rule="evenodd" clip-rule="evenodd" d="M33.5527 45.0633C33.5527 45.0633 33.5783 45.0799 33.6277 45.107C36.3868 43.8144 38.8589 41.9821 40.8981 39.7182C40.8759 38.9323 40.8469 38.1267 40.8152 37.8282C40.7494 37.1951 40.796 36.5505 40.7765 36.1778C40.7571 35.805 40.5474 34.2864 40.4504 33.8942C40.3454 33.502 40.1432 33.3077 40.1125 33.3077C40.0853 33.3157 39.922 34.0458 39.922 34.2293C39.922 34.4129 39.8831 34.8547 39.8831 34.9674C39.856 34.9595 39.8444 34.8906 39.8444 34.8624C39.8055 34.9595 39.7589 35.1305 39.7395 35.1499C39.72 35.1694 39.7666 34.9868 39.7395 34.9479C39.7123 34.909 39.6627 34.9285 39.6734 34.8314C39.678 34.7739 39.6871 34.7168 39.7006 34.6607C39.7006 34.6607 39.5841 34.8315 39.4988 35.2664C39.4133 35.6975 39.4133 35.7093 39.3824 35.7479C39.3552 35.7948 39.1998 35.9499 39.1919 36.0083C39.1842 36.113 39.3358 36.2179 39.3473 36.2761C39.355 36.3733 39.2114 36.8236 39.1648 37.0441C39.1182 37.2645 39.1376 37.6963 39.088 37.9178C39.0491 38.1198 39.0112 38.2363 38.8783 38.3215C38.9753 38.341 39.0685 38.3681 39.0685 38.3681C39.0685 38.3681 39.2044 38.9428 38.8588 39.4323C38.7347 39.603 38.7037 39.6809 38.5716 39.8362C38.3113 40.1235 38.1093 40.4506 38.0898 40.6634C38.0764 40.6006 38.0673 40.537 38.0627 40.4729C38.0627 40.4729 37.659 40.9429 37.488 41.211C37.2668 41.5566 36.9598 41.5371 36.8736 41.6226C36.7873 41.7081 36.7686 41.8633 36.7968 41.9877C36.72 42.0069 36.5756 42.0343 36.4783 42.3333C36.4317 42.4884 36.3152 42.6405 36.1327 42.7449C35.9502 42.8494 35.7287 42.8809 35.6161 42.908C35.7131 42.9351 35.752 42.9351 35.7986 42.9661C35.7405 43.0631 35.4725 43.2147 35.1735 43.409C34.8745 43.5915 34.7306 43.8593 34.6569 44.0341C34.5801 44.1972 34.4667 44.3022 34.2841 44.3216C34.3609 44.3682 34.4746 44.4768 34.5327 44.5118C34.4472 44.5313 34.3023 44.5313 34.0435 44.7527C33.7716 44.978 33.6784 45.0441 33.554 45.0635L33.5527 45.0633Z" fill="#C39D3C"/>
<path fill-rule="evenodd" clip-rule="evenodd" d="M28.1497 46.8628C28.2984 46.7586 28.4595 46.6732 28.6292 46.6086C29.2349 46.368 29.8757 46.3214 30.1281 46.2438C30.369 46.167 30.5592 46.061 30.8582 46.0029C30.8503 46.071 30.8436 46.135 30.8364 46.1954C29.9549 46.4726 29.0572 46.6955 28.1484 46.8628H28.1497Z" fill="#D2BA6B"/>
<path fill-rule="evenodd" clip-rule="evenodd" d="M39.3213 30.9312C39.3213 30.9312 39.1972 31.603 38.9757 32.0264C38.7543 32.4498 38.5149 33.0361 38.5149 33.0361C38.5164 32.904 38.532 32.7724 38.5615 32.6436C38.282 32.8067 37.6023 33.1991 37.4095 33.3737C37.227 33.5368 36.92 33.8243 36.8425 33.9602C37.025 33.4244 37.2152 32.9429 37.2464 32.7214C36.9669 32.9234 35.6618 33.9991 34.9824 34.7098L32.8658 36.4224C32.6215 36.5542 32.37 36.672 32.1124 36.7752C31.7476 36.9303 31.3165 37.0624 30.998 37.1869C31.0835 36.9577 31.2192 36.7555 31.4096 36.5614C31.6116 36.3712 32.2173 35.7149 32.3105 35.4094C32.396 35.091 32.4155 34.9008 32.3028 34.6327C32.1979 34.6599 31.9572 34.6717 31.7942 34.7182C31.6311 34.7648 31.4562 34.9394 31.4562 34.9394C31.4562 34.9394 31.5804 34.2288 31.8484 33.557C31.6464 33.5647 31.3008 33.6228 31.3008 33.6228C31.3008 33.6228 31.7824 32.8151 32.6064 32.2522C32.3541 32.3059 32.1071 32.3825 31.8687 32.4811C31.3871 32.683 30.859 32.9821 30.4668 33.1451C30.688 32.8379 32.2414 30.621 33.1658 28.5548C34.0874 26.4927 34.4317 25.9646 34.6337 24.8579C34.7384 24.3103 34.7105 23.5011 34.7384 22.7764C34.7655 22.0578 34.8549 21.4132 34.7968 20.9821C35.0374 21.2811 35.9385 22.1238 35.9695 24.0075C35.9967 25.8909 35.1076 28.4347 34.1637 29.8054C34.3941 29.8714 34.9911 29.9492 35.6045 28.8838C36.2178 27.8183 36.2104 27.5208 36.4319 27.0779C36.459 27.2994 36.4511 27.3769 36.4511 27.3769C36.4511 27.3769 37.3445 26.2935 37.7677 24.9303C37.8532 25.5168 38.1056 26.0334 37.7093 27.1092C37.356 28.0799 36.8939 28.317 36.8939 28.317C36.8939 28.317 37.1231 28.2781 37.4607 28.0761C37.5191 28.2197 37.5076 28.3833 37.6046 28.4411C37.7016 28.499 37.8337 28.5965 37.8532 28.6897C37.9579 28.5343 38.1209 28.3362 38.1716 28.1887C38.1327 28.4959 38.1056 29.8391 38.2484 30.5227C38.5477 30.4955 38.8544 30.4761 39.064 29.9362C38.9204 30.4646 38.9204 30.7828 39.0175 31.2333C39.1767 31.1248 39.3203 30.9305 39.3203 30.9305L39.3213 30.9312Z" fill="#C0993A"/>
<path fill-rule="evenodd" clip-rule="evenodd" d="M29.2313 9.52523C29.2313 9.52523 28.9323 9.64939 28.4236 9.64939C27.981 9.64939 28.1052 9.47864 27.414 9.47864C26.35 9.47864 22.6334 10.093 21.9809 10.0843C21.5575 10.0767 23.4099 10.2669 23.4099 10.2669L28.1441 10.3329L29.0954 10.2561L29.4489 9.53675L29.2313 9.52523Z" fill="#A88F33"/>
<path fill-rule="evenodd" clip-rule="evenodd" d="M16.9559 18.7797C16.9559 18.7797 16.3499 19.2418 16.0937 19.5953C15.8374 19.9489 15.7015 20.1816 15.4102 20.4691C15.4785 20.4717 15.5469 20.4625 15.6121 20.4419C15.6121 20.4419 15.6121 20.5187 15.5655 20.539C15.6058 20.5345 15.6466 20.539 15.6848 20.5523C15.7231 20.5656 15.7579 20.5873 15.7867 20.6158C15.7012 20.6623 15.4683 20.8956 15.6508 21.1713C15.7867 21.3809 16.0742 21.4001 16.0742 21.4001C16.0742 21.4001 16.0082 21.5906 16.2839 21.5711C16.8781 21.544 17.5421 21.2837 17.8488 21.3497C18.156 21.4265 18.3306 21.4547 18.5479 21.8315C18.7783 22.2042 18.9791 22.2626 18.9791 22.2626C18.9791 22.2626 19.115 21.9167 19.084 21.4004C19.1955 21.1221 19.2572 20.8263 19.2665 20.5267L19.0646 19.0393L18.1831 17.9247L17.0414 18.5578L16.9559 18.779V18.7797Z" fill="#E3C571"/>
<path fill-rule="evenodd" clip-rule="evenodd" d="M18.0391 18.5582C18.0391 18.5582 18.1246 18.7602 18.4819 18.7794C18.443 18.8649 18.443 18.8767 18.4548 18.9425C18.4625 19.0085 18.474 19.1055 18.474 19.1055C18.5134 19.0865 18.5489 19.0605 18.579 19.0287C18.5984 19.1142 18.5595 19.2499 18.579 19.3472C18.591 19.4064 18.6105 19.4637 18.6371 19.518C18.6427 19.5047 18.6492 19.4918 18.6565 19.4793C18.6642 19.4598 18.7333 19.689 18.9246 19.8633C18.9244 19.8365 18.931 19.8101 18.9438 19.7865C18.9467 19.8352 18.9628 19.8822 18.9904 19.9224C18.976 19.9156 18.963 19.9064 18.9517 19.8953C18.9517 19.8953 18.9709 20.5097 19.0759 20.8274C19.0934 20.8069 19.109 20.7848 19.1225 20.7613C19.1225 20.7421 19.1148 20.9324 19.0953 21.0685C19.0682 21.2045 19.0876 21.3947 19.0876 21.3947C19.1577 21.3396 19.2346 21.2939 19.3165 21.2588C19.433 21.2119 19.6237 21.0683 19.7399 20.7498C19.8074 20.5695 19.8593 20.3837 19.8953 20.1946C19.9329 20.2668 19.9588 20.3446 19.9721 20.425C19.9801 20.522 20.1626 20.4716 20.1626 20.4716L20.2015 20.0481L20.4319 19.0889L20.6416 18.4947L21.6512 16.9221L23.4755 15.5172L25.0678 15.8822L26.4113 14.057L24.0968 12.6666L21.9065 12.8957L19.9186 15.649L18.3266 18.1463L18.0391 18.558V18.5582Z" fill="#D8B65B"/>
<path fill-rule="evenodd" clip-rule="evenodd" d="M29.5106 14.5739C29.5106 14.5739 29.3747 14.601 28.9825 14.8043C28.5903 15.0076 28.3184 15.0721 28.1669 15.3711C28.0153 15.6701 28.0038 15.9071 28.0038 15.9071C28.0038 15.9071 28.2718 15.7907 28.4272 15.7518C28.5903 15.7131 28.7728 15.7246 28.7534 15.7907C28.7347 15.836 28.7088 15.8779 28.6766 15.9148C28.6766 15.9148 28.9838 15.9071 28.9756 16.0587C28.9674 16.2102 28.9175 16.3772 28.8594 16.4509C28.801 16.5277 28.5603 16.6414 28.5332 16.7307C28.4672 16.9132 28.5603 16.9209 28.5253 17.0684C28.4981 17.2122 28.3701 17.4918 27.9506 17.981C27.5194 18.4705 27.3362 18.8161 27.3362 18.8161C27.3362 18.8161 27.1265 18.4239 27.0177 18.086C26.9409 18.1246 26.5285 18.3537 26.5285 18.3537L25.5731 15.0257L25.5923 14.8043C25.5923 14.8043 25.6778 14.6996 25.6972 14.5053C25.5536 14.4587 25.5342 14.4198 25.3437 14.2375C25.1532 14.0552 24.9981 13.8335 24.6799 13.682C24.6333 13.5965 24.5749 13.4803 24.342 13.4334C24.109 13.3866 23.9692 13.3482 23.9692 13.3482C23.9692 13.3482 24.0934 13.3013 24.1518 13.2043C24.0079 13.2238 23.8917 13.2703 23.577 13.2627C23.2586 13.2547 23.2235 13.2432 23.0489 13.2703C22.8743 13.2975 22.6649 13.3753 22.5868 13.1073C22.5013 13.0412 22.3188 13.0996 22.1634 13.3285C22.008 13.5573 21.9538 13.7401 21.6547 13.8294C21.6337 13.9613 21.5876 14.0878 21.5188 14.2022C21.4333 14.3461 21.2974 14.4897 21.1148 14.7032C20.8274 15.0411 20.8739 15.5964 20.4157 16.0198C19.9536 16.443 20.4925 14.8468 20.4925 14.8468L21.2303 13.0804L23.3313 11.026L26.5935 10.8048L26.912 12.4944L28.5043 13.042L29.5101 14.5759L29.5106 14.5739Z" fill="#D3AE4D"/>
<path fill-rule="evenodd" clip-rule="evenodd" d="M30.0277 14.9466L28.6568 12.97L27.6976 12.232C27.6976 12.232 27.0141 10.974 26.9675 10.9351C26.9286 10.9079 26.284 10.838 25.8723 10.8109L25.9491 11.0011C26.039 11.0303 26.1188 11.0841 26.1795 11.1565C26.362 11.3662 26.4785 11.7622 26.063 12.1856C26.2261 12.2437 26.2934 12.2624 26.4358 12.2437C26.2922 12.4148 25.966 12.7798 25.9466 13.0983C25.9271 13.3584 26.0902 13.4359 26.0902 13.4359C26.0902 13.4359 25.8416 13.7234 25.8301 14.2039C25.9475 14.0716 26.0759 13.9494 26.2141 13.8389C26.5016 13.6085 26.8976 13.3494 27.1656 13.1863C27.162 13.2548 27.1712 13.3233 27.1928 13.3883C27.1928 13.3883 27.6935 12.9767 28.1144 13.1592C28.3046 13.2447 28.2191 13.5127 28.2191 13.5127C28.2191 13.5127 28.4794 13.4157 28.662 13.5982C28.8445 13.7808 29.1046 14.2505 29.2367 14.4333C29.2948 14.5188 29.4463 14.6819 29.6015 14.934C29.8135 15.2875 29.9904 15.6608 30.1299 16.0487C30.1375 15.8933 30.1688 15.6759 30.4371 15.6759L30.0292 14.9458L30.0277 14.9466Z" fill="#CAA13E"/>
<path fill-rule="evenodd" clip-rule="evenodd" d="M9.47672 20.5622C9.47672 20.5622 9.37969 20.3214 9.47672 19.8516C9.57374 19.3818 9.72529 19.1604 9.77572 18.4692C9.82616 17.778 10.2767 16.9158 10.2767 16.9158L11.5232 16.349L12.4048 16.5896L12.6649 17.7703L11.5503 18.3847C11.5503 18.3847 11.4922 18.6448 11.1776 18.8545C10.863 19.0641 10.428 19.2272 10.3233 19.441C10.2607 19.5719 10.215 19.7102 10.1874 19.8526C10.1874 19.8526 9.86891 19.7866 9.6787 19.9962C9.47672 20.21 9.4844 20.4002 9.47672 20.5633V20.5622Z" fill="#F4EFC8"/>
<path fill-rule="evenodd" clip-rule="evenodd" d="M11.9922 20.2476C11.9922 20.2476 11.8873 20.3137 11.8097 20.478C11.7329 20.3538 11.5494 19.6158 11.5417 18.9517C11.534 18.2877 11.4943 18.1231 11.6479 17.8942C11.8015 17.6653 12.4039 17.4242 12.3184 17.012C12.2329 16.6198 11.8755 16.4568 11.4367 16.5694C11.1295 16.6462 10.9009 17.2995 10.5824 17.6257C10.3415 17.8742 10.0543 17.8353 9.97675 17.9713C9.87179 18.1538 9.96881 18.3363 9.93783 18.4528C9.9299 18.4917 9.83287 18.7014 9.65803 18.9538C9.30475 19.4625 8.70673 20.181 8.62891 20.8257C8.65604 20.4606 8.63684 20.4529 8.73387 20.0489L8.6755 19.9519L9.0595 18.6937L9.30807 17.6569L9.86359 15.9207L10.842 14.1461L11.7936 13.0819L12.7838 13.148L12.9003 14.6353L13.4673 17.4278L14.6595 18.8957L12.7487 20.1816L11.9915 20.2476H11.9922Z" fill="#EBCC73"/>
<path fill-rule="evenodd" clip-rule="evenodd" d="M12.5873 20.7753C12.5873 20.7753 12.4242 20.8142 12.3658 20.7832C12.3074 20.7522 12.2496 20.7171 12.2688 20.6782C12.288 20.6393 12.3929 20.5735 12.3929 20.5423C12.3951 20.5141 12.3862 20.4861 12.3681 20.4644C12.3499 20.4426 12.3241 20.4288 12.2959 20.4258C12.2066 20.4143 12.1794 20.4724 12.1794 20.4724C12.1794 20.4724 12.0939 20.4066 12.0243 20.3956C12.0655 20.3906 12.107 20.3879 12.1485 20.3877C12.0411 20.3391 11.9273 20.3064 11.8105 20.2906C11.9076 20.2325 12.098 20.0615 12.2222 20.0615C12.3464 20.0615 12.4242 20.0423 12.4047 19.9763C12.3853 19.9102 12.2882 19.8132 12.1835 19.7743C12.2222 19.7277 12.2496 19.6578 12.1564 19.4671C12.0591 19.2769 12.098 19.1486 12.1293 19.1023C12.1564 19.0439 12.2534 18.9392 12.3 18.8732C12.3466 18.8071 12.3855 18.7178 12.4631 18.6712C12.502 18.6441 12.6262 18.5944 12.7506 18.547C12.8865 18.5004 12.9992 18.4421 13.0767 18.5004C13.1622 18.5585 13.1233 18.6364 13.1233 18.6364C13.1233 18.6364 13.3913 18.5391 13.632 18.6635C13.8729 18.7797 14.4594 18.8537 14.4594 18.8537L14.6696 19.2771L13.2792 20.4693L12.7045 20.7568L12.588 20.776L12.5873 20.7753Z" fill="#E5C66B"/>
<path fill-rule="evenodd" clip-rule="evenodd" d="M14.5161 18.8262C14.5161 18.8262 14.085 19.1137 13.988 19.2184C14.0461 19.2263 14.1431 19.2653 14.1042 19.3234C14.0576 19.3815 13.7781 19.5835 13.6227 19.7739C13.4596 19.9641 13.3042 20.205 13.2499 20.3215C13.1918 20.4262 12.749 20.7332 12.5977 20.7718C12.9161 20.7718 13.5569 20.3796 13.7975 20.3796C13.7898 20.4961 13.8636 20.6282 13.9995 20.6397C14.1354 20.6512 14.5276 20.7252 15.0558 20.3991C15.5839 20.0806 15.4093 19.8436 15.6305 19.6884C16.0539 19.4086 16.2247 19.16 16.4576 19.0049C16.6906 18.8498 16.8112 18.8144 16.8112 18.8144C16.8112 18.8144 16.8188 18.698 16.888 18.7097C16.9069 18.7119 16.9248 18.7192 16.9399 18.7308C16.955 18.7425 16.9666 18.758 16.9735 18.7758C16.9735 18.7758 17.3774 18.4883 17.8951 18.4107C17.883 18.4053 17.8733 18.3957 17.8679 18.3836C17.8679 18.3836 17.9066 18.3641 17.9145 18.3447C17.9145 18.3447 17.9417 18.3058 17.9611 18.3252C17.9806 18.3447 18.0077 18.4883 18.0466 18.5467C18.1321 18.5078 18.2952 18.1427 18.2952 18.1427L18.6876 17.0204V15.9951L18.3804 16.0535L16.0764 17.0319L14.6782 18.4806L14.5151 18.8262H14.5161Z" fill="#E6BD62"/>
<path fill-rule="evenodd" clip-rule="evenodd" d="M21.1488 13.7971C21.2734 13.7669 21.3929 13.7184 21.5034 13.6532C21.4568 13.7776 21.4568 13.9136 21.2548 14.2087C21.0528 14.5039 21.0451 14.5467 20.8821 14.8534C20.719 15.1718 20.6995 15.6301 20.5441 15.8318C20.6138 15.7979 20.6885 15.7757 20.7653 15.766C20.7653 15.766 20.6102 15.9019 20.5441 16.0455C20.4781 16.1892 20.3616 16.4882 20.0744 16.671C19.7872 16.8537 19.4218 16.97 19.0296 17.4011C18.6372 17.8242 18.2335 18.3603 18.0312 18.5531C18.1362 18.3705 18.2798 18.0055 18.3187 17.7648C18.3576 17.5242 18.3108 17.2365 18.3768 16.9183C18.4429 16.6 18.4429 16.3707 18.7608 15.8151C19.0788 15.2596 19.6231 13.3296 19.6231 13.3296L20.7958 12.9569L21.1493 13.7958L21.1488 13.7971Z" fill="#B6933F"/>
<path fill-rule="evenodd" clip-rule="evenodd" d="M20.3022 13.0865C20.3022 13.0865 19.9489 13.5952 19.8519 14.0458C19.7549 14.4963 19.8439 14.4574 19.7858 14.6789C19.7511 14.8139 19.7511 14.9555 19.7858 15.0905C19.9082 14.8934 20.0757 14.7282 20.2745 14.6087C20.6086 14.407 20.8805 14.2631 21.0425 14.0924C21.2056 13.9098 21.3415 13.6108 21.6948 13.3817C21.5512 13.3622 21.3492 13.2962 21.3108 13.3049C21.4547 13.1418 21.8855 12.8933 22.3205 12.5942C22.7516 12.287 22.7245 12.1631 23.4236 11.8565C23.1945 11.8954 23.0857 11.837 22.8952 11.8565C22.972 11.6934 23.2408 11.6156 23.5096 11.3478C23.7784 11.08 23.3389 10.6837 23.3389 10.6837L21.2909 11.9225L20.3007 13.0876L20.3022 13.0865Z" fill="#C49937"/>
<path fill-rule="evenodd" clip-rule="evenodd" d="M14.7461 12.1621L14.7927 11.7894L15.3792 10.8496L15.9928 9.19918V6.9428L15.9462 5.63796L16.0432 4.78344L16.117 4.51182L16.1948 4.40686L16.6955 4.66696L17.387 5.60673L17.453 7.42049L16.781 10.2826L14.8626 12.3759L14.7461 12.1621Z" fill="#DFC068"/>
<path fill-rule="evenodd" clip-rule="evenodd" d="M16.2714 4.30186C16.2714 4.30186 15.9642 4.3098 15.8987 5.58749C15.8332 6.86519 15.8014 7.53693 15.7548 8.17002C15.7082 8.80311 15.5997 9.18737 15.5452 9.56036C15.4906 9.93335 15.4597 10.4418 15.2851 10.7525C15.2083 10.8962 15.0442 11.3467 14.6597 11.6846C14.2286 12.0574 13.5845 12.3177 13.4869 12.3372C13.3159 12.3758 12.4499 12.4613 12.0966 12.6557C11.9724 12.7217 11.7587 12.7993 11.5219 13.0207C11.0519 13.4439 10.4267 14.2011 9.97615 15.1138C9.28495 16.477 8.59375 20.3254 8.59375 20.3254L8.74914 20.0653C8.74914 20.0653 8.7686 19.7197 9.1142 19.1138C9.45212 18.5081 9.35509 17.8284 9.82485 16.6672C10.0074 16.2246 10.2365 15.6498 10.5161 15.1604C10.9589 14.3642 11.4947 13.6807 12.0346 13.3079C12.9161 12.7022 13.8871 12.5701 13.8871 12.5701L14.9318 11.8789C14.9318 11.8789 15.1143 11.5257 15.3552 11.1217C15.6929 10.5549 16.1232 9.92183 16.2172 9.00151C16.361 7.63831 16.0152 6.74513 16.0346 5.93745C16.0541 5.12977 16.0618 4.53559 16.2251 4.39172C16.3884 4.24785 16.2717 4.30237 16.2717 4.30237L16.2714 4.30186Z" fill="#A88F33"/>
<path fill-rule="evenodd" clip-rule="evenodd" d="M16.272 10.399C16.272 10.399 16.7328 9.26495 16.9437 8.25913C16.9826 8.05714 17.0602 7.85542 17.0797 7.69234C17.1767 6.74079 17.2038 6.3486 17.0797 5.82815C16.9826 5.44415 16.6099 5.09804 16.4156 4.82975C16.2254 4.54994 16.1361 4.44575 16.175 4.38687C16.2139 4.32799 16.3652 4.23174 16.5126 4.24326C16.6694 4.24782 16.8236 4.28421 16.9658 4.35023C17.108 4.41624 17.2354 4.51049 17.34 4.62726C17.639 4.97286 17.8758 6.14585 17.8758 6.14585L18.1249 7.69362L18.758 9.64306L16.2725 10.4006L16.272 10.399Z" fill="#C99E3D"/>
<path fill-rule="evenodd" clip-rule="evenodd" d="M20.6018 9.21859C20.6018 9.21859 20.5163 9.25725 20.3611 9.21859C20.3678 9.28199 20.3568 9.34598 20.3293 9.40353C20.3019 9.46107 20.2592 9.50993 20.2058 9.54474C20.0427 9.47869 18.5162 9.61078 18.5162 9.61078C18.5162 9.61078 17.8055 9.48637 17.5841 8.54659C17.4289 7.92118 17.7005 7.05923 17.6112 6.49219C17.4753 5.65712 17.2851 5.49379 17.2656 5.23395C17.2461 4.97411 17.2267 4.90781 17.2267 4.74473C17.1412 4.72528 17.0907 4.69814 17.0055 4.69814C16.986 4.62134 17.0247 4.55427 16.9395 4.41833C16.986 4.43779 17.3045 4.4767 17.6772 4.82998C17.9844 5.11747 17.9844 5.22218 18.0308 5.28054C18.0889 5.33866 18.5589 5.74134 18.7609 6.14275C18.9629 6.54416 19.3551 7.82416 19.4444 8.03382C19.4715 8.11933 19.5299 8.20483 19.6748 8.39888C19.9001 8.67869 20.2301 9.14128 20.6028 9.21808L20.6018 9.21859Z" fill="#B58634"/>
<path fill-rule="evenodd" clip-rule="evenodd" d="M18.0859 5.30005C18.3212 5.68008 18.5325 6.0744 18.7188 6.48072C18.9479 6.99707 19.0838 7.4205 19.3713 7.7661C19.2159 7.31579 18.9402 6.43029 18.7771 6.11566C18.5946 5.78286 18.2219 5.42446 18.0859 5.3003V5.30005Z" fill="#A88F33"/>
<path fill-rule="evenodd" clip-rule="evenodd" d="M15.4449 11.6846C15.4449 11.6846 15.0527 11.7816 14.3226 12.1661C14.0817 12.2903 13.8528 12.395 13.6314 12.4923C13.0561 12.7524 12.4392 12.9927 11.9497 13.1253C11.9886 13.1719 12.0078 13.1911 12.0078 13.1911C12.0078 13.1911 12.0078 13.3816 12.1128 13.4901C12.0547 13.5485 11.2777 14.0766 11.5071 15.8436C11.6622 15.7854 11.8447 15.7076 11.8719 15.7076C11.9187 15.7156 11.9302 15.8436 11.9884 15.8436C12.0465 15.8436 12.2369 15.7668 12.4389 15.5056C12.4312 15.6106 12.3148 16.6669 12.9399 17.3775C13.0564 17.2416 13.3516 16.791 13.3516 16.791L13.3592 16.6474C13.3592 16.6474 13.3864 16.1464 13.5497 15.6882C13.713 15.2299 14.0312 14.892 14.0312 14.892L15.6929 12.5191L15.4444 11.6843L15.4449 11.6846Z" fill="#E6C367"/>
<path fill-rule="evenodd" clip-rule="evenodd" d="M13.8905 15.1689C13.8144 15.2226 13.7306 15.2645 13.6419 15.293C13.6148 15.196 13.5759 14.8619 13.805 14.5358C14.073 14.1433 14.6593 13.6346 14.8223 13.2302C14.9273 12.9698 14.8807 12.3175 15.8128 11.4825C16.7449 10.6474 17.1097 10.3602 17.1097 10.3602L18.6165 9.60291L20.4689 10.333L19.5486 13.9401L18.8341 15.6297L15.9925 15.0938L13.8902 15.1689H13.8905Z" fill="#DCBA5A"/>
<path fill-rule="evenodd" clip-rule="evenodd" d="M14.9766 14.1894L15.3301 13.7467V13.4321C15.3301 13.4321 15.7223 13.3272 16.1455 12.896C16.5686 12.4649 17.1551 11.6378 17.6717 11.6882C18.1883 11.7466 18.2388 12.8105 18.2582 13.1098C18.2777 13.4091 18.3437 14.0882 18.4484 14.4536C18.5649 14.8186 17.1902 16.201 17.1902 16.201L16.2566 16.9117L14.9766 14.1894Z" fill="#E9CE77"/>
<path fill-rule="evenodd" clip-rule="evenodd" d="M16.0703 17.8747C16.0703 17.8747 16.3578 17.4241 16.1471 17.3271C16.2713 17.0476 16.5004 16.7524 16.5004 16.7524C16.5004 16.7524 16.6635 16.3487 17.1916 15.8515C17.7197 15.3544 18.0461 15.0241 18.1316 14.6903C18.1843 14.4727 18.213 14.2501 18.2171 14.0262C18.2742 14.0729 18.3353 14.1144 18.3997 14.1504C18.4852 14.1893 18.8889 14.5231 18.8308 15.1951C18.7726 15.8671 18.5236 16.1467 18.5236 16.1467C18.5236 16.1467 18.2829 16.3873 18.1122 16.5117C17.9294 16.6359 17.8636 16.7795 17.5566 16.7913C17.5882 16.7662 17.6237 16.7465 17.6616 16.7329C17.6616 16.7329 17.3431 16.6943 17.1721 16.8494C17.0011 17.0045 16.6376 17.4825 16.4551 17.6264C16.2726 17.7429 16.0711 17.8749 16.0711 17.8749L16.0703 17.8747Z" fill="#CDAE50"/>
<path fill-rule="evenodd" clip-rule="evenodd" d="M28.9828 10.3212C28.524 10.1539 28.0418 10.0596 27.5538 10.0416C26.7382 10.0145 25.546 10.0611 24.3771 10.0687C23.1189 10.0764 21.9771 9.63764 20.3927 9.56007C20.1327 9.40468 19.4711 8.725 17.4062 10.1658C17.5304 10.1581 18.9054 9.8473 19.3828 10.4456C19.8644 11.0397 19.7284 12.0494 19.6626 12.2901C19.5382 12.8261 19.1343 13.6067 18.9714 14.1542C18.8086 14.7018 18.847 14.9896 18.7305 15.3736C18.6141 15.7576 18.3578 15.9483 18.5091 16.3909C18.7111 16.2668 18.8163 16.2668 19.1537 15.5095C19.4911 14.7523 19.4217 14.2124 19.9811 13.5716C20.5287 12.927 21.4403 12.0453 21.7869 11.8239C22.1335 11.6024 24.8858 10.1734 27.7676 11.5366C28.4626 11.4629 28.9831 10.3209 28.9831 10.3209L28.9828 10.3212Z" fill="#D2A83E"/>
<path fill-rule="evenodd" clip-rule="evenodd" d="M18.5679 9.79284C18.565 9.76366 18.5586 9.73494 18.5487 9.70734C18.5217 9.65055 18.4863 9.59816 18.4437 9.55195C18.4437 9.55195 17.7602 9.42779 17.4146 9.46644C16.8086 9.53249 16.2611 10.2821 16.0048 10.6666C15.7486 11.0511 15.4301 11.645 15.0845 11.9519C15.0883 11.922 15.0814 11.8918 15.065 11.8664C15.065 11.8664 15.0845 11.8936 15.0458 11.9325C15.0072 11.9714 15.0069 11.9906 15.0264 12.0093L15.0847 12.0674C15.1039 12.0674 15.64 11.8265 16.3701 11.1458C17.1468 10.4351 17.741 10.0706 18.0518 9.94568C18.2175 9.87524 18.3908 9.82397 18.5681 9.79284H18.5679Z" fill="#C29637"/>
<path fill-rule="evenodd" clip-rule="evenodd" d="M31.8251 6.87292C31.8251 6.87292 31.7007 7.02806 31.5453 7.19907C31.1997 7.56412 30.7491 7.97552 30.3646 8.39894C29.9998 8.80291 29.5882 9.11753 29.1258 9.64566C28.6635 10.1738 28.1274 10.76 27.9918 10.931C27.8676 11.102 27.7706 11.3816 27.7706 11.5252C27.7045 11.4786 27.627 11.4282 27.627 11.4282C27.6596 11.4892 27.6987 11.5465 27.7434 11.5992C27.8405 11.7351 27.9918 11.9064 28.0696 12.0108C28.1651 12.1438 28.2336 12.2942 28.2713 12.4535C28.3179 12.4611 28.6169 12.5195 28.9899 11.9059C29.3629 11.2923 29.8519 10.6205 29.8519 10.6205L30.6286 9.46697L31.118 8.48854L31.7324 7.39337L31.8259 6.87292H31.8251Z" fill="#AC8132"/>
<path fill-rule="evenodd" clip-rule="evenodd" d="M32.6224 6.0885C32.6224 6.0885 32.1524 6.4725 31.9699 6.7029C31.7873 6.9333 31.3555 7.53797 31.3555 7.53797L31.5109 7.51852L32.2993 6.81964L32.6065 6.27205L32.6222 6.08952L32.6224 6.0885Z" fill="#A88F33"/>
<path fill-rule="evenodd" clip-rule="evenodd" d="M32.4786 36.9505C32.4786 36.9505 32.4709 36.6321 32.6496 36.4419C32.8321 36.2514 33.2942 35.9718 33.7448 34.9233C34.1953 33.8747 34.2455 33.6379 34.2455 33.6379C34.2455 33.6379 33.4378 34.3291 32.9399 34.4922C33.0564 34.2513 33.1225 34.0805 33.1808 33.9561C33.1148 33.898 32.8352 33.8319 32.8081 33.801C32.9632 33.6456 33.0487 33.2649 33.3633 33.0125C33.7673 32.7053 34.5051 32.1774 35.0785 31.7069C35.652 31.2364 36.7794 30.142 36.9233 29.8235C37.0088 29.9476 37.028 30.0252 37.028 30.0252C37.028 30.0252 36.4612 30.7633 36.166 31.233C35.9057 31.637 35.9251 31.8661 35.9251 31.8661L36.4612 31.6357C36.4612 31.6357 36.6163 32.2104 35.9136 33.0844C36.2208 32.9679 36.3447 33.0378 36.5193 32.9405C36.2318 33.1233 35.8358 33.3719 35.4631 34.0552C35.098 34.7387 34.6009 35.5348 33.7622 36.0317C32.9466 36.556 32.4766 36.9482 32.4766 36.9482L32.4786 36.9505Z" fill="#A67A2E"/>
<path fill-rule="evenodd" clip-rule="evenodd" d="M30.3724 10.7254C30.3724 10.7254 30.0539 11.3892 30.0073 11.9059C29.9996 12.0303 29.9684 12.1273 29.9684 12.2709C29.9607 12.733 29.9955 13.2496 29.8916 13.4902C29.8527 13.3932 29.8332 13.3272 29.7943 13.2885C29.7362 13.4516 29.6313 13.9603 29.5457 14.1505C29.5071 14.0263 29.4216 13.5952 29.4295 13.0865C29.4375 12.5779 29.4487 12.4806 29.4487 12.3759C29.4295 12.531 29.3246 12.7409 29.2857 12.8651C29.2275 12.7604 29.1615 12.6244 29.0837 12.5118C29.0371 12.5886 28.979 12.702 28.9285 12.7604C28.9206 12.7138 28.9014 12.5894 28.8896 12.4148C28.8819 12.2128 28.8702 11.9527 28.8819 11.8982C28.9011 11.7935 29.0645 11.3818 29.4101 11.005C29.8217 10.5544 30.2451 9.68864 30.3693 9.42061C30.4935 9.15258 31.0216 8.03821 31.0216 8.03821H31.4256L30.8391 9.37402C30.8391 9.37402 30.4858 10.1041 30.3033 10.3724C30.1207 10.6407 29.7362 11.4095 29.5652 11.7085C29.6894 11.5454 29.7943 11.4599 29.9187 11.3045C30.0391 11.1957 30.3729 10.726 30.3729 10.726L30.3724 10.7254Z" fill="#8C6228"/>
<path fill-rule="evenodd" clip-rule="evenodd" d="M32.6292 6.03784C32.5632 6.24093 32.4589 6.42951 32.322 6.59336C32.0811 6.88085 31.5645 7.26511 31.3123 7.57179C31.0819 7.8708 30.6211 8.68642 30.8305 9.65333C30.9073 9.44367 31.052 9.02818 31.4365 8.55816C31.821 8.08815 32.2327 7.5485 32.4349 7.12917C32.6366 6.70575 32.6638 6.37192 32.6638 6.37192L32.7406 6.2749L32.694 6.05346L32.6279 6.03784H32.6292Z" fill="#CBA94C"/>
<path fill-rule="evenodd" clip-rule="evenodd" d="M40.494 31.7971C40.494 31.7971 40.3386 31.3739 40.292 30.9894C40.2454 30.6049 40.3688 30.5286 40.2259 30.0885C40.1404 29.8205 39.9853 29.8581 39.9464 29.8205C39.9075 29.7829 39.8803 29.3779 39.888 29.1564C39.8957 28.935 39.8803 28.6478 39.8414 28.5234C39.7833 28.4768 39.7444 28.4378 39.6589 28.1506C39.5619 27.8631 39.5153 27.7195 39.4687 27.6343C39.4221 27.549 39.2859 27.4712 39.2859 27.3857C39.2859 27.2147 39.4413 27.1256 39.4413 27.0785C39.4336 26.9815 39.3171 27.0593 39.2859 27.0319C39.2473 26.9853 39.3832 26.7058 39.3328 26.6668C39.3133 26.6476 39.1774 26.8107 39.1423 26.7641C39.1034 26.7173 39.0568 26.2552 38.9869 25.9485C38.9211 25.6495 38.851 25.4322 38.8433 25.3428C38.8356 25.2573 38.3072 23.7505 38.1792 23.3854C38.0761 23.077 37.9893 22.7633 37.9191 22.4457C37.8802 22.2631 37.8531 21.8901 37.8336 21.929C37.8142 21.968 37.8259 22.1582 37.7947 22.1505C37.7676 22.1426 37.6706 21.4787 37.6396 21.3738C37.6124 21.2688 37.4491 20.913 37.4092 20.6554C37.3703 20.3951 37.285 19.7154 37.2266 19.2533C37.1683 18.7913 37.1411 18.601 37.1411 18.4853C37.1507 18.2023 37.1351 17.919 37.0946 17.6387C37.0178 17.1493 36.8642 16.5551 36.7295 16.2098C36.4694 15.5572 35.7779 13.8873 35.6543 13.4718C35.6543 13.3669 35.7902 13.4252 35.7902 13.4252C35.7902 13.4252 36.1279 14.2718 36.3765 14.9241C36.6174 15.5767 36.8465 16.1514 36.9049 16.2098C36.9514 16.2679 37.3165 16.9086 37.4796 17.9572C37.6427 19.0058 37.7008 19.9727 37.798 20.6173C37.8446 20.9245 37.8835 21.2504 37.9806 21.5765C38.0853 21.9301 38.2483 22.2951 38.4621 22.8542C38.6446 23.3242 38.7806 23.7164 38.8543 24.0544C38.9398 24.4855 38.9398 24.8116 38.9902 25.0254C39.0371 25.2079 39.1067 25.5727 39.27 26.1006C39.4334 26.6284 39.6738 27.3084 39.8368 27.7315C40.1555 28.5781 40.2976 29.285 40.3458 29.6618C40.3882 30.0501 40.5321 31.3939 40.4932 31.7976L40.494 31.7971Z" fill="#A88F33"/>
<path fill-rule="evenodd" clip-rule="evenodd" d="M32.6497 5.99116L32.6302 6.03775C32.6302 6.03775 32.6883 6.05721 32.6768 6.13503C32.6776 6.24151 32.6711 6.34791 32.6573 6.45349C32.6381 6.58943 32.5992 6.69413 32.5915 6.77964C32.5915 6.96217 32.6187 7.17183 32.3611 7.69228C32.2843 7.8359 32.237 7.96005 32.1981 8.04556C32.1011 8.25522 32.0816 8.28646 31.9961 8.38348C32.132 8.30668 32.6215 7.99948 32.8698 8.04556C32.6991 8.14258 32.4387 8.33305 32.2756 8.58162C32.3146 8.5893 32.4776 8.62053 32.7364 8.58162C33.1675 8.51557 33.6491 8.36018 34.0723 8.39116C34.5346 8.41829 34.3521 7.83589 34.3521 7.83589L33.8186 6.66316L32.8089 5.95276L32.6497 5.99141V5.99116Z" fill="#BE9C44"/>
<path fill-rule="evenodd" clip-rule="evenodd" d="M35.2815 14.7759C35.2815 14.7759 34.8309 14.3253 34.6484 12.7791C34.4658 11.2256 34.5048 8.93905 34.5048 8.93905L34.1397 8.04587C34.1397 8.04587 34.0629 7.45169 33.8717 7.23051C33.6804 7.00932 33.3049 6.63633 33.1339 6.4538C32.9629 6.27128 32.7688 6.0227 32.6523 5.98379C32.7105 5.88676 32.9708 5.33918 33.9687 5.3315C34.9666 5.32382 35.2743 5.87908 35.3785 6.08107C35.4827 6.28305 35.9532 7.15627 36.1278 8.82027C36.2909 10.4822 36.2988 10.6066 36.2717 11.1814C36.2522 11.4998 36.1473 12.2376 35.9645 13.0258C35.7976 13.694 35.615 14.4397 35.281 14.7774L35.2815 14.7759Z" fill="#A17C34"/>
<path fill-rule="evenodd" clip-rule="evenodd" d="M33.8688 16.1001C34.019 16.1109 34.169 16.0771 34.2999 16.0028C34.4436 15.9951 34.964 16.0612 35.3639 15.5525C35.391 15.6687 35.4612 15.9836 35.2784 16.2631C35.3757 16.1659 35.5193 16.1272 35.5387 16.1001C35.5464 16.2437 35.6823 16.6863 35.1076 17.762C35.2628 17.5913 35.4453 17.599 35.6084 17.5795C35.6163 17.7815 35.7248 18.4609 35.4376 18.8262C35.2474 19.0748 34.9366 18.997 34.9366 18.997C34.9412 18.9427 34.9412 18.8882 34.9366 18.8339C34.9289 18.7289 34.89 18.6242 34.9174 18.5543C34.7672 18.4858 34.6305 18.391 34.5134 18.2745C34.1755 17.9561 33.7367 17.4126 33.7058 17.0086C33.6669 16.5581 34.0708 16.461 34.0708 16.461C34.037 16.4308 34.0081 16.3953 33.9853 16.3561C33.9659 16.2903 33.9464 16.1853 33.8688 16.1001Z" fill="#8C6228"/>
<path fill-rule="evenodd" clip-rule="evenodd" d="M30.8742 11.2146C30.8742 11.2146 30.8547 11.1875 30.75 11.3117C30.7695 11.1875 30.7889 11.0708 30.7966 10.9581C30.8462 10.8539 30.9103 10.7571 30.9871 10.6709C30.9287 10.7871 30.8898 10.8921 30.8898 10.8921C30.8898 10.8921 31.0336 10.6241 31.2433 10.461C31.3869 10.3445 31.5695 10.2902 31.647 10.1814C31.7325 10.065 31.7131 10.0455 31.7325 10.026C31.7325 10.026 31.923 9.90188 32.2143 9.53657C32.253 9.48998 32.3113 9.43954 32.3503 9.39295C32.416 9.36582 32.5714 9.29593 32.754 9.20249C32.9444 9.09778 33.1579 8.95417 33.29 8.89529C33.5501 8.77881 33.8261 8.79058 33.9541 8.6078C34.0511 8.58066 34.1558 8.28934 34.1366 8.04102C34.2802 8.09913 35.018 8.55737 35.2707 9.55935C35.4532 10.27 35.1268 11.3652 34.9909 11.8936C34.855 12.4219 34.8358 12.8139 34.6453 13.0545C34.4044 13.3732 33.628 13.8225 33.4375 14.045C33.2744 14.2275 32.7852 14.6896 32.8044 15.0234C32.8239 15.272 33.1305 15.4074 33.1968 15.4545C33.2632 15.5016 33.2626 15.5595 33.3871 15.5313C33.5115 15.5032 33.5578 15.4458 33.6085 15.4458C33.6666 15.4535 33.6666 15.4653 33.6937 15.4653C33.7134 15.4647 33.733 15.462 33.7521 15.4573C33.7521 15.4573 33.7327 15.8109 32.9055 15.9181C32.8472 15.9261 32.789 15.9453 32.7151 15.957C32.8123 15.9105 32.8704 15.9105 32.9754 15.7668C32.8589 15.7474 32.5248 15.7279 32.4393 15.7008C32.4665 15.6542 32.5558 15.5298 32.6296 15.4717C32.6956 15.4136 32.6219 15.3949 32.5638 15.4251C32.4637 15.4932 32.3677 15.567 32.2763 15.6463C32.1792 15.7318 32.0937 15.8482 31.9384 15.9535C31.8918 15.7981 31.8994 15.5029 32.0822 15.2894C32.0354 15.2971 31.946 15.433 31.8608 15.4059C31.8454 15.2642 31.8545 15.121 31.8879 14.9825C31.9345 14.8076 32.1869 14.5009 32.1869 14.5009L33.4063 12.3221L33.6664 10.6717L30.8742 11.2141V11.2146Z" fill="#92723A"/>
<path fill-rule="evenodd" clip-rule="evenodd" d="M30.8086 11.3078C30.8086 11.3078 30.7426 11.3544 30.8747 11.4437C30.8552 11.4709 30.8086 11.5679 30.7503 11.634C30.6845 11.7108 30.6143 11.7584 30.5872 11.8244C30.5291 11.9604 30.4825 12.0535 30.4825 12.1119C30.4825 12.1703 30.463 12.543 30.3 12.7837C30.2416 12.8692 30.1755 13.0128 30.1289 13.1098C30.0319 13.2805 29.9464 13.417 29.927 13.4938C29.8883 13.6297 29.8612 14.0025 29.8612 14.0025C29.8612 14.0025 29.9467 13.8975 29.9776 13.8589C29.9308 13.9559 29.8804 14.0606 29.8066 14.1384C29.8532 14.0995 29.9892 14.0025 30.2183 13.8005C30.5368 13.5327 31.0339 13.0821 31.6399 12.7253C31.4571 12.7913 31.3019 12.7913 31.1778 12.8108C31.2748 12.7138 32.1485 11.6885 32.6068 11.5915C32.6346 11.5562 32.6484 11.5119 32.6457 11.467L32.2532 11.4284L31.4571 11.5991L31.3408 10.9847L30.8086 11.307V11.3078Z" fill="#B18E3E"/>
<path fill-rule="evenodd" clip-rule="evenodd" d="M32.0746 14.803C32.0746 14.803 31.9697 14.9077 31.8726 15.168C31.7979 15.09 31.7339 15.0025 31.6822 14.9077C31.5386 14.667 31.3174 14.3601 30.8008 14.5349C30.7931 14.3719 30.7813 14.2864 30.8008 14.1699C30.8863 14.1507 31.1464 13.941 31.4065 13.6341C31.5892 13.4244 31.76 13.1835 31.8765 12.8768C31.9533 12.8185 32.0861 12.7214 32.2605 12.6088C32.5091 12.438 32.8081 12.2048 32.8547 11.9447C32.7382 11.9913 32.4896 12.1078 32.1166 12.0886C32.2605 12.0226 32.4817 11.9527 32.4545 11.6652C32.5129 11.6263 32.5595 11.5991 32.5595 11.5991C32.5157 11.5845 32.4697 11.5779 32.4236 11.5797C32.4156 11.5525 32.4041 11.5139 32.338 11.5331C32.272 11.5523 32.2612 11.5525 32.2525 11.5797C32.2254 11.5876 32.1361 11.5797 32.07 11.6265C32.004 11.6734 31.8214 11.8282 31.7516 11.8554C31.7787 11.8088 31.8173 11.7392 31.8173 11.7392C31.8173 11.7392 31.6271 11.7584 31.4912 11.816C31.2426 11.9015 30.9554 12.0569 30.6641 12.2082C30.6912 12.1616 30.703 12.1314 30.7222 12.1226C30.7414 12.1139 30.7882 12.1034 30.7882 12.0955C30.7882 12.0876 30.769 12.0187 30.7805 11.9908C30.8676 11.8063 30.9704 11.6296 31.0877 11.4627C31.2237 11.2799 31.2508 11.0198 31.2508 11.0198L31.845 10.7208L33.5149 10.3368L34.5985 10.4028L34.4626 11.1524L33.8226 12.4611L33.275 13.6533L32.6496 14.3836L32.0749 14.803H32.0746Z" fill="#543E26"/>
<path fill-rule="evenodd" clip-rule="evenodd" d="M34.7811 11.5592C34.7811 11.5592 34.1286 12.3669 33.9461 12.4913C34.0625 12.2427 34.7811 10.763 35.0412 10.3514C34.9831 10.3048 34.9053 10.3048 35.0878 9.58337C34.9327 9.94817 34.8782 10.1386 34.7502 10.2357C34.6222 10.3327 34.6063 10.3017 34.5198 10.3017C34.5361 10.2722 34.5428 10.2382 34.539 10.2047C34.539 10.2047 33.9914 10.1386 33.6174 10.1386C33.2433 10.1386 32.503 10.3406 32.0911 10.5037C31.7649 10.6396 31.5824 10.6396 31.4659 10.7249C31.3494 10.8219 31.2834 10.9269 31.225 10.954C31.1784 10.9811 30.9573 11.051 30.9066 11.1247C30.86 11.2015 30.7824 11.2878 30.7824 11.3073C30.7824 11.3267 30.763 11.3541 30.8213 11.3344C30.8405 11.3267 30.9844 11.2489 31.1475 11.1519C31.3687 11.0277 31.6367 10.8841 31.831 10.7986C32.3862 10.5772 32.5611 10.6161 32.8094 10.5695C33.0695 10.5229 33.4425 10.4141 33.6908 10.4141C33.9394 10.4064 34.4094 10.4141 34.5182 10.4335C34.4716 10.4725 34.4327 10.5191 34.4522 10.6821C34.4522 10.7287 34.4133 10.7791 34.3754 10.8918C34.2591 11.2103 34.0377 11.7384 33.9146 12.0064C33.7438 12.3712 33.5498 12.6782 33.4538 12.8684C33.3578 13.0586 33.1466 13.5596 32.9374 13.8276C32.7283 14.0956 32.619 14.2587 32.5534 14.3171C32.4879 14.3754 32.0174 14.7208 32.0524 14.8452C32.1379 14.8181 32.6778 14.6148 33.0698 14.1735C33.4617 13.7321 33.5398 13.4628 33.8465 13.2219C34.1532 12.981 34.3941 12.5773 34.5377 12.2435C34.658 11.9327 34.6309 11.8357 34.7822 11.5599L34.7811 11.5592Z" fill="#806031"/>
<path fill-rule="evenodd" clip-rule="evenodd" d="M20.7177 17.5875C20.7177 17.5875 20.6322 17.9408 20.4379 18.1156C20.2477 18.2866 19.9098 18.4341 19.8711 18.7216C19.8245 19.0088 20.209 19.1527 20.209 19.1527C20.209 19.1527 19.9991 19.4983 19.9991 19.7584C19.9991 20.0264 19.9914 20.0768 20.0186 20.3331C19.9878 20.3529 19.9616 20.3791 19.9418 20.4099C19.9418 20.4099 19.961 20.6585 20.1514 20.8136C20.3419 20.9687 20.5047 21.0622 20.6017 21.0233C20.6165 21.0549 20.6295 21.0874 20.6406 21.1205C20.6406 21.1205 20.7845 20.7555 20.8815 20.437C20.9786 20.1109 21.0641 20.1572 21.1027 19.7184C21.1414 19.2796 21.5635 18.5262 21.5635 18.5262L21.8515 17.8824L21.3818 17.5173L20.7177 17.5872V17.5875Z" fill="#B6903C"/>
<path fill-rule="evenodd" clip-rule="evenodd" d="M21.5923 18.2203C21.4954 18.3198 21.406 18.4262 21.3248 18.5388C21.2006 18.7098 21.1036 18.8649 20.9211 18.9312C20.7386 18.9976 20.6221 18.997 20.6336 19.1798C20.6451 19.3626 20.8161 19.4399 20.9131 19.5331C21.0181 19.6301 21.1036 19.7932 21.057 19.976C21.1151 19.9488 21.2201 19.9176 21.3171 19.708C21.4141 19.4983 22.0928 18.2206 22.0928 18.2206H21.5923V18.2203Z" fill="#685026"/>
<path fill-rule="evenodd" clip-rule="evenodd" d="M24.2685 15.2728C24.2685 15.2728 24.3266 15.1176 24.2685 15.005C24.2101 14.8885 23.8569 14.8496 23.682 14.7175C23.4995 14.5816 23.278 14.4871 23.0955 14.5468C23.1226 14.4807 23.2315 14.3368 23.1421 14.3059C23.0566 14.2787 22.7384 14.4223 22.6529 14.4884C22.5674 14.5544 22.3731 14.632 22.3344 14.6789C22.2958 14.7257 22.2295 14.8148 22.1906 14.7759C22.1516 14.7487 22.1324 14.6789 22.0664 14.7175C22.0003 14.7562 21.6824 15.0165 21.6238 15.1681C21.5651 15.3196 21.4333 15.6575 21.0373 16.0418C20.6412 16.4261 20.4702 16.6749 20.5867 16.8185C20.7032 16.9621 20.7577 16.8574 20.7772 16.9816C20.7921 17.1035 20.7856 17.227 20.7577 17.3466C20.7111 17.5486 20.6336 17.7388 20.7383 17.7777C21.0063 17.8632 21.2667 17.7009 21.3248 17.7506C21.4412 17.8553 21.2587 18.2321 21.5344 18.3059C21.8142 18.3827 22.0899 18.2398 22.0899 18.2398L23.1073 17.6922L24.086 17.1759L24.5867 16.1854L24.3182 15.3583L24.267 15.2728H24.2685Z" fill="#D4B968"/>
<path fill-rule="evenodd" clip-rule="evenodd" d="M23.3079 17.6379C23.3079 17.6379 23.1368 17.3778 23.3468 17.1485C23.5567 16.9191 23.8554 16.8223 23.9719 16.6787C23.9497 16.6514 23.92 16.6311 23.8864 16.6206C23.9637 16.4822 24.0817 16.371 24.2243 16.3019C24.1662 16.2438 24.0884 16.1972 24.0031 16.1972C23.8127 16.1972 23.6959 16.3136 23.5214 16.3136C23.3506 16.3136 23.3311 16.2281 23.3311 16.2281C23.3311 16.2281 23.6186 16.201 23.5912 16.0728C23.5641 15.9368 23.5144 15.9368 23.5144 15.9368C23.5144 15.9368 24.0697 15.7064 24.1667 15.5835C24.2638 15.4607 24.2522 15.3155 24.2717 15.2574C24.3375 15.2574 24.722 15.0554 24.8774 15.1409C25.0328 15.2264 24.924 15.4594 24.924 15.4594C24.924 15.4594 25.3943 15.1058 25.6339 14.7592C25.8435 14.7787 25.9411 14.6156 26.0947 14.6156C26.2851 14.6156 26.5841 14.8757 26.6423 15.431C26.6812 15.7494 26.7393 15.932 26.6812 16.4952C26.654 16.8136 26.6617 17.4936 26.758 17.831C26.8238 18.099 26.9791 18.0719 26.9791 18.0719C26.9553 18.1535 26.908 18.2264 26.8432 18.2815C26.7383 18.3785 26.7267 18.6351 26.7383 18.7321C26.7537 18.803 26.7732 18.873 26.7966 18.9417C26.7966 18.9417 26.6725 19.0854 26.6412 19.1826C26.6141 19.2797 26.4861 19.3457 26.3927 19.3457C26.2992 19.3457 26.3461 19.3378 26.2219 19.3457C26.0977 19.3536 26.0588 19.3728 25.981 19.3457C25.9032 19.3186 25.8451 19.2873 25.8763 19.0385C25.9034 18.7899 24.9171 18.2114 24.9171 18.2114L23.3043 17.6367L23.3079 17.6379Z" fill="#CCA849"/>
<path fill-rule="evenodd" clip-rule="evenodd" d="M21.4564 20.0922C21.4564 20.0922 21.8096 20.5623 23.2622 20.5623C23.9534 20.5623 24.1943 20.4962 24.3374 20.4573C24.4928 20.4184 25.0752 20.1895 25.6617 19.4981C26.1898 18.8729 26.0733 18.6167 26.0733 18.6167L25.7661 18.5701L24.7677 18.706L21.8135 19.9642L21.4551 20.0922H21.4564Z" fill="#585136"/>
<path fill-rule="evenodd" clip-rule="evenodd" d="M22.5395 20.2087C22.5395 20.2087 21.2812 20.4885 21.2812 19.6923C21.2812 18.9156 22.058 18.1 22.2523 17.9564C22.4542 17.8125 22.9358 17.6492 22.9358 17.6492H24.097L24.3182 18.2357L24.2212 19.5016L22.5395 20.2084V20.2087Z" fill="#252211"/>
<path fill-rule="evenodd" clip-rule="evenodd" d="M23.7015 17.8865C23.7015 17.8865 23.4609 17.665 22.9133 17.9633C22.3657 18.2615 21.9229 18.8849 21.8957 19.4509C21.8686 19.9516 22.3074 20.3246 22.9909 20.3441C23.4996 20.3633 23.8065 20.3051 23.9619 20.2673C23.923 20.2207 23.721 19.9682 23.721 19.9682L23.7018 17.8867L23.7015 17.8865Z" fill="#C3B378"/>
<path fill-rule="evenodd" clip-rule="evenodd" d="M23.4643 18.0104C23.4643 18.0104 23.4062 17.9638 23.2339 18.057C23.0903 18.1338 22.8806 18.3368 22.7175 18.4804C22.6126 18.5659 22.5465 18.6046 22.4871 18.6707C22.2462 18.9581 22.0443 19.4282 22.161 19.6611C22.2777 19.8941 22.662 20.1621 23.6407 19.9796L23.4615 18.0107L23.4643 18.0104Z" fill="#E6D89C"/>
<path fill-rule="evenodd" clip-rule="evenodd" d="M23.1452 18.4922C23.1452 18.4922 22.9898 18.7331 22.9898 19.1176C22.9898 19.5098 23.2112 20.135 24.0269 20.1816C24.652 20.2205 25.0713 19.2807 25.5257 18.9156C25.8713 18.6361 26.081 18.6282 26.081 18.6282C26.081 18.6282 25.7277 18.2442 24.7841 17.7468C23.852 17.2458 22.8073 17.1797 22.2402 17.9487C22.5083 17.9293 23.3743 17.7078 23.3743 17.7078L23.7977 17.8438L23.1452 18.4925V18.4922Z" fill="#252211"/>
<path fill-rule="evenodd" clip-rule="evenodd" d="M24.3656 19.0009C24.3385 18.9428 24.319 18.865 24.4317 18.8458C24.5443 18.8266 24.5948 18.8378 24.6337 18.9226C24.6726 19.0073 24.7105 19.078 24.6529 19.113C24.5948 19.144 24.4432 19.113 24.3654 19.0004L24.3656 19.0009ZM24.1831 18.4533C24.1831 18.4533 24.1442 18.4805 24.1637 18.4262C24.1713 18.3604 24.222 18.2437 24.3462 18.2711C24.4703 18.2985 24.4435 18.4341 24.423 18.473C24.4025 18.512 24.2988 18.5777 24.221 18.5498C24.2111 18.5473 24.202 18.5425 24.1943 18.5358C24.1867 18.5291 24.1807 18.5207 24.1769 18.5112C24.1731 18.5018 24.1716 18.4915 24.1725 18.4814C24.1734 18.4712 24.1767 18.4615 24.1821 18.4528L24.1831 18.4533Z" fill="#6F674D"/>
<path fill-rule="evenodd" clip-rule="evenodd" d="M13.6699 18.7015C13.6699 18.7015 13.9771 18.9319 14.334 18.923C14.6873 18.915 15.1417 18.5502 15.3513 18.317C15.4755 18.1811 15.5817 18.0375 15.6969 17.9248C15.7942 17.8278 15.86 17.7812 15.9066 17.7152C15.9726 17.6384 16.0425 17.494 16.0776 17.4471C15.9921 17.5132 15.8679 17.6299 15.7397 17.7075C15.6155 17.7843 15.3475 17.9287 15.2387 17.9676C15.134 18.0065 14.0465 18.582 14.0465 18.582L13.6699 18.7015Z" fill="#AC924C"/>
<path fill-rule="evenodd" clip-rule="evenodd" d="M14.1406 15.8321C14.1406 15.8321 14.3114 15.7157 14.6416 15.6417C14.9601 15.5649 15.6008 15.5057 15.6008 15.5057L16.129 15.7361L16.3386 16.5323L15.9546 17.3597L15.4654 17.6669L14.9099 16.7737L14.1419 15.8337L14.1406 15.8321Z" fill="#9F8E57"/>
<path fill-rule="evenodd" clip-rule="evenodd" d="M13.4484 16.5428L13.2656 16.6792C13.2656 16.6792 13.3125 16.5937 13.3511 16.3336C13.3898 16.0735 13.592 15.4404 13.8872 15.0754C14.1824 14.7103 14.1747 14.7298 14.1747 14.7298C14.1475 14.7248 14.1196 14.7257 14.0928 14.7323C14.066 14.739 14.041 14.7513 14.0193 14.7684C14.0582 14.6824 14.3068 14.3752 14.5554 14.2216C14.8039 14.068 14.901 14.0196 15.161 14.1448C15.4211 14.27 15.4872 14.335 15.6777 14.3273C15.8681 14.3197 16.0309 14.1177 16.0309 14.1177C16.0309 14.1177 16.0698 14.2418 15.9262 14.5293C15.7826 14.8168 15.2156 15.403 15.2156 15.403L14.0349 16.2107L13.4484 16.5435V16.5428Z" fill="#EAC970"/>
<path fill-rule="evenodd" clip-rule="evenodd" d="M14.3213 15.7351C14.3213 15.7351 15.1759 15.8516 15.436 15.6109C15.4436 15.6381 15.4749 15.6381 15.4749 15.6575C15.4728 15.6722 15.4659 15.6858 15.4554 15.6962C15.4837 15.6917 15.5123 15.6891 15.5409 15.6885C15.5751 15.6987 15.6103 15.7052 15.6459 15.708C15.6745 15.7073 15.7031 15.7047 15.7314 15.7C15.7287 15.7193 15.7221 15.7379 15.7121 15.7546C15.7021 15.7713 15.6888 15.7858 15.673 15.7973C15.7119 15.7973 15.7498 15.805 15.7498 15.836C15.7498 15.8669 15.7575 15.9604 15.7109 15.9798C15.6723 15.9905 15.6312 15.9877 15.5944 15.9719C15.5975 16.0454 15.6175 16.1173 15.6528 16.1818C15.7296 16.3254 15.8934 16.489 16.1136 16.4419C16.1136 16.4419 16.2298 16.7215 15.7406 17.3428C15.6748 17.4283 15.6047 17.5448 15.5194 17.6418C15.4857 17.7152 15.46 17.792 15.4426 17.8709C15.4426 17.8709 16.27 17.5524 16.5068 16.8262C16.7477 16.0961 16.7943 15.3777 16.7477 14.706C16.7398 14.5155 16.7088 14.3798 16.6622 14.2826C16.5457 14.0417 16.2193 14.0806 16.0875 14.2165C15.897 14.407 15.5786 14.8806 15.1359 15.2067C14.6854 15.5329 14.6662 15.5907 14.3203 15.7351H14.3213Z" fill="#D7BC6B"/>
<path fill-rule="evenodd" clip-rule="evenodd" d="M13.2981 16.7836C13.2981 16.7836 13.135 16.8806 13.0495 17.2444C12.964 17.6171 13.1263 18.0715 13.2202 18.2152C13.3142 18.3588 13.5274 18.7512 13.9698 18.7707C14.0793 18.7701 14.1876 18.7476 14.2883 18.7046C14.4427 18.6338 14.5876 18.5438 14.7194 18.4366C14.9098 18.293 15.065 18.1688 15.0455 18.157C14.9989 18.1376 13.8728 17.2055 13.8728 17.2055L13.4494 16.7329L13.2978 16.7841L13.2981 16.7836Z" fill="#585136"/>
<path fill-rule="evenodd" clip-rule="evenodd" d="M14.3608 18.3291C14.3608 18.3291 14.5899 18.3099 14.7258 18.2244C14.8618 18.1389 13.9297 17.2147 13.9297 17.2147L13.9957 18.2131L14.3608 18.3291Z" fill="#453A25"/>
<path fill-rule="evenodd" clip-rule="evenodd" d="M13.3703 16.7135C13.3703 16.7135 13.2538 16.9349 13.2538 16.9933C13.2344 17.1835 13.2928 17.7815 13.3393 17.9717C13.3859 18.1737 13.6384 18.4804 13.9648 18.4804C14.1665 18.4804 14.4463 18.3562 14.4463 18.3252C14.4463 18.2863 14.1588 18.2484 14.0812 18.1038C14.0346 18.027 14.0152 17.836 14.0044 17.643C13.9968 17.5188 13.9968 17.3829 14.0433 17.3358C14.1483 17.2193 14.1675 16.8852 14.1675 16.8852L14.5402 16.1927H14.05L13.4635 16.5578L13.3703 16.7135Z" fill="#84754B"/>
<path fill-rule="evenodd" clip-rule="evenodd" d="M13.2266 16.9272C13.2266 16.9272 13.6106 16.4186 13.9567 16.3018C14.3028 16.1851 14.4577 16.2552 14.4577 16.2552L14.2557 16.7718L13.9682 17.0903L13.9877 17.2534C13.9877 17.2534 13.9408 17.6845 14.2283 17.9835C14.5158 18.2825 14.7293 18.271 14.8537 18.271C14.9781 18.271 15.3352 18.166 15.5178 17.7349C15.6808 17.3312 15.8168 16.8133 15.4906 16.2941C15.1719 15.7775 14.609 15.7576 14.5002 15.7576C14.3914 15.7576 13.5371 15.8003 13.2266 16.9265V16.9272Z" fill="#252211"/>
<path fill-rule="evenodd" clip-rule="evenodd" d="M23.0865 18.6553C22.9429 18.5892 23.0788 18.1855 23.2224 18.0611C23.3661 17.9367 23.5486 17.7933 23.8673 17.7736C23.9835 17.7659 24.0962 17.8397 24.077 17.9175C24.0498 18.0611 23.8479 18.2631 23.6653 18.4067C23.4129 18.6049 23.2496 18.729 23.0865 18.6553Z" fill="#F7F7E7"/>
<path fill-rule="evenodd" clip-rule="evenodd" d="M15.3208 16.4534C15.4258 16.4457 15.5617 16.5302 15.5889 16.6438C15.616 16.768 15.5228 17.0166 15.3208 17.0166C15.1578 17.0166 15.0723 16.8146 15.0723 16.7565C15.0741 16.7087 15.0875 16.6621 15.1112 16.6205C15.1189 16.6088 15.1383 16.4728 15.3208 16.4534Z" fill="#F8F6DE"/>
<path fill-rule="evenodd" clip-rule="evenodd" d="M13.8066 16.5427C13.8066 16.5427 13.5385 16.6669 13.4144 16.9267C13.3257 17.1186 13.2988 17.3333 13.3376 17.5411C13.357 17.6381 13.4541 17.8788 13.5201 17.9643C13.5862 18.0498 13.6755 18.1082 13.7416 18.1002C13.8076 18.0923 13.9433 17.9177 13.9433 17.813C13.9433 17.7083 13.9512 17.2654 14.0792 17.0245C14.1919 16.7839 13.8073 16.543 13.8073 16.543L13.8066 16.5427Z" fill="#D4C38B"/>
<path fill-rule="evenodd" clip-rule="evenodd" d="M13.8443 16.5233C13.7977 16.5504 13.7201 16.5893 13.7393 16.6397C13.7588 16.6863 13.9219 16.7165 13.9802 16.8302C14.0463 16.9467 14.0463 17.0708 14.0268 17.1292C14.0775 17.1051 14.1236 17.0722 14.1627 17.0319C14.2483 16.9349 14.353 16.8031 14.4423 16.8031C14.5007 16.8031 14.5588 16.8302 14.6133 16.8302C14.6988 16.8302 14.7841 16.8031 14.7958 16.7137C14.815 16.5972 14.6328 16.4923 14.5278 16.5117C14.5473 16.4349 14.5744 16.3215 14.4889 16.2437C14.4034 16.1659 14.1356 16.3021 14.0772 16.341C14.0189 16.3799 13.8443 16.5235 13.8443 16.5235V16.5233Z" fill="#E2D59D"/>
<path fill-rule="evenodd" clip-rule="evenodd" d="M20.0163 24.6825L20.5911 24.5128L20.7541 24.6293C20.7541 24.6293 20.8704 24.8779 21.0531 24.9088C20.9948 25.033 20.8432 25.1392 20.8512 25.2273C20.8591 25.3154 20.9367 25.3827 20.9367 25.3827C20.9367 25.3827 20.4201 26.237 21.4377 27.0979C21.1968 27.1949 20.8901 27.3283 20.727 27.4051C20.8432 27.4322 21.0918 27.4819 21.1968 27.5761C21.3017 27.6703 21.3017 27.7003 21.3987 27.7586C21.4958 27.817 21.5539 27.8946 21.5347 27.9294C21.4686 27.8905 21.2472 27.7743 21.2085 27.8828C21.1699 27.9913 20.2493 27.9488 20.2493 27.9488L18.6959 28.2479C18.6959 28.2479 18.754 28.0925 18.5909 27.9488C18.4007 27.7781 18.1678 27.9565 17.9192 27.7663C17.593 27.5177 17.5813 27.2303 17.4766 27.1217C17.5813 27.0557 17.795 26.9586 18.3037 26.8913C18.2842 26.8524 18.2182 26.7359 18.2571 26.6312C18.3037 26.4953 18.4977 26.4098 18.4396 26.2472C18.5251 26.2278 18.5638 26.2278 18.7776 25.9597C18.9795 25.6917 19.1037 25.6336 19.2591 25.6141C19.4145 25.5947 19.5077 25.6141 19.7952 25.3461C19.9969 25.1559 19.9311 24.9928 19.9311 24.9928C19.9311 24.9928 20.0629 24.9501 20.0166 24.682L20.0163 24.6825Z" fill="#CBAC5A"/>
<path fill-rule="evenodd" clip-rule="evenodd" d="M18.3193 24.7688C18.3269 24.7299 18.3582 24.7105 18.5678 24.7299C18.7775 24.7494 20.1056 24.6058 20.4668 24.5863C20.8319 24.5592 22.1173 24.5784 22.7427 24.7105C23.3681 24.8426 24.0009 24.998 24.3076 25.0755C24.6148 25.161 24.7116 25.1917 24.6998 25.2307C24.6921 25.2696 24.623 25.3075 24.5833 25.2967C24.5447 25.289 23.5271 24.9782 23.2127 24.9127C22.8983 24.8472 21.8106 24.6718 21.2159 24.6823C20.6606 24.6902 20.4392 24.6746 19.9694 24.7289C19.4994 24.7873 18.7227 24.8648 18.4898 24.8339C18.2594 24.8067 18.307 24.8067 18.3187 24.7678L18.3193 24.7688Z" fill="#D6BC6F"/>
<path fill-rule="evenodd" clip-rule="evenodd" d="M21.4451 27.8126C21.4451 27.8126 22.2413 28.2437 22.5288 28.7719C22.7384 29.164 22.4046 29.3583 22.4046 29.3583C22.4046 29.3583 22.8552 29.3583 22.7968 29.6069C22.7697 29.7621 22.0201 30.1814 21.5191 30.4028C21.0104 30.6243 21.0299 30.6127 20.7813 30.6514C20.5404 30.6903 19.8802 30.5746 19.7443 30.7679C19.6083 30.9612 19.6675 31.1603 19.7054 31.1913C19.7443 31.2184 20.0589 31.2574 20.0589 31.2574C20.0589 31.2574 19.9928 31.4399 19.3406 31.4593C18.6883 31.4788 18.5249 31.5251 18.486 31.5953C18.4471 31.6611 18.6102 31.6224 18.9095 31.6721C19.2085 31.7187 19.6278 31.7489 19.6278 31.7489C19.6278 31.7489 19.4919 31.8654 19.1386 31.9585C18.7346 32.0632 18.1015 32.1605 17.9113 32.277C18.0083 32.3431 18.1522 32.4401 18.2185 32.4478C18.0554 32.4867 17.8261 32.5722 17.7874 32.6031C17.8455 32.6421 17.9233 32.6887 17.9233 32.6887C17.9233 32.6887 17.5969 33.0808 17.4067 33.1781C17.2165 33.2754 16.1214 33.7838 15.7445 33.6868C14.8048 33.4382 14.6883 32.4091 14.4592 32.3315C14.1136 32.2151 13.9505 32.4478 13.6435 32.2847C13.7795 32.1877 13.8535 32.1295 13.9971 32.0635C13.8417 31.9867 13.0378 31.477 13.0378 31.477C12.9538 31.2938 12.8605 31.115 12.7583 30.9412C12.6029 30.6732 12.3743 30.3158 12.2028 30.0012C11.83 29.31 11.8106 28.9915 11.4727 28.5993C11.531 28.5225 11.7328 28.5333 11.7328 28.5333L14.5641 29.4654L19.5845 29.6108L20.8901 27.7468L21.4454 27.8129L21.4451 27.8126Z" fill="#DFC677"/>
<path fill-rule="evenodd" clip-rule="evenodd" d="M14.0078 30.6552C14.0381 30.6889 14.0734 30.7178 14.1125 30.7407C14.2098 30.8068 14.3534 30.8846 14.4504 31.0008C14.4893 30.9427 14.5864 30.8377 14.7576 31.0008C14.9289 31.1639 15.1416 31.0477 15.274 31.0863C15.4099 31.1332 15.4176 31.1524 15.4176 31.1524C15.4176 31.1524 15.4944 31.0863 15.6662 31.0164C15.7711 30.9775 15.8953 30.9504 16.0312 30.9117C16.1554 30.8846 16.2913 30.8457 16.3848 30.8457C16.4703 30.9038 16.777 31.2297 18.0081 30.7486C19.1693 30.2981 19.4371 30.2477 19.6314 30.3173C19.6508 30.2707 19.6703 30.1813 19.9693 30.1931C19.9693 30.069 19.7207 29.6455 19.7207 29.6455L18.3498 29.1758H17.6L15.3516 29.5874L14.1056 30.2983L14.0086 30.6567L14.0078 30.6552Z" fill="#C4A859"/>
<path fill-rule="evenodd" clip-rule="evenodd" d="M13.2578 29.867C13.2578 29.867 13.2849 30.0767 13.5957 30.2981C13.9029 30.5193 13.9994 30.6514 13.9994 30.6514C13.9994 30.6514 14.0578 30.5746 14.1044 30.4963C14.151 30.4108 14.1899 30.3137 14.2675 30.2866C14.4229 30.2206 14.7761 30.3447 14.854 30.3253C14.92 30.3061 14.9006 30.1701 14.9705 30.1701C15.1335 30.1622 15.2382 30.2748 15.2966 30.2748C15.355 30.2748 15.4983 30.2671 15.5178 30.2362C15.5372 30.2052 15.5449 29.8826 15.7664 29.7272C16.0073 29.5565 16.3024 29.6302 16.3808 29.6691C16.3808 29.7272 16.3884 29.8711 16.5438 29.8788C16.6992 29.8865 16.7146 29.8593 16.851 29.9059C16.9875 29.9525 17.15 29.8982 17.2238 30.1271C17.2898 30.1079 17.4452 30.0885 17.4063 29.867C17.4831 29.8089 17.5502 29.77 17.7135 29.5409C17.7524 29.4828 17.8182 29.4167 17.8689 29.3312C18.0048 29.3312 18.1679 29.3041 18.3852 29.4943C18.3192 29.5409 18.2803 29.5711 18.2611 29.6184C18.3179 29.6747 18.3698 29.7358 18.4162 29.801C18.4746 29.8778 18.5135 29.972 18.5872 29.9914C18.7503 30.038 19.0183 29.972 19.3173 29.9914C19.6048 30.0109 19.8455 30.1156 19.9504 30.1816C19.9893 30.1624 19.9893 30.1545 20.0864 30.174C20.1834 30.1934 20.2571 30.2011 20.1524 30.0769C20.2105 30.1041 20.2766 30.1624 20.3349 30.1041C20.3933 30.0457 20.4396 29.9605 20.6027 29.941C20.7658 29.9215 20.8241 29.9487 20.8902 29.7779C20.9757 29.5683 20.6805 29.5683 20.6805 29.5683C20.6805 29.5683 20.8165 29.4438 20.968 29.2808C21.1505 29.11 21.3602 28.8886 21.4106 28.6167C21.4961 28.1157 21.0069 28.0499 21.0069 28.0499L18.6341 28.78L15.7331 28.6362L13.2593 29.8673L13.2578 29.867Z" fill="#927D49"/>
<path fill-rule="evenodd" clip-rule="evenodd" d="M11.1265 23.0127C11.1265 23.0127 11.0497 23.1097 11.0024 23.3388C10.955 23.5679 10.9752 23.5408 10.9363 23.7039C10.8974 23.867 10.4194 25.4903 10.5986 26.0378C10.7778 26.5854 11.0881 26.7874 11.2822 27.23C11.3211 27.3271 11.359 27.3854 11.3792 27.4709C11.4452 27.7582 11.3871 27.9796 11.4647 28.2671C11.4918 28.3641 11.562 28.4767 11.6667 28.5932C11.8971 28.8339 12.2726 29.063 12.4347 29.2261C12.6635 29.467 12.9899 29.9564 13.4054 30.0028C13.6269 30.0299 13.9415 29.9367 14.2016 29.7816C14.432 29.6377 14.5743 29.436 14.816 29.3208C14.9867 29.2353 15.1693 29.2043 15.3323 29.1654C15.6703 29.0993 15.9772 29.0886 16.1597 29.1265C16.4393 29.1848 17.0995 29.3868 17.4653 29.3868C17.7512 29.3822 18.0354 29.3431 18.3119 29.2703C18.8672 29.1073 19.5389 28.8275 19.9818 28.7033C20.2419 28.6265 20.4516 28.6063 20.6653 28.5597C21.0304 28.4742 21.3371 28.3577 21.5119 28.1363C21.3954 28.0003 21.2518 27.7907 20.4749 27.7983C19.5935 27.8178 18.5759 28.307 18.0749 28.3848C17.5739 28.4627 17.3565 28.5285 16.7972 28.3265C16.2488 28.1224 16.2306 27.9875 16.2306 27.9875C16.2306 27.9875 15.6549 27.5848 15.414 26.5583C15.1731 25.5317 15.414 24.7837 16.0394 24.0728C16.2025 23.8903 16.1636 23.7272 16.1636 23.7272C16.1636 23.7272 16.5752 23.1719 16.4626 22.652C16.3384 22.1354 15.5423 22.2403 15.5423 22.2403L11.1268 23.0127H11.1265Z" fill="#6E6342"/>
<path fill-rule="evenodd" clip-rule="evenodd" d="M11.7913 24.7408C11.757 24.8052 11.7409 24.8777 11.7447 24.9505C11.7524 25.0552 11.7836 25.1911 12.098 25.4981C12.366 25.7659 12.3076 26.0649 12.3076 26.0649C12.3076 26.0649 12.4425 26.092 12.8086 25.9207C13.0961 25.7848 13.1926 26.0257 13.1926 26.0257C13.2763 25.9818 13.367 25.9529 13.4606 25.9402C13.5455 25.9324 13.6276 25.9062 13.7013 25.8634C13.7013 25.8634 14.0392 26.209 14.3344 26.3721C14.6024 26.5159 14.7578 26.613 14.8899 26.5159C15.014 26.4304 15.014 26.2556 15.0061 26.178C14.9753 26.1064 14.9363 26.0387 14.8899 25.976C14.8044 25.8519 14.6684 25.708 14.6595 25.592C14.64 25.3243 14.8615 25.0055 14.8146 24.928C14.7678 24.8504 14.5934 24.831 14.1623 24.9863C13.7159 25.1338 11.7895 24.7416 11.7895 24.7416L11.7913 24.7408Z" fill="#39331F"/>
<path fill-rule="evenodd" clip-rule="evenodd" d="M12.8085 26.4768C12.8085 26.4768 12.5874 26.2671 12.6649 25.2495C12.7588 25.2482 12.8526 25.2573 12.9445 25.2767C12.9445 25.2767 13.0651 26.0651 12.8085 26.4768Z" fill="#292311"/>
<path fill-rule="evenodd" clip-rule="evenodd" d="M11.2315 22.2359C11.2624 22.2131 11.291 22.1874 11.317 22.1591C11.2402 22.3027 10.8857 22.8775 11.1732 23.7824C11.4607 24.6833 12.1828 25.355 13.0722 25.3863C13.9615 25.4175 14.429 24.9823 14.9635 24.33C15.1732 24.0699 15.4141 23.7435 15.6276 23.5223C15.946 23.1765 16.1946 23.0794 16.1946 22.7456C16.1946 22.0621 15.4955 21.7552 14.4664 21.4485C13.4372 21.1418 12.509 21.1797 12.0274 21.3896C11.5577 21.6185 11.3557 21.8593 11.2313 22.2362L11.2315 22.2359Z" fill="#252211"/>
<path fill-rule="evenodd" clip-rule="evenodd" d="M14.5359 26.7835L14.6127 26.7446C14.6127 26.7446 14.6319 26.4374 14.7563 26.4456C14.8805 26.4651 14.9389 26.6284 14.9271 26.6865C14.9194 26.7446 14.8884 26.8419 14.764 26.8301C14.6009 26.8339 14.5352 26.7835 14.5352 26.7835H14.5359Z" fill="#3F3824"/>
<path fill-rule="evenodd" clip-rule="evenodd" d="M14.1895 25.4787C14.1895 25.4787 14.2663 25.4515 14.3602 25.5447C14.437 25.5447 14.7719 25.5058 14.8768 25.5718C14.9818 25.6379 15.0127 25.696 15.0127 25.696C15.0127 25.696 14.6206 25.7815 14.4068 25.696C14.1895 25.6223 14.1895 25.4787 14.1895 25.4787Z" fill="#2D2815"/>
<path fill-rule="evenodd" clip-rule="evenodd" d="M15.9195 25.5368C15.9195 25.5173 15.7099 25.3737 15.4884 25.3269C15.4495 25.3192 15.4416 25.3463 15.4116 25.3463C15.3922 25.3386 15.3845 25.2803 15.3845 25.2803L15.2585 25.3466C15.2585 25.3466 15.2391 25.3737 15.3051 25.4234C15.3632 25.47 15.4605 25.5089 15.4877 25.5864C15.5148 25.664 15.5148 25.6912 15.5266 25.7029C15.5342 25.7106 15.6702 25.7029 15.7362 25.664C15.8023 25.6251 15.9267 25.5616 15.9188 25.536L15.9195 25.5368Z" fill="#82764F"/>
<path fill-rule="evenodd" clip-rule="evenodd" d="M13.957 26.3253C13.957 26.3253 13.9957 26.0575 14.256 26.0457C14.5238 26.0263 14.5745 26.2864 14.5745 26.2864L14.4191 26.4417C14.4191 26.4379 14.3026 26.2748 13.9583 26.3253H13.957Z" fill="#2D2816"/>
<path fill-rule="evenodd" clip-rule="evenodd" d="M15.6475 25.1718C15.6475 25.1718 15.5036 25.3272 15.1854 25.3738C15.1583 25.3349 15.0999 25.2573 15.1854 25.1331C15.2709 25.009 15.3679 24.9701 15.465 25.0087C15.5078 25.0157 15.5477 25.0347 15.58 25.0636C15.6124 25.0925 15.6358 25.13 15.6475 25.1718Z" fill="#574F35"/>
<path fill-rule="evenodd" clip-rule="evenodd" d="M16.2338 25.3622C16.2417 25.3233 16.2146 25.3156 16.2338 25.2962C16.253 25.2767 16.3582 25.2381 16.3776 25.2573C16.3853 25.2652 16.3776 25.2962 16.3776 25.3341C16.3776 25.3719 16.3776 25.4109 16.3582 25.4388C16.331 25.4777 16.2535 25.4971 16.2146 25.4856C16.1756 25.4741 16.168 25.4196 16.168 25.4088C16.1872 25.4011 16.2338 25.3817 16.2338 25.3622ZM16.8968 24.9429C16.8968 24.9234 16.9628 24.8845 17.0018 24.8845C17.0599 24.8845 17.0599 24.9311 17.0678 24.9429C17.087 24.9506 17.087 24.935 17.1065 24.97C17.1259 25.0051 17.1533 25.067 17.1336 25.106C17.1139 25.1449 17.0366 25.1718 17.0174 25.1641C16.9902 25.1446 16.9047 24.97 16.8968 24.9429Z" fill="#82764F"/>
<path fill-rule="evenodd" clip-rule="evenodd" d="M15.5605 25.4516C15.5605 25.4516 15.6461 25.4707 15.7625 25.568C15.7236 25.5952 15.6653 25.6261 15.6653 25.6261C15.6653 25.6261 15.6576 25.5368 15.5605 25.4513V25.4516Z" fill="#6E6342"/>
<path fill-rule="evenodd" clip-rule="evenodd" d="M15.3703 24.597C15.3508 24.5778 15.4284 24.5312 15.475 24.5389C15.5216 24.5466 15.541 24.5778 15.5914 24.5855C15.6419 24.5932 15.6498 24.566 15.6682 24.5466C15.6867 24.5271 15.7537 24.5389 15.7653 24.5466C15.7724 24.5551 15.7789 24.5642 15.7847 24.5737C15.7855 24.559 15.7894 24.5445 15.796 24.5313C15.8027 24.5181 15.812 24.5064 15.8234 24.4969C15.8383 24.486 15.8555 24.4785 15.8736 24.4752C15.8918 24.4718 15.9105 24.4726 15.9283 24.4775C15.936 24.5046 15.9749 24.6016 15.9672 24.6211C15.9596 24.6405 15.8431 24.6679 15.8234 24.6482C15.8428 24.6951 15.9283 24.7921 15.9399 24.8113C15.9514 24.8305 15.8544 24.8773 15.8157 24.8697C15.7614 24.8658 15.4273 24.6715 15.3692 24.5978L15.3703 24.597ZM15.8789 23.9524C15.8717 23.9329 15.858 23.9164 15.84 23.9058C15.8129 23.8981 15.7235 23.9058 15.7235 23.9524C15.7235 23.999 15.8003 24.2596 15.8866 24.3953C15.9839 24.5312 16.0497 24.6436 16.1157 24.6748C16.1365 24.6843 16.16 24.6855 16.1816 24.6783C16.2032 24.6711 16.2213 24.6559 16.2322 24.6359C16.2399 24.6165 16.2593 24.4729 16.2517 24.1349C16.244 23.797 16.2322 23.4709 16.2128 23.4514C16.1933 23.432 16.1157 23.4322 16.0886 23.4709C16.0615 23.5095 15.8866 23.8943 15.8787 23.9524H15.8789Z" fill="#585136"/>
<path fill-rule="evenodd" clip-rule="evenodd" d="M15.535 25.9407C15.535 25.9407 15.3991 25.8552 15.267 25.9136C15.1428 25.9719 15.1505 26.2011 15.1505 26.2011C15.1784 26.212 15.2086 26.2159 15.2384 26.2126C15.2682 26.2092 15.2967 26.1985 15.3215 26.1816C15.407 26.1235 15.5155 26.0265 15.535 25.941V25.9407Z" fill="#574F35"/>
<path fill-rule="evenodd" clip-rule="evenodd" d="M15.7897 26.2477C15.782 26.1709 15.7129 26.1709 15.7129 26.1312C15.7176 26.1122 15.7286 26.0954 15.7441 26.0834C15.7596 26.0714 15.7786 26.065 15.7981 26.0651C15.8371 26.0651 15.8749 26.1117 15.9226 26.1419C15.9691 26.1691 16.039 26.2187 16.0467 26.2779C16.0544 26.337 15.9699 26.4991 15.876 26.4991C15.782 26.4991 15.8099 26.3242 15.7905 26.2466L15.7897 26.2477ZM16.5393 26.1427C16.5393 26.1427 16.3839 26.1893 16.3954 26.1427C16.4069 26.0961 16.4422 26.0846 16.4927 26.0846C16.5183 26.0578 16.5528 26.0411 16.5897 26.0377C16.6108 26.0367 16.6316 26.0437 16.6478 26.0572C16.6478 26.0572 16.7528 26.0106 16.7837 26.0377C16.8147 26.0649 16.7917 26.0649 16.8109 26.0961C16.8353 26.1308 16.8514 26.1707 16.8577 26.2126C16.8577 26.2436 16.7412 26.3096 16.6478 26.2981C16.5393 26.2748 16.5585 26.1622 16.5393 26.1427ZM17.444 25.9679C17.444 25.9679 17.4906 25.995 17.4519 26.0262C17.4248 26.0534 17.2888 26.103 17.1721 26.1117C17.0556 26.1117 16.9509 26.1309 16.9509 26.0923C16.9509 26.0536 17.0479 25.9758 17.106 25.9563C17.1177 25.9417 17.1325 25.93 17.1493 25.9219C17.1662 25.9138 17.1846 25.9097 17.2033 25.9097C17.2499 25.9097 17.4322 25.8903 17.4829 25.8826C17.5295 25.8747 17.5684 25.9018 17.541 25.9407C17.5295 25.9679 17.444 25.9679 17.444 25.9679ZM17.712 24.7688C17.712 24.7688 17.6536 24.8929 17.5878 24.8929C17.5218 24.8852 17.5218 24.8658 17.5218 24.8463C17.5218 24.8192 17.5878 24.7493 17.5799 24.7298C17.5607 24.7298 17.5138 24.7298 17.5218 24.6833C17.5218 24.6443 17.5878 24.5977 17.6459 24.6065C17.6899 24.5704 17.7445 24.5499 17.8013 24.5483C17.8674 24.5483 17.9255 24.5675 17.9255 24.6065C17.9255 24.6454 17.8487 24.7306 17.8205 24.7503C17.7896 24.7813 17.7507 24.8015 17.712 24.7695V24.7688ZM16.8265 27.0638C16.8265 27.0638 16.7497 27.0717 16.7497 27.1104C16.7497 27.1298 16.7689 27.1298 16.7963 27.1183C16.8121 27.1174 16.8277 27.1148 16.8429 27.1104C16.8506 27.1183 16.8506 27.157 16.9089 27.157C16.9569 27.1505 17.003 27.1347 17.0449 27.1104C17.0915 27.0912 17.1304 27.0715 17.1304 27.0336C17.1109 26.9675 17.072 26.9363 17.0139 26.9363C16.9841 26.9344 16.9544 26.9412 16.9284 26.9558C16.9284 26.9558 16.9089 26.9169 16.8429 26.9558C16.7768 26.9947 16.7845 26.9947 16.804 27.0141C16.8388 27.0451 16.8273 27.0653 16.8273 27.0653L16.8265 27.0638ZM16.3877 27.4678C16.3877 27.4483 16.4847 27.4094 16.5119 27.4212C16.539 27.4289 16.6166 27.5763 16.6166 27.5919C16.6166 27.6114 16.5195 27.658 16.4806 27.658C16.4417 27.658 16.3759 27.5919 16.3759 27.5812C16.3759 27.5735 16.4225 27.562 16.4225 27.554C16.434 27.5348 16.3877 27.488 16.3877 27.4685V27.4678ZM16.0805 26.9007C16.1 26.893 16.1 26.8736 16.1271 26.8541C16.1356 26.8485 16.1453 26.8448 16.1554 26.8435C16.1655 26.8422 16.1758 26.8432 16.1855 26.8465C16.1923 26.8342 16.2018 26.8237 16.2132 26.8156C16.2246 26.8075 16.2377 26.802 16.2515 26.7996C16.2981 26.7919 16.337 26.7996 16.3283 26.8191C16.3283 26.8774 16.3672 26.9161 16.3672 26.9627C16.3672 27.0093 16.3401 27.0676 16.2431 27.1065C16.146 27.1337 16.0139 27.1337 15.9945 27.126C15.975 27.1183 15.9556 27.0405 15.975 27.0016C15.9945 26.9627 16.0488 26.9202 16.08 26.9007H16.0805Z" fill="#82764F"/>
<path fill-rule="evenodd" clip-rule="evenodd" d="M16.2047 26.9271C16.2047 26.9271 16.1387 26.966 16.1387 26.9855C16.1328 27.0043 16.1302 27.0239 16.131 27.0436C16.131 27.0551 16.2165 27.0359 16.228 27.0241C16.2319 27.0165 16.2047 26.9473 16.2047 26.9271Z" fill="#6E6342"/>
<path fill-rule="evenodd" clip-rule="evenodd" d="M15.6265 26.7445C15.6651 26.7525 15.7312 26.7445 15.7816 26.764C15.8205 26.7835 15.8477 26.8224 15.8088 26.869C15.7699 26.9156 15.732 26.9854 15.6457 26.9737C15.5487 26.966 15.4555 26.9156 15.4555 26.8766C15.4539 26.852 15.4571 26.8273 15.4651 26.804C15.4731 26.7807 15.4857 26.7591 15.5021 26.7407C15.541 26.7097 15.5602 26.7292 15.6262 26.7445H15.6265Z" fill="#585136"/>
<path fill-rule="evenodd" clip-rule="evenodd" d="M15.5798 26.7836C15.5798 26.7836 15.4556 26.8806 15.4244 26.9274C15.3855 26.974 15.1953 27.2147 15.1372 27.2651C15.1565 27.2311 15.1785 27.1986 15.203 27.1681C15.1262 27.2172 15.0686 27.2912 15.0399 27.3777C14.9933 27.5216 15.3003 27.5992 15.502 27.6576C15.7037 27.7159 15.7818 27.7344 15.7818 27.7344C15.7075 27.6227 15.6438 27.5045 15.5913 27.3811C15.5145 27.1985 15.4748 27.1791 15.5253 27.0936C15.5642 27.0081 15.6226 26.95 15.6226 26.8839C15.5993 26.8225 15.5798 26.7836 15.5798 26.7836Z" fill="#574F35"/>
<path fill-rule="evenodd" clip-rule="evenodd" d="M11.1529 27.0905C11.1811 27.0957 11.2101 27.0957 11.2384 27.0905C11.2965 27.0826 11.9024 26.8601 12.5355 26.9001C13.0094 26.9287 13.4792 27.0059 13.9374 27.1305C14.7335 27.3401 15.7237 27.7556 16.3645 27.9927C16.5353 28.0585 16.7024 28.1752 16.8253 28.2215C17.3148 28.412 17.334 28.412 17.6215 28.4624C17.9594 28.509 18.305 28.3964 18.6662 28.3188C19.1088 28.2215 19.8661 28.1749 20.5301 28.0779C20.7449 28.0482 20.9567 28.0001 21.1632 27.9343C21.1632 27.9343 20.6351 28.4624 19.3689 28.6526C18.8571 28.7303 18.337 28.7369 17.8234 28.6721C17.4195 28.6332 17.1517 28.5748 16.9497 28.5167C16.7206 28.4507 16.2506 28.2758 15.672 28.1327C15.2681 28.0277 14.8175 27.9502 14.3011 27.8531C13.0273 27.6199 11.6449 27.3522 11.1523 27.0921L11.1529 27.0905Z" fill="#252211"/>
<path fill-rule="evenodd" clip-rule="evenodd" d="M9.72369 24.6904C9.41649 24.9505 9.0906 25.1991 8.77239 25.4397L7.81316 26.1768C7.48701 26.4174 7.16855 26.666 6.84215 26.9069C6.51575 27.1478 6.18986 27.3766 5.84375 27.5981C6.15095 27.338 6.47684 27.0971 6.80298 26.8603C7.12913 26.6235 7.4673 26.3913 7.78193 26.1512L8.74116 25.4131C9.07114 25.1725 9.38961 24.9239 9.72369 24.6909V24.6904ZM8.02666 27.4089C8.02666 27.4089 8.37226 27.1214 8.80337 26.7177C9.33917 26.217 9.99556 25.5759 10.2052 25.4597L8.02641 27.4092L8.02666 27.4089Z" fill="#CFB66C"/>
<path fill-rule="evenodd" clip-rule="evenodd" d="M8.02734 27.4087C8.19835 27.2379 8.38088 27.071 8.56341 26.9077L8.84296 26.667C8.92846 26.5902 9.02574 26.504 9.11099 26.4185C9.28174 26.2477 9.44891 26.0649 9.61966 25.8903C9.7043 25.8025 9.79378 25.7195 9.8877 25.6418C9.93465 25.6002 9.9868 25.5649 10.0428 25.5368C10.0897 25.5097 10.1401 25.46 10.2059 25.4513C10.1672 25.5097 10.1207 25.5368 10.0817 25.5872C10.0352 25.6261 9.99624 25.6727 9.95758 25.7114C9.87208 25.7969 9.77506 25.8745 9.68955 25.9523C9.50702 26.1077 9.31682 26.2595 9.13429 26.422C8.95176 26.5846 8.78101 26.76 8.59822 26.923C8.40034 27.0902 8.21781 27.2533 8.02734 27.4094V27.4087ZM10.3498 25.8553C10.3498 25.8553 9.08386 27.0943 8.8235 27.296L10.3498 25.8553Z" fill="#CFB66C"/>
<path fill-rule="evenodd" clip-rule="evenodd" d="M10.3505 25.8552C10.2366 25.987 10.1145 26.1115 9.98492 26.228L9.60092 26.593C9.47676 26.7172 9.36003 26.8416 9.22819 26.9658C9.09225 27.0822 8.96809 27.1962 8.82422 27.3037L9.19695 26.9386C9.32137 26.8145 9.45731 26.7098 9.5894 26.5853L9.96214 26.2203C10.0901 26.0923 10.2146 25.9679 10.3505 25.8552ZM10.4086 26.527C10.2919 26.8526 10.1544 27.1705 9.99695 27.4785C9.67081 28.1311 9.18159 28.9464 8.96783 29.3622L10.4086 26.527Z" fill="#CFB66C"/>
<path fill-rule="evenodd" clip-rule="evenodd" d="M10.4076 26.5272C10.4076 26.6708 10.3687 26.7953 10.3221 26.9194C10.2767 27.0437 10.2249 27.1655 10.167 27.2845C10.1086 27.401 10.0426 27.5254 9.97653 27.638C9.91048 27.7506 9.83291 27.8669 9.77454 27.9836L9.38235 28.6748C9.24641 28.9052 9.11432 29.1369 8.9707 29.3583C9.06773 29.1098 9.19982 28.8768 9.32424 28.6477C9.46018 28.4173 9.58434 28.1869 9.70824 27.9485C9.76873 27.8298 9.82316 27.708 9.87131 27.5837C9.92942 27.4593 9.98753 27.3428 10.0344 27.2302C10.0925 27.106 10.1391 26.9893 10.1975 26.8769C10.2632 26.7563 10.3178 26.6399 10.4071 26.5272H10.4076Z" fill="#CFB66C"/>
<path fill-rule="evenodd" clip-rule="evenodd" d="M11.7897 29.7117C11.7897 29.7117 11.4057 30.2203 11.4441 30.865C11.5488 30.5273 11.6809 30.0107 11.7897 29.7117ZM12.1548 30.2216C12.1548 30.2216 12.0188 31.604 11.9062 32.2837C12.0654 31.498 12.0964 31.5641 12.1548 30.2216ZM14.6984 32.3654C14.6984 32.3654 14.1237 34.055 14.1119 34.5245C14.2363 34.0417 14.4769 33.0553 14.6984 32.3641V32.3654Z" fill="#DEC270"/>
<path fill-rule="evenodd" clip-rule="evenodd" d="M16.043 29.6072C16.043 29.6072 16.9751 31.145 17.6742 32.4575C17.485 31.797 17.0498 30.5856 16.043 29.6072Z" fill="#CBAF59"/>
<path fill-rule="evenodd" clip-rule="evenodd" d="M18.5469 31.871C19.0586 32.7756 19.5201 33.7077 19.9293 34.6632C19.8517 34.0029 19.6418 32.873 18.5469 31.871Z" fill="#E3C677"/>
<path fill-rule="evenodd" clip-rule="evenodd" d="M25.9115 34.1383C26.0666 34.0413 26.3735 33.5129 26.6416 33.3811C26.9094 33.2452 27.1113 33.218 27.3522 32.95C27.5929 32.6702 27.6594 32.4994 28.187 32.2782C28.9251 31.9595 28.4174 31.5479 28.4174 31.5479C28.4987 31.468 28.5857 31.3941 28.6775 31.3267C28.868 31.1831 29.0892 31.0082 29.07 30.7013C29.0429 30.1849 28.9458 29.4354 28.5224 29.0004C28.9341 28.9149 29.7223 28.8568 30.212 28.7326C30.7788 28.5888 31.0391 28.3868 31.0391 28.3868C31.0391 28.3868 30.713 27.8315 31.2411 27.2724C31.7693 26.7133 32.2004 26.3792 32.5188 25.7538C32.1538 25.7072 31.5972 25.5132 30.1769 26.0528C30.2536 26.0889 30.3276 26.1304 30.3984 26.177C30.3984 26.177 29.5246 26.4179 29.2062 26.6859C28.6507 27.1557 28.5808 27.5402 27.9789 27.8277C27.3771 28.1152 26.7711 28.0373 26.2704 28.2703C25.7696 28.5033 25.6957 28.7014 25.5129 28.7869C25.5518 28.8335 25.5052 28.9111 25.5789 28.9771C25.5323 29.0432 25.2605 29.4858 24.9847 29.4858C25.0119 29.5908 25.2448 29.6683 25.2448 29.6683C25.2448 29.6683 25.0741 29.7927 24.6391 29.8237C24.8603 30.0541 25.0702 30.3053 25.6488 30.6703C25.6022 30.7673 25.4079 30.9112 25.4857 31.0937C25.5712 31.2763 25.7929 31.5248 26.6779 31.7268C26.2274 31.746 25.6995 31.851 24.9883 31.754C24.2777 31.6685 24.1612 31.618 23.7224 31.7268C23.769 31.7734 23.8932 31.7734 24.002 31.8976C23.8855 31.9053 23.1554 31.8121 22.9068 32.1385C22.6467 32.4761 22.5341 33.0316 22.5535 33.4044C22.4176 33.4704 22.2855 33.5869 22.3515 33.8278C22.4176 34.0687 22.7632 34.1463 22.9846 34.2976C23.2058 34.4606 23.2253 34.5188 23.4352 34.4801C23.6564 34.4335 23.9825 34.2123 24.173 34.2123C24.3634 34.2123 24.4991 34.3559 24.4991 34.3559C24.4991 34.3559 25.0157 34.1074 25.0662 34.154C25.1127 34.2005 25.0738 34.4996 25.1243 34.5461C25.1755 34.5812 25.7574 34.2356 25.9127 34.1383H25.9115Z" fill="#ECD592"/>
<path fill-rule="evenodd" clip-rule="evenodd" d="M37.2003 18.5972C34.7731 12.3293 28.773 11.1681 28.773 11.1681H11.6546L11.7206 17.5525H15.1298V31.8089H11.6543V38.1817H28.2992C32.3107 38.1817 35.5263 34.1505 35.5263 34.1505C40.6757 26.8419 37.2 18.5972 37.2 18.5972H37.2003ZM28.3885 29.8553C28.3885 29.8553 27.0829 31.739 25.6624 31.739H22.8208L22.7534 17.5681H26.4002C26.4002 17.5681 28.0898 17.9214 29.2702 21.265C29.2702 21.265 30.8351 26.0522 28.3885 29.8553Z" fill="white" fill-opacity="0.8"/>
</g>
<defs>
<clipPath id="clip0_1738_28753">
<rect width="48" height="48" fill="white" transform="translate(0 0.5)"/>
</clipPath>
</defs>
</svg>
