<svg width="24" height="25" viewBox="0 0 24 25" fill="none" xmlns="http://www.w3.org/2000/svg">
<path d="M21.9803 11.8775C21.6403 6.07748 16.3703 1.60749 10.3003 2.60749C6.12029 3.29749 2.77029 6.68747 2.12029 10.8675C1.74029 13.2875 2.24031 15.5775 3.33031 17.4675L2.4403 20.7775C2.2403 21.5275 2.93028 22.2075 3.67028 21.9975L6.93029 21.0975C8.41029 21.9675 10.1403 22.4675 11.9903 22.4675C17.6303 22.4675 22.3103 17.4975 21.9803 11.8775ZM16.8803 16.1875C16.7903 16.3675 16.6803 16.5375 16.5403 16.6975C16.2903 16.9675 16.0203 17.1675 15.7203 17.2875C15.4203 17.4175 15.0903 17.4775 14.7403 17.4775C14.2303 17.4775 13.6803 17.3575 13.1103 17.1075C12.5303 16.8575 11.9603 16.5275 11.3903 16.1175C10.8103 15.6975 10.2703 15.2275 9.7503 14.7175C9.2303 14.1975 8.77027 13.6475 8.35027 13.0775C7.94027 12.5075 7.61029 11.9375 7.37029 11.3675C7.13029 10.7975 7.01031 10.2475 7.01031 9.72749C7.01031 9.38749 7.0703 9.05749 7.1903 8.75748C7.3103 8.44748 7.50032 8.16749 7.77032 7.91749C8.09032 7.59749 8.4403 7.44749 8.8103 7.44749C8.95029 7.44749 9.09027 7.47748 9.22027 7.53748C9.35027 7.59748 9.47029 7.68748 9.5603 7.81748L10.7203 9.45747C10.8103 9.58747 10.8803 9.69747 10.9203 9.80747C10.9703 9.91747 10.9903 10.0175 10.9903 10.1175C10.9903 10.2375 10.9503 10.3575 10.8803 10.4775C10.8103 10.5975 10.7203 10.7175 10.6003 10.8375L10.2203 11.2375C10.1603 11.2975 10.1403 11.3575 10.1403 11.4375C10.1403 11.4775 10.1503 11.5175 10.1603 11.5575C10.1803 11.5975 10.1903 11.6275 10.2003 11.6575C10.2903 11.8275 10.4503 12.0375 10.6703 12.2975C10.9003 12.5575 11.1403 12.8275 11.4003 13.0875C11.6703 13.3575 11.9303 13.5975 12.2003 13.8275C12.4603 14.0475 12.6803 14.1975 12.8503 14.2875C12.8803 14.2975 12.9103 14.3175 12.9403 14.3275C12.9803 14.3475 13.0203 14.3475 13.0703 14.3475C13.1603 14.3475 13.2203 14.3175 13.2803 14.2575L13.6603 13.8775C13.7903 13.7475 13.9103 13.6575 14.0203 13.5975C14.1403 13.5275 14.2503 13.4875 14.3803 13.4875C14.4803 13.4875 14.5803 13.5075 14.6903 13.5575C14.8003 13.6075 14.9203 13.6675 15.0403 13.7575L16.7003 14.9375C16.8303 15.0275 16.9203 15.1375 16.9803 15.2575C17.0303 15.3875 17.0603 15.5075 17.0603 15.6475C17.0003 15.8175 16.9603 16.0075 16.8803 16.1875Z" fill="#8E98A8"/>
</svg>
