<svg width="24" height="25" viewBox="0 0 24 25" fill="none" xmlns="http://www.w3.org/2000/svg">
<path d="M12 2.46753C14.717 2.46753 15.056 2.47753 16.122 2.52753C17.187 2.57753 17.912 2.74453 18.55 2.99253C19.21 3.24653 19.766 3.59053 20.322 4.14553C20.8305 4.64543 21.224 5.25012 21.475 5.91753C21.722 6.55453 21.89 7.28053 21.94 8.34553C21.987 9.41153 22 9.75053 22 12.4675C22 15.1845 21.99 15.5235 21.94 16.5895C21.89 17.6545 21.722 18.3795 21.475 19.0175C21.2247 19.6853 20.8311 20.2901 20.322 20.7895C19.822 21.2978 19.2173 21.6913 18.55 21.9425C17.913 22.1895 17.187 22.3575 16.122 22.4075C15.056 22.4545 14.717 22.4675 12 22.4675C9.283 22.4675 8.944 22.4575 7.878 22.4075C6.813 22.3575 6.088 22.1895 5.45 21.9425C4.78233 21.692 4.17753 21.2985 3.678 20.7895C3.16941 20.2897 2.77593 19.685 2.525 19.0175C2.277 18.3805 2.11 17.6545 2.06 16.5895C2.013 15.5235 2 15.1845 2 12.4675C2 9.75053 2.01 9.41153 2.06 8.34553C2.11 7.27953 2.277 6.55553 2.525 5.91753C2.77524 5.24971 3.1688 4.64485 3.678 4.14553C4.17767 3.63676 4.78243 3.24326 5.45 2.99253C6.088 2.74453 6.812 2.57753 7.878 2.52753C8.944 2.48053 9.283 2.46753 12 2.46753ZM12 7.46753C10.6739 7.46753 9.40215 7.99431 8.46447 8.932C7.52678 9.86968 7 11.1414 7 12.4675C7 13.7936 7.52678 15.0654 8.46447 16.0031C9.40215 16.9407 10.6739 17.4675 12 17.4675C13.3261 17.4675 14.5979 16.9407 15.5355 16.0031C16.4732 15.0654 17 13.7936 17 12.4675C17 11.1414 16.4732 9.86968 15.5355 8.932C14.5979 7.99431 13.3261 7.46753 12 7.46753ZM18.5 7.21753C18.5 6.88601 18.3683 6.56807 18.1339 6.33365C17.8995 6.09923 17.5815 5.96753 17.25 5.96753C16.9185 5.96753 16.6005 6.09923 16.3661 6.33365C16.1317 6.56807 16 6.88601 16 7.21753C16 7.54905 16.1317 7.86699 16.3661 8.10141C16.6005 8.33583 16.9185 8.46753 17.25 8.46753C17.5815 8.46753 17.8995 8.33583 18.1339 8.10141C18.3683 7.86699 18.5 7.54905 18.5 7.21753ZM12 9.46753C12.7956 9.46753 13.5587 9.7836 14.1213 10.3462C14.6839 10.9088 15 11.6719 15 12.4675C15 13.2632 14.6839 14.0262 14.1213 14.5889C13.5587 15.1515 12.7956 15.4675 12 15.4675C11.2044 15.4675 10.4413 15.1515 9.87868 14.5889C9.31607 14.0262 9 13.2632 9 12.4675C9 11.6719 9.31607 10.9088 9.87868 10.3462C10.4413 9.7836 11.2044 9.46753 12 9.46753Z" fill="#8E98A8"/>
</svg>
