<svg width="65" height="64" viewBox="0 0 65 64" fill="none" xmlns="http://www.w3.org/2000/svg">
<path d="M32.4997 5.3335C17.8063 5.3335 5.83301 17.3068 5.83301 32.0002C5.83301 46.6935 17.8063 58.6668 32.4997 58.6668C47.193 58.6668 59.1663 46.6935 59.1663 32.0002C59.1663 17.3068 47.193 5.3335 32.4997 5.3335ZM45.2463 25.8668L30.1263 40.9868C29.753 41.3602 29.2463 41.5735 28.713 41.5735C28.1797 41.5735 27.673 41.3602 27.2997 40.9868L19.753 33.4402C18.9797 32.6668 18.9797 31.3868 19.753 30.6135C20.5263 29.8402 21.8063 29.8402 22.5797 30.6135L28.713 36.7468L42.4197 23.0402C43.193 22.2668 44.473 22.2668 45.2463 23.0402C46.0197 23.8135 46.0197 25.0668 45.2463 25.8668Z" fill="#03C988"/>
</svg>
