<svg width="24" height="24" viewBox="0 0 24 24" fill="none" xmlns="http://www.w3.org/2000/svg">
<path fill-rule="evenodd" clip-rule="evenodd" d="M2.66667 24H21.3333C22.8061 24 24 22.8061 24 21.3333V2.66667C24 1.19391 22.8061 0 21.3333 0H2.66667C1.19391 0 0 1.19391 0 2.66667V21.3333C0 22.8061 1.19391 24 2.66667 24Z" fill="#0274B3"/>
<path fill-rule="evenodd" clip-rule="evenodd" d="M20.6663 20.6668H17.1049V14.6009C17.1049 12.9377 16.4729 12.0083 15.1566 12.0083C13.7245 12.0083 12.9764 12.9755 12.9764 14.6009V20.6668H9.54412V9.11127H12.9764V10.6678C12.9764 10.6678 14.0084 8.75823 16.4605 8.75823C18.9116 8.75823 20.6663 10.255 20.6663 13.3506V20.6668ZM5.44946 7.59817C4.28036 7.59817 3.33301 6.64338 3.33301 5.46583C3.33301 4.28828 4.28036 3.3335 5.44946 3.3335C6.61855 3.3335 7.56534 4.28828 7.56534 5.46583C7.56534 6.64338 6.61855 7.59817 5.44946 7.59817ZM3.67719 20.6668H7.25614V9.11127H3.67719V20.6668Z" fill="white"/>
</svg>
