<svg width="48" height="49" viewBox="0 0 48 49" fill="none" xmlns="http://www.w3.org/2000/svg">
<g clip-path="url(#clip0_1738_28719)">
<path d="M24.0001 45.9024C35.8203 45.9024 45.4025 36.3202 45.4025 24.5C45.4025 12.6797 35.8203 3.09753 24.0001 3.09753C12.1798 3.09753 2.59766 12.6797 2.59766 24.5C2.59766 36.3202 12.1798 45.9024 24.0001 45.9024Z" fill="#345D9D"/>
<path d="M24 0.5C19.2533 0.5 14.6131 1.90758 10.6663 4.54473C6.71955 7.18188 3.6434 10.9302 1.8269 15.3156C0.0103987 19.701 -0.464881 24.5266 0.461164 29.1822C1.38721 33.8377 3.67299 38.1141 7.02945 41.4706C10.3859 44.827 14.6623 47.1128 19.3178 48.0388C23.9734 48.9649 28.799 48.4896 33.1844 46.6731C37.5698 44.8566 41.3181 41.7805 43.9553 37.8337C46.5924 33.8869 48 29.2468 48 24.5C48.0092 21.3574 47.3993 18.2438 46.2051 15.337C45.011 12.4301 43.256 9.7869 41.0403 7.55829C38.8247 5.32968 36.1918 3.55931 33.2919 2.34824C30.392 1.13718 27.282 0.509144 24.1395 0.5H24ZM24.4068 25.3136L21.908 33.7397H35.2736C35.3622 33.7366 35.4504 33.751 35.5334 33.782C35.6164 33.8131 35.6924 33.8601 35.7572 33.9206C35.822 33.981 35.8742 34.0537 35.9109 34.1343C35.9475 34.2149 35.968 34.302 35.971 34.3906V34.6114L34.8087 38.6211C34.7575 38.8107 34.6433 38.9772 34.4849 39.0934C34.3265 39.2096 34.1333 39.2684 33.9371 39.2603H13.4819L16.9104 27.5799L13.0751 28.7421L13.9467 26.069L17.7821 24.9068L22.6053 8.51937C22.6584 8.33081 22.7731 8.16545 22.9311 8.0496C23.089 7.93376 23.2812 7.87411 23.477 7.88015H28.6489C28.7375 7.87704 28.8257 7.89142 28.9087 7.92245C28.9917 7.95349 29.0677 8.00058 29.1325 8.06102C29.1973 8.12147 29.2495 8.19409 29.2862 8.27473C29.3228 8.35537 29.3433 8.44245 29.3463 8.53099V8.75182L25.2785 22.5823L29.1138 21.4201L28.3003 24.2094L24.4068 25.3136Z" fill="white"/>
</g>
<defs>
<clipPath id="clip0_1738_28719">
<rect width="48" height="48" fill="white" transform="translate(0 0.5)"/>
</clipPath>
</defs>
</svg>
