<svg width="48" height="48" viewBox="0 0 48 48" fill="none" xmlns="http://www.w3.org/2000/svg">
<path d="M24.0002 34.7002C25.8007 34.7002 27.2602 33.2406 27.2602 31.4402C27.2602 29.6397 25.8007 28.1802 24.0002 28.1802C22.1998 28.1802 20.7402 29.6397 20.7402 31.4402C20.7402 33.2406 22.1998 34.7002 24.0002 34.7002Z" fill="#353652"/>
<path d="M36.56 19.06V16.56C36.56 11.16 35.26 4 24 4C12.74 4 11.44 11.16 11.44 16.56V19.06C5.84 19.76 4 22.6 4 29.58V33.3C4 41.5 6.5 44 14.7 44H33.3C41.5 44 44 41.5 44 33.3V29.58C44 22.6 42.16 19.76 36.56 19.06ZM24 37.48C20.66 37.48 17.96 34.76 17.96 31.44C17.96 28.1 20.68 25.4 24 25.4C27.32 25.4 30.04 28.12 30.04 31.44C30.04 34.78 27.34 37.48 24 37.48ZM14.7 18.88C14.54 18.88 14.4 18.88 14.24 18.88V16.56C14.24 10.7 15.9 6.8 24 6.8C32.1 6.8 33.76 10.7 33.76 16.56V18.9C33.6 18.9 33.46 18.9 33.3 18.9H14.7V18.88Z" fill="#353652"/>
</svg>
