<svg width="112" height="28" viewBox="0 0 112 28" fill="none" xmlns="http://www.w3.org/2000/svg">
<path d="M74.0805 10.3965V20.4749C73.8451 22.3062 73.0402 24.017 71.7799 25.3646C70.5196 26.7123 68.8678 27.6284 67.0586 27.9833V10.3965H74.0805Z" fill="#1DA1F3"/>
<path d="M74.0805 3.51653C74.0805 4.21203 73.8745 4.89191 73.4888 5.4702C73.103 6.04849 72.5546 6.49921 71.9131 6.76537C71.2716 7.03153 70.5656 7.10117 69.8846 6.96548C69.2035 6.8298 68.5779 6.49488 68.0869 6.00309C67.5959 5.51129 67.2615 4.88471 67.1261 4.20257C66.9906 3.52043 67.0601 2.81337 67.3259 2.17081C67.5916 1.52825 68.0416 0.979042 68.619 0.592641C69.1963 0.20624 69.8751 0 70.5695 0C71.5007 0 72.3937 0.37049 73.0521 1.02997C73.7106 1.68944 74.0805 2.58389 74.0805 3.51653Z" fill="#1DA1F3"/>
<path d="M19.1346 0.0209961H0C0.405178 2.00647 1.48256 3.79086 3.04993 5.07239C4.6173 6.35392 6.57847 7.05393 8.60177 7.05405H10.3572V27.9858C12.2038 27.6185 13.8833 26.666 15.1478 25.2691C16.4123 23.8721 17.1946 22.1049 17.3791 20.2284V7.05405H28.0678C27.2546 3.04099 23.3814 0.0209961 19.1346 0.0209961Z" fill="#1DA1F3"/>
<path d="M46.6955 10.4091V27.9918L44.1241 25.4162C42.5664 26.9823 40.4747 27.8999 38.2693 27.9847C38.1527 27.9847 38.0361 27.9918 37.9182 27.9918C36.1822 27.9918 34.4853 27.4763 33.0418 26.5104C31.5984 25.5445 30.4734 24.1715 29.809 22.5652C29.1446 20.9589 28.9706 19.1913 29.3092 17.486C29.6477 15.7807 30.4835 14.2142 31.7109 12.9846C32.5248 12.1669 33.4921 11.5184 34.5572 11.0764C35.6222 10.6345 36.7639 10.4077 37.9168 10.4091C38.0347 10.4091 38.1513 10.4091 38.2679 10.4091V17.5209C38.0974 17.4676 37.9198 17.4405 37.7412 17.4408C37.2761 17.4423 36.8305 17.628 36.5016 17.9574C36.1727 18.2868 35.9872 18.7332 35.9858 19.199C35.9849 19.5576 36.0938 19.9078 36.2976 20.2025C36.5014 20.4973 36.7905 20.7225 37.1259 20.8478C37.4613 20.9731 37.827 20.9925 38.1737 20.9035C38.5205 20.8144 38.8317 20.6211 39.0656 20.3496C39.3444 20.0315 39.4978 19.6224 39.4967 19.199V10.4077L46.6955 10.4091Z" fill="#1DA1F3"/>
<path d="M111.999 19.2004C112.002 21.4721 111.126 23.6565 109.555 25.2946C107.983 26.9328 105.839 27.897 103.573 27.9847C103.456 27.9847 103.34 27.9918 103.222 27.9918C100.894 27.9918 98.6612 27.0655 97.0152 25.4168C95.3691 23.7681 94.4443 21.532 94.4443 19.2004C94.4443 19.1709 94.4443 19.1414 94.4443 19.1118C94.4673 16.7957 95.402 14.5823 97.0453 12.9527C98.6887 11.3231 100.908 10.409 103.22 10.4091C103.338 10.4091 103.455 10.4091 103.571 10.4091V17.5209C103.316 17.4407 103.045 17.4202 102.78 17.461C102.515 17.5018 102.263 17.6027 102.043 17.7562C101.823 17.9096 101.641 18.1114 101.511 18.3462C101.382 18.5809 101.307 18.8423 101.293 19.1104C101.293 19.14 101.293 19.1695 101.293 19.199C101.293 19.6653 101.478 20.1126 101.808 20.4423C102.137 20.7721 102.583 20.9573 103.049 20.9573C103.514 20.9573 103.961 20.7721 104.29 20.4423C104.619 20.1126 104.804 19.6653 104.804 19.199V10.4077C108.811 11.2221 112 14.9454 112 19.199" fill="#1DA1F3"/>
<path d="M28.0679 10.4175V17.4505H27.5412C27.1307 17.4515 26.7333 17.5961 26.4179 17.8594C26.1025 18.1226 25.8888 18.488 25.8139 18.8923C25.7952 18.9968 25.7858 19.1027 25.7858 19.2088V20.2891C25.5995 22.1315 24.8374 23.8681 23.6081 25.2514C22.3788 26.6347 20.745 27.5942 18.9395 27.9931V19.2088C18.9383 18.054 19.1646 16.9103 19.6053 15.8432C20.046 14.7761 20.6925 13.8065 21.5078 12.9899C22.3231 12.1734 23.2911 11.5258 24.3565 11.0844C25.4219 10.643 26.5638 10.4164 27.7168 10.4175C27.8347 10.4175 27.9513 10.4175 28.0679 10.4175Z" fill="#1DA1F3"/>
<path d="M65.6545 0.0141602V19.2088C65.6537 20.7795 65.2331 22.3214 64.4364 23.6744C63.6397 25.0274 62.496 26.1422 61.124 26.9029C59.9288 27.5676 58.5943 27.941 57.2283 27.993C57.1117 27.993 56.9951 28.0001 56.8772 28.0001C55.1412 28.0001 53.4443 27.4846 52.0008 26.5187C50.5574 25.5528 49.4324 24.1799 48.7679 22.5735C48.1035 20.9672 47.9296 19.1997 48.2681 17.4943C48.6067 15.789 49.4425 14.2225 50.6698 12.993C51.4838 12.1753 52.4511 11.5268 53.5161 11.0848C54.5812 10.6428 55.7229 10.416 56.8758 10.4174C56.9937 10.4174 57.1103 10.4174 57.2269 10.4174V17.5208C57.079 17.4741 56.9254 17.4481 56.7704 17.4435C56.747 17.442 56.7236 17.442 56.7002 17.4435C56.2341 17.4453 55.7878 17.6322 55.459 17.9631C55.1302 18.294 54.9458 18.7419 54.9462 19.2088C54.9469 19.6749 55.1321 20.1216 55.4611 20.4512C55.7902 20.7808 56.2363 20.9663 56.7016 20.967C56.725 20.9685 56.7485 20.9685 56.7718 20.967C56.9268 20.9624 57.0804 20.9364 57.2283 20.8897C57.5376 20.7908 57.814 20.6088 58.0273 20.3636C58.3056 20.0435 58.4583 19.6331 58.4571 19.2088V8.65919C58.4571 4.3634 61.5874 0.782168 65.6545 0.0211915" fill="#1DA1F3"/>
<path d="M93.0392 0.0141602V19.2088C93.0424 21.4804 92.1662 23.6649 90.5949 25.303C89.0235 26.9411 86.8794 27.9053 84.613 27.993C84.4965 27.993 84.3799 28.0001 84.2619 28.0001C82.526 28.0001 80.829 27.4846 79.3856 26.5187C77.9422 25.5528 76.8171 24.1799 76.1527 22.5735C75.4883 20.9672 75.3144 19.1997 75.6529 17.4943C75.9914 15.789 76.8272 14.2225 78.0546 12.993C78.8686 12.1753 79.8359 11.5268 80.9009 11.0848C81.9659 10.6428 83.1077 10.416 84.2605 10.4174C84.3785 10.4174 84.4951 10.4174 84.6116 10.4174V17.5208C84.4412 17.4675 84.2636 17.4404 84.085 17.4407C83.6184 17.4425 83.1716 17.6298 82.8428 17.9613C82.5139 18.2928 82.3298 18.7414 82.3309 19.2088C82.3314 19.4847 82.3966 19.7566 82.5213 20.0027C82.6459 20.2488 82.8266 20.462 83.0487 20.6253C83.2707 20.7886 83.528 20.8974 83.7997 20.9428C84.0715 20.9882 84.35 20.9691 84.613 20.8869C84.9224 20.7879 85.1988 20.606 85.4121 20.3608C85.6897 20.0414 85.8424 19.6322 85.8418 19.2088V8.65919C85.8418 4.3634 88.9722 0.782168 93.0392 0.0211915" fill="#1DA1F3"/>
</svg>
