<svg width="25" height="24" viewBox="0 0 25 24" fill="none" xmlns="http://www.w3.org/2000/svg">
<path d="M2.59132 14.5454C2.59132 15.4634 2.79246 16.1653 3.05536 16.591C3.19546 16.8333 3.39721 17.0342 3.6401 17.1734C3.883 17.3125 4.1584 17.3848 4.43831 17.383C5.11434 17.383 5.73278 17.2161 6.9246 15.5669C7.8794 14.2457 9.00445 12.3954 9.76227 11.227L11.0442 9.25728C11.9348 7.88936 12.9638 6.3687 14.1473 5.33462C15.1113 4.49668 16.152 4.0293 17.1995 4.0293C18.958 4.0293 20.633 5.04835 21.915 6.95961C23.318 9.0528 24.0015 11.6893 24.0015 14.4102C24.0015 16.0276 23.6827 17.2161 23.1402 18.155C22.6169 19.0631 21.592 19.9703 19.8736 19.9703V17.383C21.345 17.383 21.7097 16.031 21.7097 14.4836C21.7097 12.2786 21.1956 9.83149 20.063 8.08299C19.2593 6.84276 18.2177 6.08494 17.0718 6.08494C15.8324 6.08494 14.835 7.0197 13.7141 8.68641C13.1182 9.57193 12.5065 10.6511 11.8196 11.8688L11.0634 13.2041C9.54444 15.8974 9.15969 16.5109 8.40019 17.5232C7.0715 19.3026 5.93476 19.9703 4.43831 19.9703C2.66309 19.9703 1.54055 19.2016 0.849489 18.0432C0.277783 17.0993 -0.000976562 15.8607 -0.000976562 14.4494L2.59132 14.5454Z" fill="#0081FB"/>
<path d="M2.04297 7.14239C3.23158 5.31042 4.94687 4.0293 6.91425 4.0293C8.05361 4.0293 9.18629 4.36314 10.3691 5.33212C11.6628 6.3879 13.0401 8.12639 14.7621 10.9916L15.3789 12.0198C16.868 14.5003 17.716 15.7756 18.211 16.3782C18.8487 17.151 19.2961 17.3797 19.8754 17.3797C21.347 17.3797 21.7117 16.0276 21.7117 14.4803L23.9988 14.4085C23.9988 16.026 23.6799 17.2144 23.1374 18.1534C22.619 19.0631 21.594 19.9703 19.8754 19.9703C18.807 19.9703 17.8604 19.7383 16.8137 18.751C16.0091 17.9931 15.0684 16.6469 14.3447 15.4367L12.192 11.8412C11.1119 10.0368 10.1212 8.69142 9.54772 8.08549C8.93004 7.42699 8.13792 6.63578 6.87252 6.63578C5.84835 6.63578 4.97859 7.35438 4.25074 8.45356L2.04297 7.14239Z" fill="url(#paint0_linear_1848_1525)"/>
<path d="M6.87202 6.63578C5.84796 6.63578 4.9783 7.35438 4.25052 8.45356C3.22145 10.0068 2.59132 12.3203 2.59132 14.5454C2.59132 15.4634 2.79246 16.1653 3.05536 16.591L0.845316 18.0432C0.277783 17.0993 -0.000976562 15.8607 -0.000976562 14.4494C-0.000976562 11.883 0.703433 9.20804 2.04298 7.14239C3.23146 5.31042 4.94658 4.0293 6.91375 4.0293L6.87202 6.63578Z" fill="url(#paint1_linear_1848_1525)"/>
<defs>
<linearGradient id="paint0_linear_1848_1525" x1="5.20229" y1="11.5867" x2="21.7293" y2="12.4215" gradientUnits="userSpaceOnUse">
<stop stop-color="#0064E1"/>
<stop offset="0.4" stop-color="#0064E1"/>
<stop offset="0.83" stop-color="#0073EE"/>
<stop offset="1" stop-color="#0082FB"/>
</linearGradient>
<linearGradient id="paint1_linear_1848_1525" x1="3.45597" y1="15.6304" x2="3.45597" y2="9.53771" gradientUnits="userSpaceOnUse">
<stop stop-color="#0082FB"/>
<stop offset="1" stop-color="#0064E0"/>
</linearGradient>
</defs>
</svg>
