<svg width="56" height="17" viewBox="0 0 56 17" fill="none" xmlns="http://www.w3.org/2000/svg">
<g clip-path="url(#clip0_1739_29885)">
<path d="M7.70016 15.0917C6.85776 15.2396 6.00053 15.284 5.11377 15.4021L2.40904 7.48027V15.7421C1.56663 15.8307 0.798109 15.949 0 16.0672V0.932861H2.24656L5.32066 9.51995V0.932861H7.70016V15.0917ZM12.3558 6.47522C13.2722 6.47522 14.6762 6.43087 15.5186 6.43087V8.79556C14.4692 8.79556 13.2426 8.79556 12.3558 8.83991V12.3575C13.7451 12.2689 15.1344 12.1505 16.5384 12.1062V14.3821L9.99097 14.8995V0.932861H16.5384V3.2976H12.3558V6.47522ZM25.3322 3.29766H22.8788V14.1754C22.0807 14.1754 21.2826 14.1754 20.5142 14.2049V3.29766H18.0608V0.932861H25.3323L25.3322 3.29766ZM29.1749 6.31269H32.4117V8.67738H29.1749V14.0424H26.8544V0.932861H33.461V3.2976H29.1749V6.31269ZM37.3037 11.9732C38.6487 12.0027 40.0083 12.1063 41.3238 12.1801V14.5153C39.2103 14.3822 37.0968 14.2494 34.939 14.2049V0.932861H37.3037V11.9732ZM43.319 14.6779C44.0728 14.7223 44.8709 14.7667 45.6394 14.8552V0.932861H43.319V14.6779ZM56 0.932861L52.9997 8.13056L56 16.0672C55.1131 15.949 54.2264 15.7864 53.3396 15.6385L51.64 11.2639L49.9109 15.284C49.0535 15.136 48.2259 15.0917 47.3688 14.9734L50.4134 8.0418L47.6643 0.932861H50.2063L51.7582 4.90859L53.4136 0.932861L56 0.932861Z" fill="white"/>
</g>
<defs>
<clipPath id="clip0_1739_29885">
<rect width="56" height="15.1343" fill="white" transform="translate(0 0.932861)"/>
</clipPath>
</defs>
</svg>
