<svg xmlns="http://www.w3.org/2000/svg" width="16" height="16" viewBox="0 0 16 16" fill="none"><path d="M11.9512 0.664753C13.024 0.664753 14.056 1.08875 14.8152 1.84955C15.5752 2.60875 16 3.63275 16 4.70475V11.0248C16 13.2568 14.184 15.0648 11.9512 15.0648H4.048C1.8152 15.0648 0 13.2568 0 11.0248V4.70475C0 2.47275 1.8072 0.664753 4.048 0.664753H11.9512ZM12.856 4.82475C12.688 4.81595 12.528 4.87275 12.4072 4.98475L8.8 7.86475C8.336 8.24955 7.6712 8.24955 7.2 7.86475L3.6 4.98475C3.3512 4.80075 3.0072 4.82475 2.8 5.04075C2.584 5.25675 2.56 5.60075 2.7432 5.84075L2.848 5.94475L6.488 8.78475C6.936 9.13675 7.4792 9.32875 8.048 9.32875C8.6152 9.32875 9.168 9.13675 9.6152 8.78475L13.224 5.89675L13.288 5.83275C13.4792 5.60075 13.4792 5.26475 13.2792 5.03275C13.168 4.91355 13.0152 4.84075 12.856 4.82475Z" fill="#BCC1C8" /></svg>
