<svg width="48" height="49" viewBox="0 0 48 49" fill="none" xmlns="http://www.w3.org/2000/svg">
<g clip-path="url(#clip0_1738_28722)">
<path d="M35.1453 4.72287C33.8961 5.958 32.7516 7.29668 31.7343 8.72411L31.4127 8.62056C29.5576 8.02148 27.6352 7.65169 25.6979 7.52595C25.1144 7.48158 22.9377 7.48158 22.2271 7.52595C20.0803 7.66648 18.4347 7.98451 16.5646 8.62796C16.4898 8.65754 16.4225 8.67973 16.3552 8.70192C15.3005 7.28189 14.1261 5.95061 12.832 4.73027C19.0405 1.58697 26.3037 1.20978 32.804 3.68743C33.4996 3.94629 34.1803 4.24953 34.8461 4.57495L35.1453 4.72287Z" fill="#F00500"/>
<path d="M46.7254 32.7759C45.7829 35.4311 44.3692 37.894 42.5366 40.0388C41.5417 41.1926 40.4421 42.2502 39.2603 43.2117C36.4926 45.4157 33.2612 46.991 29.8129 47.8194C25.998 48.7291 22.0186 48.7291 18.2037 47.8194C14.7479 46.991 11.524 45.4157 8.7563 43.2117C7.57444 42.2502 6.47486 41.1926 5.48 40.0388C0.206508 33.8779 -1.39424 25.4169 1.29113 17.7917C1.79978 16.379 2.43559 15.0182 3.19856 13.7239C3.55013 13.1322 3.98398 12.4665 4.19342 12.1929C4.91151 15.2474 5.79416 17.9322 6.12329 18.9011C6.10085 18.9528 6.07093 19.012 6.04101 19.0638C4.29814 22.5547 3.35565 25.9198 3.13124 29.4995C3.13124 29.5439 3.12376 29.5957 3.12376 29.64C3.06392 30.7125 3.09384 31.2228 3.27336 31.8958C3.83437 34.0037 5.56229 36.326 8.27009 38.604C12.7058 42.3316 18.7198 45.0237 23.2752 45.3343C28.0251 45.6524 35.034 42.9084 39.7016 38.8998C40.4347 38.2564 41.1228 37.5759 41.7661 36.8511C42.2299 36.3186 42.9181 35.4015 42.8657 35.4015C42.8507 35.4015 42.8657 35.3867 42.8956 35.3719C42.9181 35.3571 42.9405 35.3349 42.9255 35.3202C42.9181 35.3128 42.933 35.2906 42.9555 35.2832C42.9779 35.2758 42.9929 35.261 42.9854 35.2462C42.9779 35.2314 42.9854 35.2166 43.0153 35.2092C43.0377 35.2018 43.0452 35.1796 43.0377 35.1648C43.0303 35.1501 43.0377 35.1353 43.0527 35.1353C43.0677 35.1353 43.0826 35.1131 43.0826 35.0983C43.0826 35.0835 43.0976 35.0613 43.1125 35.0613C43.1275 35.0613 43.1425 35.0465 43.1425 35.0317C43.1649 34.9725 43.2023 34.9134 43.2397 34.8616C43.3519 34.6915 43.8007 33.9001 43.8605 33.767C44.2869 32.8129 44.5562 31.9624 44.6834 31.1118C44.7432 30.7051 44.7806 29.9581 44.7507 29.7806C44.7432 29.751 44.7432 29.6992 44.7357 29.6178C44.7208 29.4699 44.7133 29.248 44.6983 29.0262C44.6834 28.6933 44.6534 28.2274 44.631 27.9981C44.3094 24.6403 43.4417 21.8964 41.796 18.9898C41.7287 18.8789 41.6689 18.7679 41.6315 18.6792C41.6165 18.657 41.609 18.6348 41.6016 18.62C41.8334 17.9322 42.7834 15.0551 43.5389 11.7639L43.5539 11.7787L43.6661 11.9266C43.8606 12.1855 44.3767 12.9547 44.6086 13.3245C45.6633 15.0255 46.4861 16.8524 47.0695 18.7605C48.4234 23.3534 48.3112 28.2496 46.7254 32.7759Z" fill="#F00500"/>
<path d="M37.0167 23.9376C36.9943 24.056 36.6427 24.411 36.2912 24.6698C35.2589 25.4168 33.4113 26.1121 31.5338 26.4449C30.4641 26.6372 29.3945 26.6668 29.0728 26.5114C28.8634 26.4079 28.8335 26.3265 28.9083 26.0603C29.0654 25.5056 29.574 24.8991 30.3669 24.3296C30.7708 24.0412 32.409 23.0575 33.172 22.6433C34.4286 21.9629 35.4459 21.5561 36.1341 21.46C36.351 21.4304 36.6128 21.423 36.6951 21.46C36.8297 21.5117 36.9793 21.9037 37.0392 22.3771C37.0691 22.6285 37.0541 23.7379 37.0167 23.9376Z" fill="black"/>
<path d="M19.3935 26.3857C19.3487 26.4744 19.1243 26.5706 18.8699 26.6076C18.6156 26.6445 17.8377 26.6224 17.3963 26.5706C15.8106 26.3635 14.1275 25.8828 12.9008 25.2911C12.2126 24.9583 11.7189 24.6254 11.3524 24.263L11.143 24.0485L11.1205 23.7675C11.0831 23.2794 11.0906 22.5102 11.1504 22.2365C11.1878 22.0073 11.2701 21.7854 11.3823 21.5857C11.4422 21.5117 11.4422 21.5117 11.7114 21.5117C12.0406 21.5117 12.3173 21.5635 12.7661 21.704C13.6862 21.9851 15.0551 22.6655 16.7231 23.6566C18.0995 24.4701 18.6156 24.8695 19.0121 25.4168C19.2813 25.757 19.4609 26.2378 19.3935 26.3857Z" fill="black"/>
<path d="M29.9854 36.6809C29.9854 36.7031 29.8957 37.0581 29.7835 37.4797C29.6713 37.9013 29.5815 38.2415 29.5815 38.2563C29.4992 38.2637 29.4244 38.2711 29.3422 38.2637H29.1028L28.7737 39.0328C28.5941 39.4544 28.4296 39.8464 28.4071 39.9056L28.3623 40.0091L28.2052 39.7577L28.0481 39.5062V37.4575L27.9883 37.4723C27.8611 37.5019 26.956 37.6202 26.5595 37.6572C24.9214 37.8199 23.2758 37.7829 21.6451 37.5537C21.3833 37.5167 21.1589 37.4871 21.1514 37.4945C21.1439 37.5019 21.1514 37.9752 21.1664 38.5595L21.1888 39.6097L21.0617 39.802C20.9943 39.9056 20.927 39.9943 20.927 40.0017C20.9046 40.0239 20.8298 39.9056 20.6577 39.5654C20.4707 39.2104 20.3361 38.8332 20.2388 38.4412L20.1865 38.2267L19.9546 38.2415L19.7227 38.2637L19.6629 37.99C19.6329 37.8421 19.5955 37.6128 19.5806 37.4871L19.5581 37.2504L19.3637 37.0803C19.2515 36.9842 19.1393 36.888 19.1168 36.8732C19.0794 36.8436 19.0645 36.7919 19.0645 36.7475V36.6587L19.9995 36.6661L20.9345 36.6735L20.9644 36.7697L20.9943 36.8658L21.316 36.8806C21.4955 36.888 22.064 36.9028 22.5726 36.9176L23.5077 36.9398L23.747 36.57L23.9939 36.2002H24.308L24.3005 35.431L24.2931 34.6618L23.8817 34.4843C22.5577 33.9074 21.7797 33.2492 21.488 32.4504C21.4282 32.2877 21.4282 32.2285 21.4132 31.4889C21.4057 30.7567 21.4057 30.6902 21.4581 30.5275C21.5628 30.1577 21.8545 29.8692 22.2286 29.7731C22.3557 29.7361 22.6923 29.7361 24.4576 29.7361L26.5371 29.7435L26.769 29.8544C27.0458 29.9876 27.1729 30.0837 27.33 30.2908C27.5095 30.5275 27.5619 30.7124 27.5619 31.1635C27.5619 31.807 27.517 32.3617 27.4497 32.5835C27.3524 32.8868 27.2028 33.1752 27.0158 33.4341C26.6418 33.9074 25.9611 34.3808 25.3403 34.5953L25.1608 34.6618L25.1682 35.4384L25.1757 36.215L25.3403 36.2298L25.5049 36.2446L25.7293 36.5774L25.9462 36.9102H26.9485C27.502 36.9102 27.9883 36.9176 28.0331 36.925C28.1079 36.9398 28.1229 36.9324 28.1977 36.8067L28.2875 36.6735H29.1477C29.791 36.6439 29.9854 36.6587 29.9854 36.6809Z" fill="black"/>
<path d="M26.036 38.8036C25.8939 38.8849 25.7967 38.9219 25.7742 38.9071C25.7518 38.8997 25.6471 38.811 25.5348 38.7296L25.3329 38.5669L25.1234 38.7888C24.6672 39.2769 24.6522 39.2991 24.5176 39.3065C24.3081 39.3287 24.2632 39.2917 24.0089 38.9145C23.8743 38.7222 23.7695 38.5595 23.7695 38.5595C23.7695 38.5595 23.6723 38.5447 23.5601 38.5373L23.3507 38.5151L23.2534 38.7148L23.1562 38.9145L22.9841 38.8628C22.8495 38.8184 22.7148 38.7666 22.5877 38.7074L22.3633 38.5965V38.1749L24.353 38.1823L26.3427 38.1897L26.3502 38.3894C26.3577 38.6261 26.3651 38.6187 26.036 38.8036Z" fill="black"/>
<path d="M44.7357 29.7805C44.7282 29.7509 44.7282 29.6991 44.7207 29.6178C42.9255 29.4255 37.8016 29.3071 33.0442 33.19C33.0442 33.19 31.5108 26.2378 24.3299 26.2378C17.149 26.2378 14.486 33.19 14.486 33.19C10.4617 28.9077 5.07603 29.2184 3.13119 29.4994C3.13119 29.5438 3.12371 29.5956 3.12371 29.64C3.06387 30.7124 3.09379 31.2227 3.27331 31.8957C3.83432 34.0036 5.56224 36.3259 8.27004 38.6039C12.7058 42.3315 18.7198 45.0236 23.2752 45.3342C28.0251 45.6523 35.0339 42.9084 39.7015 38.8997C40.4346 38.2563 41.1228 37.5759 41.7661 36.851C42.2298 36.3185 42.918 35.4014 42.8657 35.4014C42.8507 35.4014 42.8657 35.3866 42.8956 35.3718C42.918 35.3571 42.9404 35.3349 42.9255 35.3201C42.918 35.3127 42.933 35.2905 42.9554 35.2831C42.9778 35.2757 42.9928 35.2609 42.9853 35.2461C42.9778 35.2313 42.9853 35.2165 43.0153 35.2091C43.0377 35.2017 43.0452 35.1796 43.0377 35.1648C43.0302 35.15 43.0377 35.1352 43.0527 35.1352C43.0676 35.1352 43.0826 35.113 43.0826 35.0982C43.0826 35.0834 43.0975 35.0612 43.1125 35.0612C43.1274 35.0612 43.1424 35.0464 43.1424 35.0316C43.1649 34.9725 43.2023 34.9133 43.2397 34.8615C43.3519 34.6914 43.8007 33.9 43.8605 33.7669C44.2869 32.8128 44.5562 31.9623 44.6833 31.1118C44.7282 30.705 44.7656 29.958 44.7357 29.7805ZM26.0354 38.8036C25.8932 38.8849 25.796 38.9219 25.7735 38.9071C25.7511 38.8997 25.6464 38.811 25.5342 38.7296L25.3322 38.5669L25.1228 38.7888C24.6665 39.2769 24.6515 39.2991 24.5169 39.3065C24.3074 39.3287 24.2626 39.2917 24.0082 38.9145C23.8736 38.7222 23.7689 38.5595 23.7689 38.5595C23.7689 38.5595 23.6716 38.5447 23.5594 38.5373L23.35 38.5151L23.2527 38.7148L23.1555 38.9145L22.9835 38.8628C22.8488 38.8184 22.7142 38.7666 22.587 38.7074L22.3626 38.5965V38.1749L24.3523 38.1823L26.342 38.1897L26.3495 38.3894C26.357 38.6261 26.3645 38.6187 26.0354 38.8036ZM29.7754 37.4723C29.6632 37.8939 29.5735 38.2341 29.5735 38.2489C29.4912 38.2563 29.4164 38.2637 29.3341 38.2563H29.0947L28.7731 39.0329C28.5936 39.4544 28.429 39.8464 28.4066 39.9056L28.3617 40.0091L28.2046 39.7577L28.0475 39.5062V37.4575L27.9877 37.4723C27.8605 37.5019 26.9554 37.6202 26.559 37.6572C24.9208 37.8199 23.2752 37.7829 21.6445 37.5537C21.3827 37.5167 21.1583 37.4871 21.1508 37.4945C21.1433 37.5019 21.1508 37.9752 21.1658 38.5595L21.1882 39.6097L21.0611 39.802C20.9937 39.9056 20.9264 39.9943 20.9264 40.0017C20.904 40.0239 20.8292 39.9056 20.6571 39.5654C20.4701 39.2104 20.3355 38.8332 20.2383 38.4412L20.1859 38.2267L19.954 38.2415L19.7221 38.2637L19.6623 37.99C19.6324 37.8421 19.595 37.6128 19.58 37.4871L19.5576 37.2504L19.3631 37.0803C19.2509 36.9842 19.1387 36.888 19.1162 36.8732C19.0788 36.8436 19.0639 36.7919 19.0639 36.7475V36.6588L19.9989 36.6661L20.9339 36.6735L20.9638 36.7697L20.9937 36.8658L21.3154 36.8806C21.4949 36.888 22.0634 36.9028 22.572 36.9176L23.5071 36.9398L23.7464 36.57L23.9933 36.2002H24.3074L24.3 35.431L24.2925 34.6618L23.8811 34.4843C22.5571 33.9074 21.7792 33.2492 21.4874 32.4504C21.4276 32.2877 21.4276 32.2285 21.4126 31.4889C21.4051 30.7567 21.4051 30.6902 21.4575 30.5275C21.5622 30.1577 21.854 29.8692 22.228 29.7731C22.3551 29.7361 22.6917 29.7361 24.457 29.7361L26.5365 29.7435L26.7684 29.8544C27.0452 29.9876 27.1723 30.0837 27.3294 30.2908C27.5089 30.5275 27.5613 30.7124 27.5613 31.1635C27.5613 31.807 27.5164 32.3617 27.4491 32.5836C27.3519 32.8868 27.2023 33.1752 27.0152 33.4341C26.6412 33.9074 25.9605 34.3808 25.3397 34.5953L25.1602 34.6618L25.1677 35.4384L25.1751 36.215L25.3397 36.2298L25.5043 36.2446L25.7287 36.5774L25.9456 36.9102H26.9479C27.5015 36.9102 27.9877 36.9176 28.0325 36.925C28.1073 36.9398 28.1223 36.9324 28.1971 36.8067L28.2869 36.6735H29.1471C29.8128 36.6735 30.0073 36.6809 30.0073 36.7031C29.9849 36.6957 29.8876 37.0581 29.7754 37.4723Z" fill="white"/>
<path d="M44.6748 29.0261C44.6599 28.6932 44.63 28.2273 44.6075 27.998C44.2859 24.6402 43.4182 21.8963 41.7726 18.9897C41.7052 18.8788 41.6454 18.7678 41.608 18.6791C41.593 18.6569 41.5855 18.6347 41.5781 18.6199C41.8099 17.9321 42.7599 15.055 43.5154 11.7638C44.5402 7.29663 45.191 2.07506 43.2013 0.507112C43.2013 0.507112 39.7604 0.255648 35.1526 4.72283C33.9035 5.95796 32.759 7.29663 31.7417 8.72406L31.42 8.62052C29.565 8.02144 27.6426 7.65164 25.7052 7.52591C25.1218 7.48153 22.9451 7.48153 22.2344 7.52591C20.0876 7.66643 18.442 7.98446 16.572 8.62791C16.4972 8.6575 16.4299 8.67968 16.3625 8.70187C15.3078 7.28184 14.1335 5.95056 12.8394 4.73023C8.04464 0.240857 4.47662 0.499716 4.47662 0.499716C2.36722 2.11944 3.08531 7.57768 4.17741 12.1928C4.89551 15.2473 5.77816 17.9321 6.10729 18.9009C6.08485 18.9527 6.05493 19.0119 6.02501 19.0637C4.28214 22.5546 3.33964 25.9197 3.11523 29.4994C5.06755 29.2184 10.4458 28.9003 14.4776 33.19C14.4776 33.19 17.1405 26.2378 24.3214 26.2378C31.5023 26.2378 33.0358 33.19 33.0358 33.19C37.7931 29.3071 42.917 29.4328 44.7122 29.6177C44.7048 29.4698 44.6898 29.2479 44.6748 29.0261ZM7.52103 16.1127C7.52103 16.1127 4.72346 9.1974 5.44155 5.24794C5.56124 4.5823 5.78564 3.99802 6.13721 3.55426C6.13721 3.55426 9.30878 3.86489 14.4252 9.48585C14.4252 9.48585 13.4528 9.9518 12.1512 10.9429C12.1512 10.9429 12.1438 10.9503 12.1363 10.9503C10.7225 12.0227 8.91234 13.7238 7.52103 16.1127ZM19.392 26.3857C19.3471 26.4744 19.1227 26.5706 18.8684 26.6076C18.6141 26.6446 17.8361 26.6224 17.3948 26.5706C15.809 26.3635 14.126 25.8828 12.8992 25.2911C12.2111 24.9583 11.7174 24.6254 11.3509 24.263L11.1414 24.0486L11.119 23.7675C11.0816 23.2794 11.0891 22.5102 11.1489 22.2365C11.1863 22.0073 11.2686 21.7854 11.3808 21.5857C11.4406 21.5117 11.4406 21.5117 11.7099 21.5117C12.039 21.5117 12.3158 21.5635 12.7646 21.704C13.6847 21.9851 15.0535 22.6655 16.7216 23.6566C18.0979 24.4701 18.6141 24.8695 19.0105 25.4168C19.2798 25.757 19.4593 26.2378 19.392 26.3857ZM37.0152 23.9376C36.9927 24.056 36.6412 24.411 36.2896 24.6698C35.2574 25.4168 33.4098 26.112 31.5323 26.4449C30.4626 26.6372 29.3929 26.6667 29.0713 26.5114C28.8618 26.4079 28.8319 26.3265 28.9067 26.0603C29.0638 25.5056 29.5725 24.8991 30.3654 24.3296C30.7693 24.0412 32.4074 23.0575 33.1704 22.6433C34.4271 21.9629 35.4444 21.5561 36.1325 21.46C36.3495 21.4304 36.6113 21.423 36.6935 21.46C36.8282 21.5117 36.9778 21.9037 37.0376 22.3771C37.0675 22.6285 37.0526 23.7379 37.0152 23.9376ZM35.7735 10.9429L35.7585 10.9355C34.5019 9.9444 33.5594 9.47845 33.5594 9.47845C38.5037 3.8575 41.5631 3.54687 41.5631 3.54687C41.8997 3.99802 42.1166 4.57491 42.2363 5.24055C42.932 9.19001 40.2316 16.1127 40.2316 16.1127C39.1021 14.1231 37.5837 12.3629 35.7735 10.9429Z" fill="#FFA409"/>
<path d="M42.245 5.24056C41.6615 5.1666 38.9014 5.15181 35.7747 10.9429L35.7597 10.9355C34.503 9.94441 33.5605 9.47846 33.5605 9.47846C38.5049 3.85751 41.5643 3.54688 41.5643 3.54688C41.9084 3.99803 42.1253 4.57492 42.245 5.24056Z" fill="#FF9300"/>
<path d="M40.241 16.1126C39.1041 14.1157 37.5931 12.3629 35.7754 10.9428C38.9021 5.15177 41.6548 5.16656 42.2457 5.24052C42.9414 9.19738 40.241 16.1126 40.241 16.1126Z" fill="#FF8300"/>
<path d="M42.3576 5.26304C42.3198 5.25556 42.282 5.24808 42.2441 5.2406L42.3576 5.26304Z" fill="#FF8300"/>
<path d="M14.4247 9.47846C14.4247 9.47846 13.4523 9.94441 12.1508 10.9355C12.1508 10.9355 12.1433 10.9429 12.1358 10.9429C8.89689 5.14441 6.04696 5.1666 5.43359 5.24056C5.55328 4.57492 5.77768 3.99063 6.12925 3.54688C6.13673 3.54688 9.3083 3.85751 14.4247 9.47846Z" fill="#FF9300"/>
<path d="M12.1443 10.9428C10.7231 12.0226 8.91288 13.7163 7.52157 16.1126C7.52157 16.1126 4.724 9.19738 5.44209 5.24052C6.04798 5.16656 8.90539 5.15177 12.1443 10.9428Z" fill="#FF8300"/>
<path d="M5.44331 5.2406C5.40548 5.24808 5.36009 5.25556 5.32227 5.26304L5.44331 5.2406Z" fill="#FF8300"/>
<path d="M32.6711 19.9512C32.6711 19.9512 30.2775 20.0991 30.5767 18.2501C30.8759 16.4011 32.7459 16.1792 33.2695 16.2532C33.7931 16.3272 35.8876 17.0668 35.5136 18.6199C35.1395 20.1731 34.6159 19.8772 34.3167 19.9512C34.0175 20.0252 32.6711 19.9512 32.6711 19.9512Z" fill="white"/>
<path d="M15.0168 19.9512C15.0168 19.9512 12.6232 20.0991 12.9224 18.2501C13.2216 16.4011 15.0916 16.1792 15.6152 16.2532C16.1388 16.3272 18.2333 17.0668 17.8593 18.6199C17.4852 20.1731 16.9616 19.8772 16.6624 19.9512C16.3632 20.0252 15.0168 19.9512 15.0168 19.9512Z" fill="white"/>
</g>
<defs>
<clipPath id="clip0_1738_28722">
<rect width="48" height="48" fill="white" transform="translate(0 0.5)"/>
</clipPath>
</defs>
</svg>
