<svg width="56" height="45" viewBox="0 0 56 45" fill="none" xmlns="http://www.w3.org/2000/svg">
<g clip-path="url(#clip0_1739_29930)">
<path d="M9.09719 34.0534C9.43513 33.7154 9.8998 33.5183 10.3926 33.5183H55.0856C55.9023 33.5183 56.3107 34.504 55.7333 35.0813L46.9046 43.9101C46.5666 44.248 46.102 44.4451 45.6091 44.4451H0.916148C0.0994521 44.4451 -0.308896 43.4595 0.268424 42.8822L9.09719 34.0534Z" fill="white"/>
<path d="M9.09719 1.08989C9.44921 0.751943 9.91389 0.55481 10.3926 0.55481H55.0856C55.9023 0.55481 56.3107 1.54048 55.7333 2.1178L46.9046 10.9466C46.5666 11.2845 46.102 11.4816 45.6091 11.4816H0.916148C0.0994521 11.4816 -0.308896 10.496 0.268424 9.91865L9.09719 1.08989Z" fill="white"/>
<path d="M46.9046 17.4661C46.5666 17.1282 46.102 16.931 45.6091 16.931H0.916148C0.0994521 16.931 -0.308896 17.9167 0.268424 18.494L9.09719 27.3228C9.43513 27.6607 9.8998 27.8579 10.3926 27.8579H55.0856C55.9023 27.8579 56.3107 26.8722 55.7333 26.2949L46.9046 17.4661Z" fill="white"/>
</g>
<defs>
<clipPath id="clip0_1739_29930">
<rect width="56" height="43.8904" fill="white" transform="translate(0 0.55481)"/>
</clipPath>
</defs>
</svg>
