<svg width="56" height="57" viewBox="0 0 56 57" fill="none" xmlns="http://www.w3.org/2000/svg">
<g clip-path="url(#clip0_1739_29842)">
<path d="M28 13.0142L33.7785 5.95125C33.7785 5.95125 43.6765 6.16125 53.5395 10.7463C51.0143 14.5647 46.0023 16.4337 46.0023 16.4337C45.6645 13.079 43.3142 12.26 35.84 12.26L28.0017 56.5017L20.1093 12.2513C12.6893 12.2513 10.339 13.072 10.0013 16.425C10.0013 16.425 4.9875 14.5753 2.464 10.755C12.3253 6.17 22.225 5.96 22.225 5.96L28.0035 13.0142H27.9947H28ZM28 3.91775C35.966 3.84425 45.0905 5.148 54.432 9.23075C55.6815 6.96975 56 5.9775 56 5.9775C45.7923 1.92975 36.2303 0.53675 28 0.5C19.7698 0.53675 10.2078 1.92275 0 5.9775C0 5.9775 0.455 7.20775 1.568 9.24125C10.9113 5.13925 20.034 3.846 28 3.909V3.91775Z" fill="white"/>
</g>
<defs>
<clipPath id="clip0_1739_29842">
<rect width="56" height="56" fill="white" transform="translate(0 0.5)"/>
</clipPath>
</defs>
</svg>
