<svg width="48" height="49" viewBox="0 0 48 49" fill="none" xmlns="http://www.w3.org/2000/svg">
<g clip-path="url(#clip0_1738_28882)">
<path fill-rule="evenodd" clip-rule="evenodd" d="M8.78807 0.735748L0.0359818 21.8689C0.00267758 21.9476 -0.00787631 22.0363 0.00586352 22.1223C0.0196033 22.2083 0.0569161 22.287 0.112345 22.3469L23.7496 48.3846C23.8168 48.4586 23.9062 48.5 23.9992 48.5C24.0922 48.5 24.1817 48.4586 24.2488 48.3846L47.8861 22.3485C47.9415 22.2886 47.9788 22.21 47.9926 22.124C48.0063 22.038 47.9958 21.9492 47.9624 21.8706L39.2104 0.737374C39.1821 0.666399 39.1367 0.606275 39.0795 0.564187C39.0223 0.522098 38.9558 0.499826 38.8879 0.500031H9.11332C9.0451 0.499056 8.97809 0.520792 8.92038 0.562617C8.86267 0.604442 8.81671 0.66457 8.78807 0.735748Z" fill="white"/>
<path fill-rule="evenodd" clip-rule="evenodd" d="M27.0372 24.0391C26.8675 24.0538 25.9908 24.1139 24.035 24.1139C22.4795 24.1139 21.375 24.0603 20.9876 24.0391C14.9761 23.7351 10.489 22.5322 10.489 21.0919C10.489 19.6516 14.9761 18.4502 20.9876 18.1413V22.841C21.3807 22.8736 22.5063 22.95 24.0619 22.95C25.9286 22.95 26.8633 22.8606 27.0316 22.8427V18.1446C33.0303 18.4518 37.5075 19.6548 37.5075 21.0919C37.5075 22.5289 33.0318 23.7319 27.0316 24.0375L27.0372 24.0391ZM27.0372 17.6585V13.453H35.4089V7.03992H12.6159V13.453H20.9862V17.6569C14.1827 18.0162 9.06641 19.5654 9.06641 21.4219C9.06641 23.2783 14.1827 24.8259 20.9862 25.1868V38.6633H27.0358V25.182C33.8237 24.8227 38.9315 23.2751 38.9315 21.4202C38.9315 19.5654 33.8279 18.0178 27.0358 17.6569L27.0372 17.6585Z" fill="#50AF95"/>
</g>
<defs>
<clipPath id="clip0_1738_28882">
<rect width="48" height="48" fill="white" transform="translate(0 0.5)"/>
</clipPath>
</defs>
</svg>
