<svg width="46" height="57" viewBox="0 0 46 57" fill="none" xmlns="http://www.w3.org/2000/svg">
<path d="M38.2832 30.251C38.3619 38.7257 45.7176 41.5458 45.7991 41.5817C45.7369 41.7805 44.6238 45.6006 41.9237 49.5464C39.5896 52.9579 37.1672 56.3567 33.3512 56.4271C29.6015 56.4962 28.3958 54.2036 24.1089 54.2036C19.8232 54.2036 18.4836 56.3568 14.9341 56.4963C11.2507 56.6358 8.44564 52.8074 6.09228 49.4084C1.28328 42.4559 -2.39179 29.7622 2.54291 21.1937C4.99435 16.9386 9.37528 14.244 14.1304 14.1749C17.7475 14.1059 21.1614 16.6084 23.3727 16.6084C25.5826 16.6084 29.7313 13.599 34.0928 14.041C35.9187 14.1169 41.0441 14.7785 44.3351 19.5958C44.0699 19.7602 38.2196 23.166 38.2832 30.251ZM31.2361 9.44124C33.1917 7.07409 34.5079 3.7788 34.1488 0.5C31.33 0.613293 27.9214 2.37838 25.8995 4.74424C24.0876 6.8393 22.5007 10.1926 22.9288 13.4065C26.0707 13.6496 29.2804 11.8099 31.2361 9.44124Z" fill="white"/>
</svg>
